STARTFONT 2.1
FONT -FontForge-Inter-Book-R-Normal--25-240-75-75-P-150-ISO10646-1
SIZE 24 75 75
FONTBOUNDINGBOX 83 37 -18 -8
COMMENT "Generated by fontforge, http://fontforge.sourceforge.net"
COMMENT "Copyright 2016 The Inter Project Authors"
STARTPROPERTIES 40
FOUNDRY "FontForge"
FAMILY_NAME "Inter"
WEIGHT_NAME "Book"
SLANT "R"
SETWIDTH_NAME "Normal"
ADD_STYLE_NAME ""
PIXEL_SIZE 25
POINT_SIZE 240
RESOLUTION_X 75
RESOLUTION_Y 75
SPACING "P"
AVERAGE_WIDTH 150
CHARSET_REGISTRY "ISO10646"
CHARSET_ENCODING "1"
FONTNAME_REGISTRY ""
CHARSET_COLLECTIONS "ISO8859-2 ISO8859-5 ISO8859-7 ISO8859-9 ISO8859-4 ISO10646-1"
FONT_NAME "Inter-Regular"
FACE_NAME "Inter Regular"
COPYRIGHT "Copyright 2016 The Inter Project Authors"
FONT_VERSION "4.000;git-a52131595"
FONT_ASCENT 20
FONT_DESCENT 5
UNDERLINE_POSITION -5
UNDERLINE_THICKNESS 2
X_HEIGHT 13
CAP_HEIGHT 17
DEFAULT_CHAR 1
RAW_ASCENT 799
RAW_DESCENT 200
NORM_SPACE 7
RELATIVE_WEIGHT 40
RELATIVE_SETWIDTH 50
SUPERSCRIPT_X 0
SUPERSCRIPT_Y 8
SUPERSCRIPT_SIZE 15
SUBSCRIPT_X 0
SUBSCRIPT_Y 1
SUBSCRIPT_SIZE 15
AVG_LOWERCASE_WIDTH 143
AVG_UPPERCASE_WIDTH 179
ENDPROPERTIES
CHARS 2945
STARTCHAR .null
ENCODING 0
SWIDTH 585 0
DWIDTH 15 0
BBX 1 1 0 0
BITMAP
00
ENDCHAR
STARTCHAR space
ENCODING 32
SWIDTH 281 0
DWIDTH 7 0
BBX 1 1 0 0
BITMAP
00
ENDCHAR
STARTCHAR exclam
ENCODING 33
SWIDTH 287 0
DWIDTH 7 0
BBX 3 18 2 0
BITMAP
E0
E0
E0
E0
E0
E0
E0
E0
E0
E0
E0
E0
00
00
00
E0
E0
E0
ENDCHAR
STARTCHAR quotedbl
ENCODING 34
SWIDTH 465 0
DWIDTH 12 0
BBX 6 7 3 11
BITMAP
CC
CC
CC
CC
CC
CC
CC
ENDCHAR
STARTCHAR numbersign
ENCODING 35
SWIDTH 633 0
DWIDTH 16 0
BBX 15 18 0 0
BITMAP
060C
0618
0618
0418
3FFE
7FFE
0C30
0C30
0C30
0C30
0830
7FFC
FFFC
1860
1860
1860
1060
3060
ENDCHAR
STARTCHAR dollar
ENCODING 36
SWIDTH 641 0
DWIDTH 16 0
BBX 14 24 1 -2
BITMAP
0300
0300
0300
0300
0FC0
3FF0
3B38
7318
6318
6300
7300
3F00
1FC0
03F0
0378
0318
031C
E31C
6318
7338
3FF0
0FE0
0300
0300
ENDCHAR
STARTCHAR percent
ENCODING 37
SWIDTH 981 0
DWIDTH 25 0
BBX 19 18 3 0
BITMAP
780380
FC0600
C60600
C60C00
C61800
C61800
FC3000
786000
006000
00C780
018FC0
038CE0
030C60
060860
0C0C60
0C0CE0
180FC0
300780
ENDCHAR
STARTCHAR ampersand
ENCODING 38
SWIDTH 644 0
DWIDTH 16 0
BBX 15 18 1 0
BITMAP
0F80
1FC0
38C0
30E0
30E0
30C0
3980
1F00
0E00
3F00
739C
619C
E0D8
E0F8
E070
70F8
3FDC
1F8E
ENDCHAR
STARTCHAR quotesingle
ENCODING 39
SWIDTH 299 0
DWIDTH 8 0
BBX 2 7 3 11
BITMAP
C0
C0
C0
C0
C0
C0
C0
ENDCHAR
STARTCHAR parenleft
ENCODING 40
SWIDTH 364 0
DWIDTH 9 0
BBX 5 23 3 -3
BITMAP
18
30
30
70
60
60
E0
C0
C0
C0
C0
C0
C0
C0
C0
C0
C0
E0
60
60
30
30
18
ENDCHAR
STARTCHAR parenright
ENCODING 41
SWIDTH 364 0
DWIDTH 9 0
BBX 5 23 1 -3
BITMAP
E0
60
70
30
30
38
38
18
18
18
18
18
18
18
18
18
18
38
30
30
70
60
E0
ENDCHAR
STARTCHAR asterisk
ENCODING 42
SWIDTH 500 0
DWIDTH 13 0
BBX 10 10 1 8
BITMAP
0C00
0C00
4CC0
F5C0
1F00
1F00
F7C0
6CC0
0C00
0C00
ENDCHAR
STARTCHAR plus
ENCODING 43
SWIDTH 661 0
DWIDTH 17 0
BBX 12 12 2 1
BITMAP
0600
0600
0600
0600
0600
FFF0
FFF0
0600
0600
0600
0600
0600
ENDCHAR
STARTCHAR comma
ENCODING 44
SWIDTH 288 0
DWIDTH 7 0
BBX 3 7 2 -5
BITMAP
60
E0
C0
C0
C0
C0
80
ENDCHAR
STARTCHAR hyphen
ENCODING 45
SWIDTH 459 0
DWIDTH 12 0
BBX 8 2 2 7
BITMAP
FF
FF
ENDCHAR
STARTCHAR period
ENCODING 46
SWIDTH 288 0
DWIDTH 7 0
BBX 3 3 2 0
BITMAP
E0
E0
E0
ENDCHAR
STARTCHAR slash
ENCODING 47
SWIDTH 360 0
DWIDTH 9 0
BBX 7 22 1 -3
BITMAP
06
06
06
0E
0C
0C
0C
18
18
18
18
30
30
30
30
60
60
60
E0
C0
C0
C0
ENDCHAR
STARTCHAR zero
ENCODING 48
SWIDTH 630 0
DWIDTH 16 0
BBX 13 18 1 0
BITMAP
0F80
1FE0
3870
7030
7038
6018
6018
6018
E018
E018
6018
6018
6018
6038
7030
3870
1FE0
0F80
ENDCHAR
STARTCHAR one
ENCODING 49
SWIDTH 406 0
DWIDTH 10 0
BBX 7 18 1 0
BITMAP
1E
3E
76
E6
86
06
06
06
06
06
06
06
06
06
06
06
06
06
ENDCHAR
STARTCHAR two
ENCODING 50
SWIDTH 609 0
DWIDTH 15 0
BBX 11 18 2 0
BITMAP
1F00
3FC0
70C0
E060
C060
0060
0060
00E0
01C0
0380
0700
0600
0C00
1800
3800
7000
FFE0
FFE0
ENDCHAR
STARTCHAR three
ENCODING 51
SWIDTH 617 0
DWIDTH 15 0
BBX 12 18 2 0
BITMAP
1F00
7FC0
F0E0
C060
0060
0060
00E0
0F80
0FC0
00E0
0070
0070
0030
C030
C070
F0E0
7FC0
1F80
ENDCHAR
STARTCHAR four
ENCODING 52
SWIDTH 645 0
DWIDTH 16 0
BBX 14 18 1 0
BITMAP
00E0
01E0
01E0
03E0
0760
0660
0E60
1C60
1860
3860
3060
6060
FFFC
FFFC
0060
0060
0060
0060
ENDCHAR
STARTCHAR five
ENCODING 53
SWIDTH 607 0
DWIDTH 15 0
BBX 12 18 2 0
BITMAP
7FE0
7FE0
6000
6000
6000
6000
EF00
FFC0
E1E0
0060
0070
0070
0070
C070
E060
70E0
7FC0
1F00
ENDCHAR
STARTCHAR six
ENCODING 54
SWIDTH 620 0
DWIDTH 16 0
BBX 13 18 1 0
BITMAP
07C0
1FE0
3870
3038
6000
6000
67C0
6FE0
F870
F038
E018
6018
6018
6038
7030
3870
1FE0
0FC0
ENDCHAR
STARTCHAR seven
ENCODING 55
SWIDTH 565 0
DWIDTH 14 0
BBX 12 18 1 0
BITMAP
FFF0
FFF0
0070
0060
00E0
00C0
01C0
0180
0380
0300
0700
0600
0E00
0C00
1C00
1800
3800
7000
ENDCHAR
STARTCHAR eight
ENCODING 56
SWIDTH 618 0
DWIDTH 15 0
BBX 13 18 1 0
BITMAP
0F80
3FE0
3870
7030
6030
7030
3870
1FC0
1FE0
3870
6030
6038
E018
6018
6038
7070
3FE0
0FC0
ENDCHAR
STARTCHAR nine
ENCODING 57
SWIDTH 620 0
DWIDTH 16 0
BBX 13 18 1 0
BITMAP
0F80
3FE0
7870
6030
6038
E038
6038
6038
7878
3FD8
0F18
0018
0038
6030
7070
38E0
3FC0
0F80
ENDCHAR
STARTCHAR colon
ENCODING 58
SWIDTH 288 0
DWIDTH 7 0
BBX 3 13 2 0
BITMAP
E0
E0
E0
00
00
00
00
00
00
00
E0
E0
E0
ENDCHAR
STARTCHAR semicolon
ENCODING 59
SWIDTH 301 0
DWIDTH 8 0
BBX 4 18 2 -5
BITMAP
60
F0
60
00
00
00
00
00
00
00
00
60
E0
C0
C0
C0
C0
80
ENDCHAR
STARTCHAR less
ENCODING 60
SWIDTH 661 0
DWIDTH 17 0
BBX 12 13 2 1
BITMAP
0010
0070
01F0
07C0
1F00
7C00
F000
F000
3C00
0F00
03C0
00F0
0030
ENDCHAR
STARTCHAR equal
ENCODING 61
SWIDTH 661 0
DWIDTH 17 0
BBX 11 7 3 3
BITMAP
FFE0
FFE0
0000
0000
0000
FFE0
FFE0
ENDCHAR
STARTCHAR greater
ENCODING 62
SWIDTH 661 0
DWIDTH 17 0
BBX 11 13 3 1
BITMAP
8000
C000
F000
3C00
0F00
03C0
00E0
01E0
07C0
1F00
7C00
F000
C000
ENDCHAR
STARTCHAR question
ENCODING 63
SWIDTH 511 0
DWIDTH 13 0
BBX 11 18 1 0
BITMAP
1F00
7F80
71C0
E0C0
C0E0
00C0
00C0
01C0
0780
0E00
0C00
0C00
0C00
0000
0000
0C00
1C00
0C00
ENDCHAR
STARTCHAR at
ENCODING 64
SWIDTH 965 0
DWIDTH 24 0
BBX 22 23 1 -5
BITMAP
00FE00
07FF80
0F01C0
1C0060
380030
300038
707B18
61FF18
61870C
63030C
E3030C
E3030C
E3030C
630318
630318
618718
71FFF0
30F9E0
380000
1C0000
0F0180
07FF80
00FE00
ENDCHAR
STARTCHAR A
ENCODING 65
SWIDTH 689 0
DWIDTH 17 0
BBX 16 18 1 0
BITMAP
0380
0380
06C0
06C0
06E0
0C60
0C60
1C70
1830
1830
3838
3FF8
3FFC
700C
600C
600E
E006
C007
ENDCHAR
STARTCHAR B
ENCODING 66
SWIDTH 654 0
DWIDTH 16 0
BBX 13 18 2 0
BITMAP
FF80
FFE0
E070
E030
E030
E030
E030
E0E0
FFC0
FFE0
E070
E038
E018
E018
E038
E070
FFF0
FFC0
ENDCHAR
STARTCHAR C
ENCODING 67
SWIDTH 730 0
DWIDTH 18 0
BBX 16 18 1 0
BITMAP
03E0
0FF8
1C1C
380E
7007
6003
6000
6000
E000
E000
6000
6000
6003
7007
380E
1C1C
0FF8
03E0
ENDCHAR
STARTCHAR D
ENCODING 68
SWIDTH 721 0
DWIDTH 18 0
BBX 15 18 2 0
BITMAP
FF80
FFE0
E070
E038
E01C
E00C
E00C
E00C
E00E
E00E
E00C
E00C
E00C
E01C
E038
E070
FFE0
FF80
ENDCHAR
STARTCHAR E
ENCODING 69
SWIDTH 601 0
DWIDTH 15 0
BBX 11 18 2 0
BITMAP
FFE0
FFE0
E000
E000
E000
E000
E000
E000
FFE0
FFE0
E000
E000
E000
E000
E000
E000
FFE0
FFE0
ENDCHAR
STARTCHAR F
ENCODING 70
SWIDTH 590 0
DWIDTH 15 0
BBX 11 18 2 0
BITMAP
FFE0
FFE0
E000
E000
E000
E000
E000
E000
FFC0
FFC0
E000
E000
E000
E000
E000
E000
E000
E000
ENDCHAR
STARTCHAR G
ENCODING 71
SWIDTH 746 0
DWIDTH 19 0
BBX 16 18 1 0
BITMAP
03E0
0FF8
1C1C
380E
7007
6007
6000
6000
E000
E07F
607F
6003
6003
7007
380E
1C1E
0FFC
03F0
ENDCHAR
STARTCHAR H
ENCODING 72
SWIDTH 743 0
DWIDTH 19 0
BBX 14 18 2 0
BITMAP
E00C
E00C
E00C
E00C
E00C
E00C
E00C
E00C
FFFC
FFFC
E00C
E00C
E00C
E00C
E00C
E00C
E00C
E00C
ENDCHAR
STARTCHAR I
ENCODING 73
SWIDTH 268 0
DWIDTH 7 0
BBX 3 18 2 0
BITMAP
E0
E0
E0
E0
E0
E0
E0
E0
E0
E0
E0
E0
E0
E0
E0
E0
E0
E0
ENDCHAR
STARTCHAR J
ENCODING 74
SWIDTH 570 0
DWIDTH 14 0
BBX 11 18 1 0
BITMAP
0060
0060
0060
0060
0060
0060
0060
0060
0060
0060
0060
0060
E060
E060
E0E0
71C0
3FC0
1F00
ENDCHAR
STARTCHAR K
ENCODING 75
SWIDTH 671 0
DWIDTH 17 0
BBX 14 18 2 0
BITMAP
E01C
E038
E070
E0E0
E1C0
E380
E700
EE00
FE00
FF00
F380
E180
E1C0
E0E0
E070
E030
E038
E01C
ENDCHAR
STARTCHAR L
ENCODING 76
SWIDTH 565 0
DWIDTH 14 0
BBX 11 18 2 0
BITMAP
E000
E000
E000
E000
E000
E000
E000
E000
E000
E000
E000
E000
E000
E000
E000
E000
FFE0
FFE0
ENDCHAR
STARTCHAR M
ENCODING 77
SWIDTH 903 0
DWIDTH 23 0
BBX 18 18 2 0
BITMAP
F001C0
F003C0
F003C0
D803C0
D807C0
DC06C0
CC06C0
CC0CC0
CE0CC0
C61CC0
C718C0
C318C0
C330C0
C3B0C0
C1B0C0
C1E0C0
C0E0C0
C0E0C0
ENDCHAR
STARTCHAR N
ENCODING 78
SWIDTH 753 0
DWIDTH 19 0
BBX 15 18 2 0
BITMAP
E00E
F00E
F80E
D80E
DC0E
CC0E
CE0E
E70E
E30E
E38E
E1CE
E0CE
E0EE
E07E
E03E
E03E
E01E
E00E
ENDCHAR
STARTCHAR O
ENCODING 79
SWIDTH 764 0
DWIDTH 19 0
BBX 17 18 1 0
BITMAP
03E000
0FF800
1C1C00
380E00
700700
600300
600300
600380
E00380
E00380
600380
600300
600300
700700
380E00
1C1C00
0FF800
03F000
ENDCHAR
STARTCHAR P
ENCODING 80
SWIDTH 638 0
DWIDTH 16 0
BBX 13 18 2 0
BITMAP
FF80
FFE0
E070
E030
E038
E038
E038
E030
E070
FFE0
FF80
E000
E000
E000
E000
E000
E000
E000
ENDCHAR
STARTCHAR Q
ENCODING 81
SWIDTH 764 0
DWIDTH 19 0
BBX 17 19 1 -1
BITMAP
03E000
0FF800
1E1C00
380E00
700700
600300
600300
600380
E00380
E00380
600380
600300
60C300
706700
383E00
1E3C00
0FFC00
03FC00
000700
ENDCHAR
STARTCHAR R
ENCODING 82
SWIDTH 643 0
DWIDTH 16 0
BBX 13 18 2 0
BITMAP
FF80
FFE0
E070
E030
E038
E038
E038
E030
E070
FFE0
FF80
E1C0
E0C0
E0E0
E060
E070
E030
E038
ENDCHAR
STARTCHAR S
ENCODING 83
SWIDTH 641 0
DWIDTH 16 0
BBX 14 18 1 0
BITMAP
0FC0
1FF0
3878
7018
6018
6000
7000
3C00
1FC0
03F0
0078
0018
001C
E01C
6018
7878
3FF0
0FC0
ENDCHAR
STARTCHAR T
ENCODING 84
SWIDTH 645 0
DWIDTH 16 0
BBX 14 18 1 0
BITMAP
FFFC
FFFC
0300
0300
0300
0300
0300
0300
0300
0300
0300
0300
0300
0300
0300
0300
0300
0300
ENDCHAR
STARTCHAR U
ENCODING 85
SWIDTH 744 0
DWIDTH 19 0
BBX 14 18 2 0
BITMAP
E00C
E00C
E00C
E00C
E00C
E00C
E00C
E00C
E00C
E00C
E00C
E00C
E00C
E00C
701C
7838
3FF0
0FC0
ENDCHAR
STARTCHAR V
ENCODING 86
SWIDTH 689 0
DWIDTH 17 0
BBX 16 18 1 0
BITMAP
C007
E006
600E
600C
700C
301C
3018
3818
1830
1830
0C70
0C60
0E60
06E0
06C0
06C0
03C0
0380
ENDCHAR
STARTCHAR W
ENCODING 87
SWIDTH 985 0
DWIDTH 25 0
BBX 23 18 1 0
BITMAP
C0380E
C0380E
E0780C
607C0C
606C1C
606C18
70CC18
30CE18
30C638
31C630
198630
198330
198370
1B8360
0F0360
0F01E0
0F01C0
0E01C0
ENDCHAR
STARTCHAR X
ENCODING 88
SWIDTH 682 0
DWIDTH 17 0
BBX 15 18 1 0
BITMAP
E00E
701C
3018
1838
1C70
0C60
06E0
07C0
0380
0380
06C0
0EE0
0C70
1C30
3838
701C
600C
E00E
ENDCHAR
STARTCHAR Y
ENCODING 89
SWIDTH 678 0
DWIDTH 17 0
BBX 15 18 1 0
BITMAP
E00E
600C
701C
3018
3838
1C70
0C60
0EE0
06C0
0380
0380
0380
0380
0380
0380
0380
0380
0380
ENDCHAR
STARTCHAR Z
ENCODING 90
SWIDTH 628 0
DWIDTH 16 0
BBX 13 18 1 0
BITMAP
FFF8
FFF8
0038
0070
0060
00E0
01C0
0180
0300
0700
0600
0C00
1C00
1800
3000
7000
7FF8
7FF8
ENDCHAR
STARTCHAR bracketleft
ENCODING 91
SWIDTH 364 0
DWIDTH 9 0
BBX 5 23 3 -3
BITMAP
F8
F8
C0
C0
C0
C0
C0
C0
C0
C0
C0
C0
C0
C0
C0
C0
C0
C0
C0
C0
C0
F8
F8
ENDCHAR
STARTCHAR backslash
ENCODING 92
SWIDTH 360 0
DWIDTH 9 0
BBX 7 22 1 -3
BITMAP
C0
C0
C0
E0
60
60
60
30
30
30
30
18
18
18
18
0C
0C
0C
0E
06
06
06
ENDCHAR
STARTCHAR bracketright
ENCODING 93
SWIDTH 364 0
DWIDTH 9 0
BBX 5 23 1 -3
BITMAP
F8
F8
18
18
18
18
18
18
18
18
18
18
18
18
18
18
18
18
18
18
18
F8
F8
ENDCHAR
STARTCHAR asciicircum
ENCODING 94
SWIDTH 471 0
DWIDTH 12 0
BBX 10 8 1 10
BITMAP
1C00
1E00
1E00
3300
3300
6380
6180
C1C0
ENDCHAR
STARTCHAR underscore
ENCODING 95
SWIDTH 456 0
DWIDTH 11 0
BBX 11 2 0 -2
BITMAP
FFE0
FFE0
ENDCHAR
STARTCHAR grave
ENCODING 96
SWIDTH 322 0
DWIDTH 8 0
BBX 4 4 2 16
BITMAP
E0
60
60
30
ENDCHAR
STARTCHAR a
ENCODING 97
SWIDTH 561 0
DWIDTH 14 0
BBX 11 14 1 0
BITMAP
1F80
3FC0
70E0
E060
0060
00E0
1FE0
7E60
E060
C060
C0E0
E1E0
7F60
3E60
ENDCHAR
STARTCHAR b
ENCODING 98
SWIDTH 612 0
DWIDTH 15 0
BBX 12 18 2 0
BITMAP
C000
C000
C000
C000
CF80
DFC0
F0E0
E060
C070
C030
C030
C030
C030
E070
E060
F0E0
DFC0
CF80
ENDCHAR
STARTCHAR c
ENCODING 99
SWIDTH 571 0
DWIDTH 14 0
BBX 12 14 1 0
BITMAP
0F80
3FE0
38E0
6070
6000
E000
E000
E000
E000
6000
6030
38E0
3FE0
0F80
ENDCHAR
STARTCHAR d
ENCODING 100
SWIDTH 612 0
DWIDTH 15 0
BBX 12 18 1 0
BITMAP
0030
0030
0030
0030
0F30
3FB0
70F0
6070
6030
E030
E030
E030
E030
6030
6070
70F0
3FB0
0F30
ENDCHAR
STARTCHAR e
ENCODING 101
SWIDTH 583 0
DWIDTH 15 0
BBX 12 14 1 0
BITMAP
0F80
3FC0
38E0
6070
6030
E030
FFF0
FFF0
E000
6000
6030
7070
3FE0
0F80
ENDCHAR
STARTCHAR f
ENCODING 102
SWIDTH 370 0
DWIDTH 9 0
BBX 9 19 0 0
BITMAP
0200
0F80
1F00
1800
1800
FF00
FF00
1800
1800
1800
1800
1800
1800
1800
1800
1800
1800
1800
1800
ENDCHAR
STARTCHAR g
ENCODING 103
SWIDTH 613 0
DWIDTH 15 0
BBX 12 19 1 -5
BITMAP
0F30
3FB0
78F0
6070
6030
E030
E030
E030
E030
6030
6070
70F0
3FB0
0F30
0030
2030
7070
3FE0
1F80
ENDCHAR
STARTCHAR h
ENCODING 104
SWIDTH 591 0
DWIDTH 15 0
BBX 11 18 2 0
BITMAP
C000
C000
C000
C000
CF00
DFC0
F1C0
E0E0
C060
C060
C060
C060
C060
C060
C060
C060
C060
C060
ENDCHAR
STARTCHAR i
ENCODING 105
SWIDTH 242 0
DWIDTH 6 0
BBX 3 19 2 0
BITMAP
C0
E0
C0
00
00
C0
C0
C0
C0
C0
C0
C0
C0
C0
C0
C0
C0
C0
C0
ENDCHAR
STARTCHAR j
ENCODING 106
SWIDTH 242 0
DWIDTH 6 0
BBX 5 24 0 -5
BITMAP
30
78
30
00
00
30
30
30
30
30
30
30
30
30
30
30
30
30
30
30
30
70
E0
C0
ENDCHAR
STARTCHAR k
ENCODING 107
SWIDTH 548 0
DWIDTH 14 0
BBX 11 18 2 0
BITMAP
C000
C000
C000
C000
C0E0
C1C0
C380
C700
CE00
DC00
FC00
FC00
EE00
C700
C380
C180
C1C0
C0E0
ENDCHAR
STARTCHAR l
ENCODING 108
SWIDTH 242 0
DWIDTH 6 0
BBX 2 18 2 0
BITMAP
C0
C0
C0
C0
C0
C0
C0
C0
C0
C0
C0
C0
C0
C0
C0
C0
C0
C0
ENDCHAR
STARTCHAR m
ENCODING 109
SWIDTH 875 0
DWIDTH 22 0
BBX 18 14 2 0
BITMAP
CF0F00
DFBF80
E1A1C0
E0C0C0
C0C0C0
C0C0C0
C0C0C0
C0C0C0
C0C0C0
C0C0C0
C0C0C0
C0C0C0
C0C0C0
C0C0C0
ENDCHAR
STARTCHAR n
ENCODING 110
SWIDTH 590 0
DWIDTH 15 0
BBX 11 14 2 0
BITMAP
CF00
DFC0
F1C0
E0E0
C060
C060
C060
C060
C060
C060
C060
C060
C060
C060
ENDCHAR
STARTCHAR o
ENCODING 111
SWIDTH 599 0
DWIDTH 15 0
BBX 13 14 1 0
BITMAP
0F80
3FE0
38E0
6030
6030
E038
E038
E038
E038
6030
6030
38E0
3FE0
0F80
ENDCHAR
STARTCHAR p
ENCODING 112
SWIDTH 612 0
DWIDTH 15 0
BBX 12 19 2 -5
BITMAP
CF80
DFC0
F0E0
E060
C070
C030
C030
C030
C030
E070
E060
F0E0
DFC0
CF80
C000
C000
C000
C000
C000
ENDCHAR
STARTCHAR q
ENCODING 113
SWIDTH 612 0
DWIDTH 15 0
BBX 12 19 1 -5
BITMAP
0F30
3FB0
70F0
6070
6030
E030
E030
E030
E030
6030
6070
70F0
3FB0
0F30
0030
0030
0030
0030
0030
ENDCHAR
STARTCHAR r
ENCODING 114
SWIDTH 376 0
DWIDTH 9 0
BBX 7 14 2 0
BITMAP
CE
DE
F0
E0
C0
C0
C0
C0
C0
C0
C0
C0
C0
C0
ENDCHAR
STARTCHAR s
ENCODING 115
SWIDTH 527 0
DWIDTH 13 0
BBX 11 14 1 0
BITMAP
1F00
3FC0
70C0
60E0
6000
7000
3F00
0FC0
00E0
0060
E060
70E0
7FC0
1F00
ENDCHAR
STARTCHAR t
ENCODING 116
SWIDTH 327 0
DWIDTH 8 0
BBX 8 18 0 0
BITMAP
38
38
38
38
FE
FE
38
38
38
38
38
38
38
38
38
38
1E
0F
ENDCHAR
STARTCHAR u
ENCODING 117
SWIDTH 591 0
DWIDTH 15 0
BBX 11 14 2 0
BITMAP
C060
C060
C060
C060
C060
C060
C060
C060
C060
C0E0
E0E0
E1E0
7F60
3E60
ENDCHAR
STARTCHAR v
ENCODING 118
SWIDTH 562 0
DWIDTH 14 0
BBX 12 14 1 0
BITMAP
C030
E070
6060
6060
70E0
30C0
30C0
39C0
1980
1980
0F00
0F00
0F00
0600
ENDCHAR
STARTCHAR w
ENCODING 119
SWIDTH 818 0
DWIDTH 20 0
BBX 19 14 1 0
BITMAP
C0E0E0
E0E0C0
61E0C0
61E1C0
61B180
71B180
333380
333300
331B00
1A1B00
1E1F00
1E0E00
0E0E00
0C0E00
ENDCHAR
STARTCHAR x
ENCODING 120
SWIDTH 545 0
DWIDTH 14 0
BBX 12 14 1 0
BITMAP
E070
70E0
30C0
3980
1B80
0F00
0E00
0E00
0F00
1B80
3980
70C0
60E0
E070
ENDCHAR
STARTCHAR y
ENCODING 121
SWIDTH 562 0
DWIDTH 14 0
BBX 12 19 1 -5
BITMAP
C030
E070
6060
6060
70E0
30C0
30C0
39C0
1980
1980
0F00
0F00
0F00
0600
0600
0E00
0C00
7800
7000
ENDCHAR
STARTCHAR z
ENCODING 122
SWIDTH 552 0
DWIDTH 14 0
BBX 10 14 2 0
BITMAP
FFC0
FFC0
0180
0380
0700
0600
0E00
1C00
3800
3000
7000
E000
FFC0
FFC0
ENDCHAR
STARTCHAR braceleft
ENCODING 123
SWIDTH 426 0
DWIDTH 11 0
BBX 7 23 2 -3
BITMAP
0E
1E
18
18
30
30
30
30
30
30
30
E0
E0
30
30
30
30
30
30
38
18
1E
0E
ENDCHAR
STARTCHAR bar
ENCODING 124
SWIDTH 332 0
DWIDTH 8 0
BBX 2 31 3 -6
BITMAP
C0
C0
C0
C0
C0
C0
C0
C0
C0
C0
C0
C0
C0
C0
C0
C0
C0
C0
C0
C0
C0
C0
C0
C0
C0
C0
C0
C0
C0
C0
C0
ENDCHAR
STARTCHAR braceright
ENCODING 125
SWIDTH 426 0
DWIDTH 11 0
BBX 8 23 1 -3
BITMAP
E0
F0
38
18
18
18
18
18
18
18
0C
0F
07
1C
18
18
18
18
18
18
38
F0
E0
ENDCHAR
STARTCHAR asciitilde
ENCODING 126
SWIDTH 661 0
DWIDTH 17 0
BBX 12 5 2 5
BITMAP
3830
7E30
E730
C3F0
C1E0
ENDCHAR
STARTCHAR uni00A0
ENCODING 160
SWIDTH 281 0
DWIDTH 7 0
BBX 1 1 0 0
BITMAP
00
ENDCHAR
STARTCHAR exclamdown
ENCODING 161
SWIDTH 287 0
DWIDTH 7 0
BBX 3 18 2 -4
BITMAP
E0
E0
E0
00
00
00
E0
E0
E0
E0
E0
E0
E0
E0
E0
E0
E0
E0
ENDCHAR
STARTCHAR cent
ENCODING 162
SWIDTH 571 0
DWIDTH 14 0
BBX 12 18 1 0
BITMAP
0200
0200
0700
1FC0
3AE0
7270
6200
E200
E200
E200
E200
6200
6230
7260
3FE0
0F80
0200
0200
ENDCHAR
STARTCHAR sterling
ENCODING 163
SWIDTH 610 0
DWIDTH 15 0
BBX 13 18 1 0
BITMAP
07C0
0FE0
1C70
3838
3018
3000
3000
3000
FFC0
FFC0
3000
3000
3000
3800
3018
3018
FFF8
FFF0
ENDCHAR
STARTCHAR currency
ENCODING 164
SWIDTH 724 0
DWIDTH 18 0
BBX 16 16 1 0
BITMAP
67E6
FFF7
3C3E
301C
700E
6006
6006
6006
6006
6006
6006
700E
381C
7C3E
EFF7
47E2
ENDCHAR
STARTCHAR yen
ENCODING 165
SWIDTH 549 0
DWIDTH 14 0
BBX 13 18 0 0
BITMAP
E018
7038
3030
3870
1860
18E0
0CC0
0DC0
0780
3FF0
3FF0
0300
3FF0
3FF0
0300
0300
0300
0300
ENDCHAR
STARTCHAR brokenbar
ENCODING 166
SWIDTH 270 0
DWIDTH 7 0
BBX 2 21 2 -3
BITMAP
C0
C0
C0
C0
C0
C0
C0
C0
00
00
00
00
00
C0
C0
C0
C0
C0
C0
C0
C0
ENDCHAR
STARTCHAR section
ENCODING 167
SWIDTH 553 0
DWIDTH 14 0
BBX 12 22 1 -4
BITMAP
0F00
3F80
31C0
70C0
30C0
3800
3C00
3F00
6380
C0E0
E060
7070
7870
3EE0
0FC0
0380
01C0
60C0
60C0
70C0
3FC0
1F00
ENDCHAR
STARTCHAR dieresis
ENCODING 168
SWIDTH 590 0
DWIDTH 15 0
BBX 8 3 3 16
BITMAP
63
E3
63
ENDCHAR
STARTCHAR copyright
ENCODING 169
SWIDTH 914 0
DWIDTH 23 0
BBX 19 19 2 0
BITMAP
03F000
0FFC00
1E0F00
380380
71F180
63F8C0
E71CC0
C60CE0
CC0260
CC0060
CC0060
C60CE0
E71CC0
63F8C0
71F180
380380
1E0F00
0FFE00
03F000
ENDCHAR
STARTCHAR ordfeminine
ENCODING 170
SWIDTH 449 0
DWIDTH 11 0
BBX 8 11 2 8
BITMAP
3C
FE
C6
46
06
7E
FE
C6
C6
FE
7F
ENDCHAR
STARTCHAR guillemotleft
ENCODING 171
SWIDTH 582 0
DWIDTH 15 0
BBX 13 12 1 2
BITMAP
0738
0C60
1CE0
39C0
7380
6300
E700
7380
39C0
1CE0
0C60
0738
ENDCHAR
STARTCHAR logicalnot
ENCODING 172
SWIDTH 661 0
DWIDTH 17 0
BBX 10 5 3 4
BITMAP
FFC0
FFC0
00C0
00C0
00C0
ENDCHAR
STARTCHAR registered
ENCODING 174
SWIDTH 670 0
DWIDTH 17 0
BBX 14 15 1 4
BITMAP
07C0
1FF0
3838
7018
678C
C4CC
C444
C4C4
C784
C4CC
644C
7038
3838
1FF0
07C0
ENDCHAR
STARTCHAR macron
ENCODING 175
SWIDTH 477 0
DWIDTH 12 0
BBX 6 2 3 17
BITMAP
FC
FC
ENDCHAR
STARTCHAR degree
ENCODING 176
SWIDTH 455 0
DWIDTH 11 0
BBX 8 8 2 10
BITMAP
3C
FE
C6
C3
C3
C7
FE
3C
ENDCHAR
STARTCHAR plusminus
ENCODING 177
SWIDTH 661 0
DWIDTH 17 0
BBX 11 13 3 1
BITMAP
0C00
0C00
0C00
FFE0
FFE0
0C00
0C00
0C00
0C00
0000
0000
FFE0
FFE0
ENDCHAR
STARTCHAR two.sups
ENCODING 178
SWIDTH 441 0
DWIDTH 11 0
BBX 9 10 1 11
BITMAP
3E00
7F00
E300
0300
0700
0E00
1C00
3800
7F80
FF80
ENDCHAR
STARTCHAR three.sups
ENCODING 179
SWIDTH 445 0
DWIDTH 11 0
BBX 9 10 1 11
BITMAP
3E00
7F00
E380
0300
1E00
1F00
0180
E180
7F80
3E00
ENDCHAR
STARTCHAR acute
ENCODING 180
SWIDTH 322 0
DWIDTH 8 0
BBX 4 4 2 16
BITMAP
30
70
60
C0
ENDCHAR
STARTCHAR uni00B5
ENCODING 181
SWIDTH 585 0
DWIDTH 15 0
BBX 13 19 2 -5
BITMAP
C060
C060
C060
C060
C060
C060
C060
C060
C060
C060
C0E0
E0E0
FFF8
DE38
C000
C000
C000
C000
C000
ENDCHAR
STARTCHAR paragraph
ENCODING 182
SWIDTH 602 0
DWIDTH 15 0
BBX 12 18 1 0
BITMAP
0FF0
3FF0
7E30
7E30
FE30
FE30
FE30
7E30
7E30
3E30
1E30
0030
0030
0030
0030
0030
0030
0030
ENDCHAR
STARTCHAR periodcentered
ENCODING 183
SWIDTH 288 0
DWIDTH 7 0
BBX 3 3 2 7
BITMAP
E0
E0
E0
ENDCHAR
STARTCHAR cedilla
ENCODING 184
SWIDTH 268 0
DWIDTH 7 0
BBX 4 6 2 -5
BITMAP
40
40
F0
30
30
F0
ENDCHAR
STARTCHAR one.sups
ENCODING 185
SWIDTH 304 0
DWIDTH 8 0
BBX 5 10 1 11
BITMAP
38
F8
D8
18
18
18
18
18
18
18
ENDCHAR
STARTCHAR ordmasculine
ENCODING 186
SWIDTH 450 0
DWIDTH 11 0
BBX 9 11 1 8
BITMAP
1E00
7F00
6300
6180
E180
E180
E180
6180
6300
7F00
1E00
ENDCHAR
STARTCHAR guillemotright
ENCODING 187
SWIDTH 582 0
DWIDTH 15 0
BBX 12 12 1 2
BITMAP
E700
7380
3980
18C0
0CE0
0E70
0E70
0C60
18C0
39C0
7380
E700
ENDCHAR
STARTCHAR onequarter
ENCODING 188
SWIDTH 802 0
DWIDTH 20 0
BBX 18 18 1 0
BITMAP
700700
F00600
B00C00
B01800
301800
303000
306000
306000
30C380
318780
038780
030D80
060D80
0E1980
0C1980
183FC0
303FC0
700180
ENDCHAR
STARTCHAR onehalf
ENCODING 189
SWIDTH 847 0
DWIDTH 21 0
BBX 19 18 1 0
BITMAP
700700
F00600
B00C00
B01800
301800
303000
306000
306000
30C3C0
3187E0
038C60
030060
0600C0
0E0180
0C0300
180700
300FE0
700FE0
ENDCHAR
STARTCHAR threequarters
ENCODING 190
SWIDTH 881 0
DWIDTH 22 0
BBX 20 18 1 0
BITMAP
3C01C0
7E0180
C60300
060600
1C0600
1E0C00
061800
C71800
7E30E0
3C61E0
00E1E0
00C360
018360
038660
030660
060FF0
0C0FF0
1C0060
ENDCHAR
STARTCHAR questiondown
ENCODING 191
SWIDTH 511 0
DWIDTH 13 0
BBX 11 19 1 -5
BITMAP
0600
0F00
0600
0000
0000
0000
0600
0600
0E00
1C00
7800
7000
E000
E000
C0E0
E0E0
71C0
3F80
1F00
ENDCHAR
STARTCHAR Agrave
ENCODING 192
SWIDTH 689 0
DWIDTH 17 0
BBX 16 25 1 0
BITMAP
0E00
0600
0300
0380
0000
0000
0000
0380
0380
06C0
06C0
06E0
0C60
0C60
1C70
1830
1830
3838
3FF8
3FFC
700C
600C
600E
E006
C007
ENDCHAR
STARTCHAR Aacute
ENCODING 193
SWIDTH 689 0
DWIDTH 17 0
BBX 16 25 1 0
BITMAP
00E0
00C0
0180
0180
0000
0000
0000
0380
0380
06C0
06C0
06E0
0C60
0C60
1C70
1830
1830
3838
3FF8
3FFC
700C
600C
600E
E006
C007
ENDCHAR
STARTCHAR Acircumflex
ENCODING 194
SWIDTH 689 0
DWIDTH 17 0
BBX 16 25 1 0
BITMAP
0180
0380
06C0
0C70
0000
0000
0000
0380
0380
06C0
06C0
06E0
0C60
0C60
1C70
1830
1830
3838
3FF8
3FFC
700C
600C
600E
E006
C007
ENDCHAR
STARTCHAR Atilde
ENCODING 195
SWIDTH 689 0
DWIDTH 17 0
BBX 16 24 1 0
BITMAP
0620
0FE0
0DC0
0000
0000
0000
0380
0380
06C0
06C0
06E0
0C60
0C60
1C70
1830
1830
3838
3FF8
3FFC
700C
600C
600E
E006
C007
ENDCHAR
STARTCHAR Adieresis
ENCODING 196
SWIDTH 689 0
DWIDTH 17 0
BBX 16 24 1 0
BITMAP
0C60
0E70
0C60
0000
0000
0000
0380
0380
06C0
06C0
06E0
0C60
0C60
1C70
1830
1830
3838
3FF8
3FFC
700C
600C
600E
E006
C007
ENDCHAR
STARTCHAR Aring
ENCODING 197
SWIDTH 689 0
DWIDTH 17 0
BBX 16 25 1 0
BITMAP
0380
07C0
0C60
0C60
07C0
0380
0000
0380
0380
06C0
06C0
06E0
0C60
0C60
1C70
1830
1830
3838
3FF8
3FFC
700C
600C
600E
E006
C007
ENDCHAR
STARTCHAR AE
ENCODING 198
SWIDTH 993 0
DWIDTH 25 0
BBX 22 18 1 0
BITMAP
00FFFC
00DFFC
019800
019800
039800
031800
071800
061800
0E1FFC
0C1FFC
1C1800
1FF800
3FF800
301800
701800
601800
E01FFC
C01FFC
ENDCHAR
STARTCHAR Ccedilla
ENCODING 199
SWIDTH 730 0
DWIDTH 18 0
BBX 16 23 1 -5
BITMAP
03E0
0FF8
1C1C
380E
7007
6003
6000
6000
E000
E000
6000
6000
6003
7007
380E
1C1C
0FF8
03E0
0080
00E0
0020
0020
01E0
ENDCHAR
STARTCHAR Egrave
ENCODING 200
SWIDTH 601 0
DWIDTH 15 0
BBX 11 25 2 0
BITMAP
1800
1C00
0C00
0600
0000
0000
0000
FFE0
FFE0
E000
E000
E000
E000
E000
E000
FFE0
FFE0
E000
E000
E000
E000
E000
E000
FFE0
FFE0
ENDCHAR
STARTCHAR Eacute
ENCODING 201
SWIDTH 601 0
DWIDTH 15 0
BBX 11 25 2 0
BITMAP
0180
0300
0300
0600
0000
0000
0000
FFE0
FFE0
E000
E000
E000
E000
E000
E000
FFE0
FFE0
E000
E000
E000
E000
E000
E000
FFE0
FFE0
ENDCHAR
STARTCHAR Ecircumflex
ENCODING 202
SWIDTH 601 0
DWIDTH 15 0
BBX 11 25 2 0
BITMAP
0600
0F00
1B80
31C0
0000
0000
0000
FFE0
FFE0
E000
E000
E000
E000
E000
E000
FFE0
FFE0
E000
E000
E000
E000
E000
E000
FFE0
FFE0
ENDCHAR
STARTCHAR Edieresis
ENCODING 203
SWIDTH 601 0
DWIDTH 15 0
BBX 11 24 2 0
BITMAP
3180
39C0
3180
0000
0000
0000
FFE0
FFE0
E000
E000
E000
E000
E000
E000
FFE0
FFE0
E000
E000
E000
E000
E000
E000
FFE0
FFE0
ENDCHAR
STARTCHAR Igrave
ENCODING 204
SWIDTH 268 0
DWIDTH 7 0
BBX 5 25 0 0
BITMAP
E0
60
30
30
00
00
00
38
38
38
38
38
38
38
38
38
38
38
38
38
38
38
38
38
38
ENDCHAR
STARTCHAR Iacute
ENCODING 205
SWIDTH 268 0
DWIDTH 7 0
BBX 5 25 2 0
BITMAP
38
30
60
E0
00
00
00
E0
E0
E0
E0
E0
E0
E0
E0
E0
E0
E0
E0
E0
E0
E0
E0
E0
E0
ENDCHAR
STARTCHAR Icircumflex
ENCODING 206
SWIDTH 268 0
DWIDTH 7 0
BBX 8 25 -1 0
BITMAP
18
3C
36
E3
00
00
00
1C
1C
1C
1C
1C
1C
1C
1C
1C
1C
1C
1C
1C
1C
1C
1C
1C
1C
ENDCHAR
STARTCHAR Idieresis
ENCODING 207
SWIDTH 268 0
DWIDTH 7 0
BBX 8 24 -1 0
BITMAP
63
E7
63
00
00
00
1C
1C
1C
1C
1C
1C
1C
1C
1C
1C
1C
1C
1C
1C
1C
1C
1C
1C
ENDCHAR
STARTCHAR Eth
ENCODING 208
SWIDTH 734 0
DWIDTH 18 0
BBX 17 18 0 0
BITMAP
1FF000
1FFC00
181E00
180600
180700
180300
180380
180180
FFC180
FFC180
180180
180380
180300
180700
180600
181E00
1FFC00
1FE000
ENDCHAR
STARTCHAR Ntilde
ENCODING 209
SWIDTH 753 0
DWIDTH 19 0
BBX 15 24 2 0
BITMAP
0660
0FE0
0DC0
0000
0000
0000
E00E
F00E
F80E
D80E
DC0E
CC0E
CE0E
E70E
E30E
E38E
E1CE
E0CE
E0EE
E07E
E03E
E03E
E01E
E00E
ENDCHAR
STARTCHAR Ograve
ENCODING 210
SWIDTH 764 0
DWIDTH 19 0
BBX 17 25 1 0
BITMAP
070000
030000
018000
01C000
000000
000000
000000
03E000
0FF800
1C1C00
380E00
700700
600300
600300
600380
E00380
E00380
600380
600300
600300
700700
380E00
1C1C00
0FF800
03F000
ENDCHAR
STARTCHAR Oacute
ENCODING 211
SWIDTH 764 0
DWIDTH 19 0
BBX 17 25 1 0
BITMAP
007000
006000
00C000
00C000
000000
000000
000000
03E000
0FF800
1C1C00
380E00
700700
600300
600300
600380
E00380
E00380
600380
600300
600300
700700
380E00
1C1C00
0FF800
03F000
ENDCHAR
STARTCHAR Ocircumflex
ENCODING 212
SWIDTH 764 0
DWIDTH 19 0
BBX 17 25 1 0
BITMAP
01C000
01C000
036000
063000
000000
000000
000000
03E000
0FF800
1C1C00
380E00
700700
600300
600300
600380
E00380
E00380
600380
600300
600300
700700
380E00
1C1C00
0FF800
03F000
ENDCHAR
STARTCHAR Otilde
ENCODING 213
SWIDTH 764 0
DWIDTH 19 0
BBX 17 24 1 0
BITMAP
021000
07F000
06E000
000000
000000
000000
03E000
0FF800
1C1C00
380E00
700700
600300
600300
600380
E00380
E00380
600380
600300
600300
700700
380E00
1C1C00
0FF800
03F000
ENDCHAR
STARTCHAR Odieresis
ENCODING 214
SWIDTH 764 0
DWIDTH 19 0
BBX 17 24 1 0
BITMAP
063000
063800
063000
000000
000000
000000
03E000
0FF800
1C1C00
380E00
700700
600300
600300
600380
E00380
E00380
600380
600300
600300
700700
380E00
1C1C00
0FF800
03F000
ENDCHAR
STARTCHAR multiply
ENCODING 215
SWIDTH 661 0
DWIDTH 17 0
BBX 11 12 3 1
BITMAP
8040
C0E0
E1C0
7380
3F00
1E00
1E00
3F00
7380
E1C0
C0E0
8040
ENDCHAR
STARTCHAR Oslash
ENCODING 216
SWIDTH 764 0
DWIDTH 19 0
BBX 17 20 1 -1
BITMAP
000200
03E700
0FFE00
1C1C00
381E00
703F00
603300
606300
60E380
E0C380
E18380
638380
630300
660300
7E0700
3C0E00
1C1C00
3FF800
73F000
100000
ENDCHAR
STARTCHAR Ugrave
ENCODING 217
SWIDTH 744 0
DWIDTH 19 0
BBX 14 25 2 0
BITMAP
0E00
0600
0300
0300
0000
0000
0000
E00C
E00C
E00C
E00C
E00C
E00C
E00C
E00C
E00C
E00C
E00C
E00C
E00C
E00C
701C
7838
3FF0
0FC0
ENDCHAR
STARTCHAR Uacute
ENCODING 218
SWIDTH 744 0
DWIDTH 19 0
BBX 14 25 2 0
BITMAP
00E0
00C0
0180
0300
0000
0000
0000
E00C
E00C
E00C
E00C
E00C
E00C
E00C
E00C
E00C
E00C
E00C
E00C
E00C
E00C
701C
7838
3FF0
0FC0
ENDCHAR
STARTCHAR Ucircumflex
ENCODING 219
SWIDTH 744 0
DWIDTH 19 0
BBX 14 25 2 0
BITMAP
0300
0780
06C0
1C60
0000
0000
0000
E00C
E00C
E00C
E00C
E00C
E00C
E00C
E00C
E00C
E00C
E00C
E00C
E00C
E00C
701C
7838
3FF0
0FC0
ENDCHAR
STARTCHAR Udieresis
ENCODING 220
SWIDTH 744 0
DWIDTH 19 0
BBX 14 24 2 0
BITMAP
0C60
1CE0
0C60
0000
0000
0000
E00C
E00C
E00C
E00C
E00C
E00C
E00C
E00C
E00C
E00C
E00C
E00C
E00C
E00C
701C
7838
3FF0
0FC0
ENDCHAR
STARTCHAR Yacute
ENCODING 221
SWIDTH 678 0
DWIDTH 17 0
BBX 15 25 1 0
BITMAP
00E0
00C0
0180
0180
0000
0000
0000
E00E
600C
701C
3018
3838
1C70
0C60
0EE0
06C0
0380
0380
0380
0380
0380
0380
0380
0380
0380
ENDCHAR
STARTCHAR Thorn
ENCODING 222
SWIDTH 635 0
DWIDTH 16 0
BBX 12 18 2 0
BITMAP
C000
C000
C000
FF80
FFC0
C0E0
C070
C030
C030
C030
C070
C0E0
FFC0
FF80
C000
C000
C000
C000
ENDCHAR
STARTCHAR germandbls
ENCODING 223
SWIDTH 616 0
DWIDTH 15 0
BBX 12 18 2 0
BITMAP
1F00
7FC0
71C0
E0E0
C060
C060
C0E0
C1C0
C700
C7C0
C0E0
C070
C030
C030
C070
C060
C7E0
C780
ENDCHAR
STARTCHAR agrave
ENCODING 224
SWIDTH 561 0
DWIDTH 14 0
BBX 11 20 1 0
BITMAP
1800
1C00
0C00
0600
0000
0000
1F80
3FC0
70E0
E060
0060
00E0
1FE0
7E60
E060
C060
C0E0
E1E0
7F60
3E60
ENDCHAR
STARTCHAR aacute
ENCODING 225
SWIDTH 561 0
DWIDTH 14 0
BBX 11 20 1 0
BITMAP
0180
0300
0300
0600
0000
0000
1F80
3FC0
70E0
E060
0060
00E0
1FE0
7E60
E060
C060
C0E0
E1E0
7F60
3E60
ENDCHAR
STARTCHAR acircumflex
ENCODING 226
SWIDTH 561 0
DWIDTH 14 0
BBX 11 20 1 0
BITMAP
0600
0F00
1B80
31C0
0000
0000
1F80
3FC0
70E0
E060
0060
00E0
1FE0
7E60
E060
C060
C0E0
E1E0
7F60
3E60
ENDCHAR
STARTCHAR atilde
ENCODING 227
SWIDTH 561 0
DWIDTH 14 0
BBX 11 19 1 0
BITMAP
0880
1F80
3380
0000
0000
1F80
3FC0
70E0
E060
0060
00E0
1FE0
7E60
E060
C060
C0E0
E1E0
7F60
3E60
ENDCHAR
STARTCHAR adieresis
ENCODING 228
SWIDTH 561 0
DWIDTH 14 0
BBX 11 19 1 0
BITMAP
3180
39C0
3180
0000
0000
1F80
3FC0
70E0
E060
0060
00E0
1FE0
7E60
E060
C060
C0E0
E1E0
7F60
3E60
ENDCHAR
STARTCHAR aring
ENCODING 229
SWIDTH 561 0
DWIDTH 14 0
BBX 11 21 1 0
BITMAP
0F00
1F80
1980
1980
1F80
0F00
0000
1F80
3FC0
70E0
E060
0060
00E0
1FE0
7E60
E060
C060
C0E0
E1E0
7F60
3E60
ENDCHAR
STARTCHAR ae
ENCODING 230
SWIDTH 917 0
DWIDTH 23 0
BBX 21 14 1 0
BITMAP
1F0F80
3FDFE0
70F870
E07030
006030
006038
1FFFF8
7FFFF8
E06000
C06000
C0F038
E1F870
7F9FE0
3E0FC0
ENDCHAR
STARTCHAR ccedilla
ENCODING 231
SWIDTH 571 0
DWIDTH 14 0
BBX 12 19 1 -5
BITMAP
0F80
3FE0
38E0
6070
6000
E000
E000
E000
E000
6000
6030
38E0
3FE0
0F80
0200
0380
0080
0080
0780
ENDCHAR
STARTCHAR egrave
ENCODING 232
SWIDTH 583 0
DWIDTH 15 0
BBX 12 20 1 0
BITMAP
1C00
0C00
0600
0600
0000
0000
0F80
3FC0
38E0
6070
6030
E030
FFF0
FFF0
E000
6000
6030
7070
3FE0
0F80
ENDCHAR
STARTCHAR eacute
ENCODING 233
SWIDTH 583 0
DWIDTH 15 0
BBX 12 20 1 0
BITMAP
01C0
0180
0300
0700
0000
0000
0F80
3FC0
38E0
6070
6030
E030
FFF0
FFF0
E000
6000
6030
7070
3FE0
0F80
ENDCHAR
STARTCHAR ecircumflex
ENCODING 234
SWIDTH 583 0
DWIDTH 15 0
BBX 12 20 1 0
BITMAP
0600
0F00
0D80
38C0
0000
0000
0F80
3FC0
38E0
6070
6030
E030
FFF0
FFF0
E000
6000
6030
7070
3FE0
0F80
ENDCHAR
STARTCHAR edieresis
ENCODING 235
SWIDTH 583 0
DWIDTH 15 0
BBX 12 19 1 0
BITMAP
18C0
39C0
18C0
0000
0000
0F80
3FC0
38E0
6070
6030
E030
FFF0
FFF0
E000
6000
6030
7070
3FE0
0F80
ENDCHAR
STARTCHAR igrave
ENCODING 236
SWIDTH 242 0
DWIDTH 6 0
BBX 4 20 0 0
BITMAP
C0
60
60
30
00
00
30
30
30
30
30
30
30
30
30
30
30
30
30
30
ENDCHAR
STARTCHAR iacute
ENCODING 237
SWIDTH 242 0
DWIDTH 6 0
BBX 4 20 2 0
BITMAP
30
70
60
C0
00
00
C0
C0
C0
C0
C0
C0
C0
C0
C0
C0
C0
C0
C0
C0
ENDCHAR
STARTCHAR icircumflex
ENCODING 238
SWIDTH 242 0
DWIDTH 6 0
BBX 8 20 -1 0
BITMAP
18
3C
66
E7
00
00
18
18
18
18
18
18
18
18
18
18
18
18
18
18
ENDCHAR
STARTCHAR idieresis
ENCODING 239
SWIDTH 242 0
DWIDTH 6 0
BBX 8 19 -1 0
BITMAP
E3
E7
E3
00
00
18
18
18
18
18
18
18
18
18
18
18
18
18
18
ENDCHAR
STARTCHAR eth
ENCODING 240
SWIDTH 582 0
DWIDTH 15 0
BBX 12 20 1 0
BITMAP
1000
1C40
0FE0
0780
1F80
18C0
00C0
0F60
3FE0
70F0
6070
E030
E030
C030
E030
E030
6070
70E0
3FC0
0F80
ENDCHAR
STARTCHAR ntilde
ENCODING 241
SWIDTH 590 0
DWIDTH 15 0
BBX 11 19 2 0
BITMAP
1980
3F80
3700
0000
0000
CF00
DFC0
F1C0
E0E0
C060
C060
C060
C060
C060
C060
C060
C060
C060
C060
ENDCHAR
STARTCHAR ograve
ENCODING 242
SWIDTH 599 0
DWIDTH 15 0
BBX 13 20 1 0
BITMAP
1C00
0C00
0600
0600
0000
0000
0F80
3FE0
38E0
6030
6030
E038
E038
E038
E038
6030
6030
38E0
3FE0
0F80
ENDCHAR
STARTCHAR oacute
ENCODING 243
SWIDTH 599 0
DWIDTH 15 0
BBX 13 20 1 0
BITMAP
01C0
0180
0300
0300
0000
0000
0F80
3FE0
38E0
6030
6030
E038
E038
E038
E038
6030
6030
38E0
3FE0
0F80
ENDCHAR
STARTCHAR ocircumflex
ENCODING 244
SWIDTH 599 0
DWIDTH 15 0
BBX 13 20 1 0
BITMAP
0700
0700
0D80
18C0
0000
0000
0F80
3FE0
38E0
6030
6030
E038
E038
E038
E038
6030
6030
38E0
3FE0
0F80
ENDCHAR
STARTCHAR otilde
ENCODING 245
SWIDTH 599 0
DWIDTH 15 0
BBX 13 19 1 0
BITMAP
08C0
1FC0
1B80
0000
0000
0F80
3FE0
38E0
6030
6030
E038
E038
E038
E038
6030
6030
38E0
3FE0
0F80
ENDCHAR
STARTCHAR odieresis
ENCODING 246
SWIDTH 599 0
DWIDTH 15 0
BBX 13 19 1 0
BITMAP
18C0
38E0
18C0
0000
0000
0F80
3FE0
38E0
6030
6030
E038
E038
E038
E038
6030
6030
38E0
3FE0
0F80
ENDCHAR
STARTCHAR divide
ENCODING 247
SWIDTH 661 0
DWIDTH 17 0
BBX 11 12 3 2
BITMAP
0C00
0E00
0C00
0000
0000
FFE0
FFE0
0000
0000
0C00
0E00
0C00
ENDCHAR
STARTCHAR oslash
ENCODING 248
SWIDTH 599 0
DWIDTH 15 0
BBX 13 15 1 -1
BITMAP
0F98
3FF0
38F0
60F0
60F0
E1B8
E338
E638
EC38
7C30
7830
38E0
7FE0
CF80
4000
ENDCHAR
STARTCHAR ugrave
ENCODING 249
SWIDTH 591 0
DWIDTH 15 0
BBX 11 20 2 0
BITMAP
3800
1800
0C00
0C00
0000
0000
C060
C060
C060
C060
C060
C060
C060
C060
C060
C0E0
E0E0
E1E0
7F60
3E60
ENDCHAR
STARTCHAR uacute
ENCODING 250
SWIDTH 591 0
DWIDTH 15 0
BBX 11 20 2 0
BITMAP
0380
0300
0600
0E00
0000
0000
C060
C060
C060
C060
C060
C060
C060
C060
C060
C0E0
E0E0
E1E0
7F60
3E60
ENDCHAR
STARTCHAR ucircumflex
ENCODING 251
SWIDTH 591 0
DWIDTH 15 0
BBX 11 20 2 0
BITMAP
0C00
1E00
1B00
7180
0000
0000
C060
C060
C060
C060
C060
C060
C060
C060
C060
C0E0
E0E0
E1E0
7F60
3E60
ENDCHAR
STARTCHAR udieresis
ENCODING 252
SWIDTH 591 0
DWIDTH 15 0
BBX 11 19 2 0
BITMAP
3180
7180
3180
0000
0000
C060
C060
C060
C060
C060
C060
C060
C060
C060
C0E0
E0E0
E1E0
7F60
3E60
ENDCHAR
STARTCHAR yacute
ENCODING 253
SWIDTH 562 0
DWIDTH 14 0
BBX 12 25 1 -5
BITMAP
0180
0380
0300
0600
0000
0000
C030
E070
6060
6060
70E0
30C0
30C0
39C0
1980
1980
0F00
0F00
0F00
0600
0600
0E00
0C00
7800
7000
ENDCHAR
STARTCHAR thorn
ENCODING 254
SWIDTH 612 0
DWIDTH 15 0
BBX 12 23 2 -5
BITMAP
C000
C000
C000
C000
CF80
DFC0
F0E0
E060
C070
C030
C030
C030
C030
E070
E060
F0E0
DFC0
CF80
C000
C000
C000
C000
C000
ENDCHAR
STARTCHAR ydieresis
ENCODING 255
SWIDTH 562 0
DWIDTH 14 0
BBX 12 24 1 -5
BITMAP
30C0
39C0
38C0
0000
0000
C030
E070
6060
6060
70E0
30C0
30C0
39C0
1980
1980
0F00
0F00
0F00
0600
0600
0E00
0C00
7800
7000
ENDCHAR
STARTCHAR Amacron
ENCODING 256
SWIDTH 689 0
DWIDTH 17 0
BBX 16 24 1 0
BITMAP
0FE0
0FE0
0000
0000
0000
0000
0380
0380
06C0
06C0
06E0
0C60
0C60
1C70
1830
1830
3838
3FF8
3FFC
700C
600C
600E
E006
C007
ENDCHAR
STARTCHAR amacron
ENCODING 257
SWIDTH 561 0
DWIDTH 14 0
BBX 11 19 1 0
BITMAP
3F80
3F80
0000
0000
0000
1F80
3FC0
70E0
E060
0060
00E0
1FE0
7E60
E060
C060
C0E0
E1E0
7F60
3E60
ENDCHAR
STARTCHAR Abreve
ENCODING 258
SWIDTH 689 0
DWIDTH 17 0
BBX 16 25 1 0
BITMAP
0C20
0C60
07E0
0380
0000
0000
0000
0380
0380
06C0
06C0
06E0
0C60
0C60
1C70
1830
1830
3838
3FF8
3FFC
700C
600C
600E
E006
C007
ENDCHAR
STARTCHAR abreve
ENCODING 259
SWIDTH 561 0
DWIDTH 14 0
BBX 11 20 1 0
BITMAP
3080
3180
1F80
0F00
0000
0000
1F80
3FC0
70E0
E060
0060
00E0
1FE0
7E60
E060
C060
C0E0
E1E0
7F60
3E60
ENDCHAR
STARTCHAR Aogonek
ENCODING 260
SWIDTH 689 0
DWIDTH 17 0
BBX 16 23 1 -5
BITMAP
0380
0380
06C0
06C0
06E0
0C60
0C60
1C70
1830
1830
3838
3FF8
3FFC
700C
600C
600E
E006
C007
000C
000C
001C
001F
000F
ENDCHAR
STARTCHAR aogonek
ENCODING 261
SWIDTH 561 0
DWIDTH 14 0
BBX 12 19 1 -5
BITMAP
1F80
3FC0
70E0
E060
0060
00E0
1FE0
7E60
E060
C060
C0E0
E1E0
7F60
3E60
00C0
0180
0180
01F0
00F0
ENDCHAR
STARTCHAR Cacute
ENCODING 262
SWIDTH 730 0
DWIDTH 18 0
BBX 16 25 1 0
BITMAP
0070
0060
00C0
00C0
0000
0000
0000
03E0
0FF8
1C1C
380E
7007
6003
6000
6000
E000
E000
6000
6000
6003
7007
380E
1C1C
0FF8
03E0
ENDCHAR
STARTCHAR cacute
ENCODING 263
SWIDTH 571 0
DWIDTH 14 0
BBX 12 20 1 0
BITMAP
01C0
0180
0300
0300
0000
0000
0F80
3FE0
38E0
6070
6000
E000
E000
E000
E000
6000
6030
38E0
3FE0
0F80
ENDCHAR
STARTCHAR Ccircumflex
ENCODING 264
SWIDTH 730 0
DWIDTH 18 0
BBX 16 25 1 0
BITMAP
01C0
01C0
0360
0630
0000
0000
0000
03E0
0FF8
1C1C
380E
7007
6003
6000
6000
E000
E000
6000
6000
6003
7007
380E
1C1C
0FF8
03E0
ENDCHAR
STARTCHAR ccircumflex
ENCODING 265
SWIDTH 571 0
DWIDTH 14 0
BBX 12 20 1 0
BITMAP
0700
0700
0D80
18C0
0000
0000
0F80
3FE0
38E0
6070
6000
E000
E000
E000
E000
6000
6030
38E0
3FE0
0F80
ENDCHAR
STARTCHAR Cdotaccent
ENCODING 266
SWIDTH 730 0
DWIDTH 18 0
BBX 16 24 1 0
BITMAP
01C0
01C0
01C0
0000
0000
0000
03E0
0FF8
1C1C
380E
7007
6003
6000
6000
E000
E000
6000
6000
6003
7007
380E
1C1C
0FF8
03E0
ENDCHAR
STARTCHAR cdotaccent
ENCODING 267
SWIDTH 571 0
DWIDTH 14 0
BBX 12 19 1 0
BITMAP
0700
0700
0700
0000
0000
0F80
3FE0
38E0
6070
6000
E000
E000
E000
E000
6000
6030
38E0
3FE0
0F80
ENDCHAR
STARTCHAR Ccaron
ENCODING 268
SWIDTH 730 0
DWIDTH 18 0
BBX 16 25 1 0
BITMAP
0630
0770
0360
01C0
0000
0000
0000
03E0
0FF8
1C1C
380E
7007
6003
6000
6000
E000
E000
6000
6000
6003
7007
380E
1C1C
0FF8
03E0
ENDCHAR
STARTCHAR ccaron
ENCODING 269
SWIDTH 571 0
DWIDTH 14 0
BBX 12 20 1 0
BITMAP
18C0
1DC0
0D80
0700
0000
0000
0F80
3FE0
38E0
6070
6000
E000
E000
E000
E000
6000
6030
38E0
3FE0
0F80
ENDCHAR
STARTCHAR Dcaron
ENCODING 270
SWIDTH 721 0
DWIDTH 18 0
BBX 15 25 2 0
BITMAP
3180
3B80
1B00
0E00
0000
0000
0000
FF80
FFE0
E070
E038
E01C
E00C
E00C
E00C
E00E
E00E
E00C
E00C
E00C
E01C
E038
E070
FFE0
FF80
ENDCHAR
STARTCHAR dcaron
ENCODING 271
SWIDTH 709 0
DWIDTH 18 0
BBX 16 20 1 0
BITMAP
0003
0003
0033
0033
0033
0030
0F30
3FB0
70F0
6070
6030
E030
E030
E030
E030
6030
6070
70F0
3FB0
0F30
ENDCHAR
STARTCHAR Dcroat
ENCODING 272
SWIDTH 721 0
DWIDTH 18 0
BBX 16 18 1 0
BITMAP
7FC0
7FF0
7038
701C
700E
7006
7006
7006
FFE7
FFE7
7006
7006
7006
700E
701C
7038
7FF0
7FC0
ENDCHAR
STARTCHAR dcroat
ENCODING 273
SWIDTH 612 0
DWIDTH 15 0
BBX 14 18 1 0
BITMAP
0030
03FC
03FC
0030
0F30
3FB0
70F0
6070
6030
E030
E030
E030
E030
6030
6070
70F0
3FB0
0F30
ENDCHAR
STARTCHAR Emacron
ENCODING 274
SWIDTH 601 0
DWIDTH 15 0
BBX 11 24 2 0
BITMAP
3F80
3F80
0000
0000
0000
0000
FFE0
FFE0
E000
E000
E000
E000
E000
E000
FFE0
FFE0
E000
E000
E000
E000
E000
E000
FFE0
FFE0
ENDCHAR
STARTCHAR emacron
ENCODING 275
SWIDTH 583 0
DWIDTH 15 0
BBX 12 19 1 0
BITMAP
1FC0
1FC0
0000
0000
0000
0F80
3FC0
38E0
6070
6030
E030
FFF0
FFF0
E000
6000
6030
7070
3FE0
0F80
ENDCHAR
STARTCHAR Ebreve
ENCODING 276
SWIDTH 601 0
DWIDTH 15 0
BBX 11 25 2 0
BITMAP
3080
3180
1F80
0F00
0000
0000
0000
FFE0
FFE0
E000
E000
E000
E000
E000
E000
FFE0
FFE0
E000
E000
E000
E000
E000
E000
FFE0
FFE0
ENDCHAR
STARTCHAR ebreve
ENCODING 277
SWIDTH 583 0
DWIDTH 15 0
BBX 12 20 1 0
BITMAP
10C0
18C0
1F80
0F00
0000
0000
0F80
3FC0
38E0
6070
6030
E030
FFF0
FFF0
E000
6000
6030
7070
3FE0
0F80
ENDCHAR
STARTCHAR Edotaccent
ENCODING 278
SWIDTH 601 0
DWIDTH 15 0
BBX 11 24 2 0
BITMAP
0600
0E00
0600
0000
0000
0000
FFE0
FFE0
E000
E000
E000
E000
E000
E000
FFE0
FFE0
E000
E000
E000
E000
E000
E000
FFE0
FFE0
ENDCHAR
STARTCHAR edotaccent
ENCODING 279
SWIDTH 583 0
DWIDTH 15 0
BBX 12 19 1 0
BITMAP
0600
0700
0600
0000
0000
0F80
3FC0
38E0
6070
6030
E030
FFF0
FFF0
E000
6000
6030
7070
3FE0
0F80
ENDCHAR
STARTCHAR Eogonek
ENCODING 280
SWIDTH 601 0
DWIDTH 15 0
BBX 12 23 2 -5
BITMAP
FFE0
FFE0
E000
E000
E000
E000
E000
E000
FFE0
FFE0
E000
E000
E000
E000
E000
E000
FFE0
FFE0
00C0
0180
01C0
01F0
00F0
ENDCHAR
STARTCHAR eogonek
ENCODING 281
SWIDTH 583 0
DWIDTH 15 0
BBX 12 19 1 -5
BITMAP
0F80
3FC0
38E0
6070
6030
E030
FFF0
FFF0
E000
6000
6030
7070
3FE0
0FC0
00C0
0180
0180
01F0
00F0
ENDCHAR
STARTCHAR Ecaron
ENCODING 282
SWIDTH 601 0
DWIDTH 15 0
BBX 11 25 2 0
BITMAP
30C0
1980
0F00
0E00
0000
0000
0000
FFE0
FFE0
E000
E000
E000
E000
E000
E000
FFE0
FFE0
E000
E000
E000
E000
E000
E000
FFE0
FFE0
ENDCHAR
STARTCHAR ecaron
ENCODING 283
SWIDTH 583 0
DWIDTH 15 0
BBX 12 20 1 0
BITMAP
38C0
19C0
0D80
0700
0000
0000
0F80
3FC0
38E0
6070
6030
E030
FFF0
FFF0
E000
6000
6030
7070
3FE0
0F80
ENDCHAR
STARTCHAR Gcircumflex
ENCODING 284
SWIDTH 746 0
DWIDTH 19 0
BBX 16 25 1 0
BITMAP
01C0
01C0
0360
0630
0000
0000
0000
03E0
0FF8
1C1C
380E
7007
6007
6000
6000
E000
E07F
607F
6003
6003
7007
380E
1C1E
0FFC
03F0
ENDCHAR
STARTCHAR gcircumflex
ENCODING 285
SWIDTH 613 0
DWIDTH 15 0
BBX 12 25 1 -5
BITMAP
0600
0F00
0D80
38C0
0000
0000
0F30
3FB0
78F0
6070
6030
E030
E030
E030
E030
6030
6070
70F0
3FB0
0F30
0030
2030
7070
3FE0
1F80
ENDCHAR
STARTCHAR Gbreve
ENCODING 286
SWIDTH 746 0
DWIDTH 19 0
BBX 16 25 1 0
BITMAP
0630
0630
03E0
01C0
0000
0000
0000
03E0
0FF8
1C1C
380E
7007
6007
6000
6000
E000
E07F
607F
6003
6003
7007
380E
1C1E
0FFC
03F0
ENDCHAR
STARTCHAR gbreve
ENCODING 287
SWIDTH 613 0
DWIDTH 15 0
BBX 12 25 1 -5
BITMAP
10C0
18C0
1F80
0700
0000
0000
0F30
3FB0
78F0
6070
6030
E030
E030
E030
E030
6030
6070
70F0
3FB0
0F30
0030
2030
7070
3FE0
1F80
ENDCHAR
STARTCHAR Gdotaccent
ENCODING 288
SWIDTH 746 0
DWIDTH 19 0
BBX 16 24 1 0
BITMAP
01C0
01C0
01C0
0000
0000
0000
03E0
0FF8
1C1C
380E
7007
6007
6000
6000
E000
E07F
607F
6003
6003
7007
380E
1C1E
0FFC
03F0
ENDCHAR
STARTCHAR gdotaccent
ENCODING 289
SWIDTH 613 0
DWIDTH 15 0
BBX 12 24 1 -5
BITMAP
0600
0700
0700
0000
0000
0F30
3FB0
78F0
6070
6030
E030
E030
E030
E030
6030
6070
70F0
3FB0
0F30
0030
2030
7070
3FE0
1F80
ENDCHAR
STARTCHAR uni0122
ENCODING 290
SWIDTH 746 0
DWIDTH 19 0
BBX 16 24 1 -6
BITMAP
03E0
0FF8
1C1C
380E
7007
6007
6000
6000
E000
E07F
607F
6003
6003
7007
380E
1C1E
0FFC
03F0
0000
01C0
0180
0180
0100
0300
ENDCHAR
STARTCHAR uni0123
ENCODING 291
SWIDTH 613 0
DWIDTH 15 0
BBX 12 25 1 -5
BITMAP
0300
0300
0600
0600
0600
0000
0F30
3FB0
78F0
6070
6030
E030
E030
E030
E030
6030
6070
70F0
3FB0
0F30
0030
2030
7070
3FE0
1F80
ENDCHAR
STARTCHAR Hcircumflex
ENCODING 292
SWIDTH 743 0
DWIDTH 19 0
BBX 14 25 2 0
BITMAP
0300
0780
06C0
1C60
0000
0000
0000
E00C
E00C
E00C
E00C
E00C
E00C
E00C
E00C
FFFC
FFFC
E00C
E00C
E00C
E00C
E00C
E00C
E00C
E00C
ENDCHAR
STARTCHAR hcircumflex
ENCODING 293
SWIDTH 591 0
DWIDTH 15 0
BBX 14 25 -1 0
BITMAP
1800
3C00
6600
E700
0000
0000
0000
1800
1800
1800
1800
19E0
1BF8
1E38
1C1C
180C
180C
180C
180C
180C
180C
180C
180C
180C
180C
ENDCHAR
STARTCHAR Hbar
ENCODING 294
SWIDTH 776 0
DWIDTH 19 0
BBX 17 18 1 0
BITMAP
300300
300300
300300
FFFF80
FFFF80
300300
300300
300300
3FFF00
3FFF00
300300
300300
300300
300300
300300
300300
300300
300300
ENDCHAR
STARTCHAR hbar
ENCODING 295
SWIDTH 591 0
DWIDTH 15 0
BBX 13 18 0 0
BITMAP
3000
FF00
FF00
3000
33C0
37F0
3C70
3838
3018
3018
3018
3018
3018
3018
3018
3018
3018
3018
ENDCHAR
STARTCHAR Itilde
ENCODING 296
SWIDTH 268 0
DWIDTH 7 0
BBX 7 24 0 0
BITMAP
46
FE
9C
00
00
00
38
38
38
38
38
38
38
38
38
38
38
38
38
38
38
38
38
38
ENDCHAR
STARTCHAR itilde
ENCODING 297
SWIDTH 242 0
DWIDTH 6 0
BBX 8 19 -1 0
BITMAP
23
7E
4E
80
00
18
18
18
18
18
18
18
18
18
18
18
18
18
18
ENDCHAR
STARTCHAR Imacron
ENCODING 298
SWIDTH 268 0
DWIDTH 7 0
BBX 7 24 0 0
BITMAP
FE
FE
00
00
00
00
38
38
38
38
38
38
38
38
38
38
38
38
38
38
38
38
38
38
ENDCHAR
STARTCHAR imacron
ENCODING 299
SWIDTH 242 0
DWIDTH 6 0
BBX 6 19 0 0
BITMAP
FC
FC
00
00
00
30
30
30
30
30
30
30
30
30
30
30
30
30
30
ENDCHAR
STARTCHAR Ibreve
ENCODING 300
SWIDTH 268 0
DWIDTH 7 0
BBX 7 25 0 0
BITMAP
86
C6
FC
78
00
00
00
38
38
38
38
38
38
38
38
38
38
38
38
38
38
38
38
38
38
ENDCHAR
STARTCHAR ibreve
ENCODING 301
SWIDTH 242 0
DWIDTH 6 0
BBX 8 20 -1 0
BITMAP
C3
66
7E
3C
00
00
18
18
18
18
18
18
18
18
18
18
18
18
18
18
ENDCHAR
STARTCHAR Iogonek
ENCODING 302
SWIDTH 268 0
DWIDTH 7 0
BBX 5 23 0 -5
BITMAP
38
38
38
38
38
38
38
38
38
38
38
38
38
38
38
38
38
38
60
E0
E0
F8
78
ENDCHAR
STARTCHAR iogonek
ENCODING 303
SWIDTH 242 0
DWIDTH 6 0
BBX 5 24 0 -5
BITMAP
30
38
30
00
00
30
30
30
30
30
30
30
30
30
30
30
30
30
30
60
C0
C0
F8
78
ENDCHAR
STARTCHAR Idotaccent
ENCODING 304
SWIDTH 268 0
DWIDTH 7 0
BBX 3 24 2 0
BITMAP
C0
E0
C0
00
00
00
E0
E0
E0
E0
E0
E0
E0
E0
E0
E0
E0
E0
E0
E0
E0
E0
E0
E0
ENDCHAR
STARTCHAR dotlessi
ENCODING 305
SWIDTH 242 0
DWIDTH 6 0
BBX 2 14 2 0
BITMAP
C0
C0
C0
C0
C0
C0
C0
C0
C0
C0
C0
C0
C0
C0
ENDCHAR
STARTCHAR IJ
ENCODING 306
SWIDTH 839 0
DWIDTH 21 0
BBX 17 18 2 0
BITMAP
E00380
E00380
E00380
E00380
E00380
E00380
E00380
E00380
E00380
E00380
E00380
E00380
E30380
E30380
E38380
E1C700
E1FE00
E07C00
ENDCHAR
STARTCHAR ij
ENCODING 307
SWIDTH 484 0
DWIDTH 12 0
BBX 9 24 2 -5
BITMAP
C300
E380
C300
0000
0000
C300
C300
C300
C300
C300
C300
C300
C300
C300
C300
C300
C300
C300
C300
0300
0300
0700
0F00
0C00
ENDCHAR
STARTCHAR Jcircumflex
ENCODING 308
SWIDTH 570 0
DWIDTH 14 0
BBX 14 25 1 0
BITMAP
0060
00F0
01B8
039C
0000
0000
0000
0060
0060
0060
0060
0060
0060
0060
0060
0060
0060
0060
0060
E060
E060
E0E0
71C0
3FC0
1F00
ENDCHAR
STARTCHAR jcircumflex
ENCODING 309
SWIDTH 242 0
DWIDTH 6 0
BBX 8 25 -1 -5
BITMAP
18
3C
66
E7
00
00
18
18
18
18
18
18
18
18
18
18
18
18
18
18
18
18
38
70
60
ENDCHAR
STARTCHAR uni0136
ENCODING 310
SWIDTH 671 0
DWIDTH 17 0
BBX 14 24 2 -6
BITMAP
E01C
E038
E070
E0E0
E1C0
E380
E700
EE00
FE00
FF00
F380
E180
E1C0
E0E0
E070
E030
E038
E01C
0000
0700
0600
0600
0600
0C00
ENDCHAR
STARTCHAR uni0137
ENCODING 311
SWIDTH 548 0
DWIDTH 14 0
BBX 11 24 2 -6
BITMAP
C000
C000
C000
C000
C0E0
C1C0
C380
C700
CE00
DC00
FC00
FC00
EE00
C700
C380
C180
C1C0
C0E0
0000
0C00
0C00
1800
1800
1800
ENDCHAR
STARTCHAR kgreenlandic
ENCODING 312
SWIDTH 525 0
DWIDTH 13 0
BBX 11 14 2 0
BITMAP
C0E0
C1C0
C380
C700
CE00
CC00
F800
F800
DC00
CE00
C700
C380
C180
C0E0
ENDCHAR
STARTCHAR Lacute
ENCODING 313
SWIDTH 565 0
DWIDTH 14 0
BBX 11 25 2 0
BITMAP
3800
3000
6000
E000
0000
0000
0000
E000
E000
E000
E000
E000
E000
E000
E000
E000
E000
E000
E000
E000
E000
E000
E000
FFE0
FFE0
ENDCHAR
STARTCHAR lacute
ENCODING 314
SWIDTH 242 0
DWIDTH 6 0
BBX 4 25 2 0
BITMAP
30
70
60
C0
00
00
00
C0
C0
C0
C0
C0
C0
C0
C0
C0
C0
C0
C0
C0
C0
C0
C0
C0
C0
ENDCHAR
STARTCHAR uni013B
ENCODING 315
SWIDTH 565 0
DWIDTH 14 0
BBX 11 24 2 -6
BITMAP
E000
E000
E000
E000
E000
E000
E000
E000
E000
E000
E000
E000
E000
E000
E000
E000
FFE0
FFE0
0000
0E00
0C00
0C00
0C00
1800
ENDCHAR
STARTCHAR uni013C
ENCODING 316
SWIDTH 242 0
DWIDTH 6 0
BBX 3 24 1 -6
BITMAP
60
60
60
60
60
60
60
60
60
60
60
60
60
60
60
60
60
60
00
60
60
C0
C0
C0
ENDCHAR
STARTCHAR Lcaron
ENCODING 317
SWIDTH 565 0
DWIDTH 14 0
BBX 11 20 2 0
BITMAP
0300
0300
E200
E200
E200
E000
E000
E000
E000
E000
E000
E000
E000
E000
E000
E000
E000
E000
FFE0
FFE0
ENDCHAR
STARTCHAR lcaron
ENCODING 318
SWIDTH 339 0
DWIDTH 9 0
BBX 6 20 2 0
BITMAP
0C
0C
CC
CC
CC
C0
C0
C0
C0
C0
C0
C0
C0
C0
C0
C0
C0
C0
C0
C0
ENDCHAR
STARTCHAR Ldot
ENCODING 319
SWIDTH 562 0
DWIDTH 14 0
BBX 11 18 2 0
BITMAP
E000
E000
E000
E000
E000
E000
E300
E700
E300
E000
E000
E000
E000
E000
E000
E000
FFE0
FFE0
ENDCHAR
STARTCHAR ldot
ENCODING 320
SWIDTH 359 0
DWIDTH 9 0
BBX 7 18 2 0
BITMAP
C0
C0
C0
C0
C0
C0
C0
CE
CE
CE
C0
C0
C0
C0
C0
C0
C0
C0
ENDCHAR
STARTCHAR Lslash
ENCODING 321
SWIDTH 594 0
DWIDTH 15 0
BBX 13 18 1 0
BITMAP
3000
3000
3000
3000
3080
3380
3F00
3E00
7800
F000
B000
3000
3000
3000
3000
3000
3FF8
3FF8
ENDCHAR
STARTCHAR lslash
ENCODING 322
SWIDTH 242 0
DWIDTH 6 0
BBX 6 18 0 0
BITMAP
30
30
30
30
34
3C
3C
70
F0
B0
30
30
30
30
30
30
30
30
ENDCHAR
STARTCHAR Nacute
ENCODING 323
SWIDTH 753 0
DWIDTH 19 0
BBX 15 25 2 0
BITMAP
00E0
00C0
0180
0380
0000
0000
0000
E00E
F00E
F80E
D80E
DC0E
CC0E
CE0E
E70E
E30E
E38E
E1CE
E0CE
E0EE
E07E
E03E
E03E
E01E
E00E
ENDCHAR
STARTCHAR nacute
ENCODING 324
SWIDTH 590 0
DWIDTH 15 0
BBX 11 20 2 0
BITMAP
0380
0300
0600
0E00
0000
0000
CF00
DFC0
F1C0
E0E0
C060
C060
C060
C060
C060
C060
C060
C060
C060
C060
ENDCHAR
STARTCHAR uni0145
ENCODING 325
SWIDTH 753 0
DWIDTH 19 0
BBX 15 24 2 -6
BITMAP
E00E
F00E
F80E
D80E
DC0E
CC0E
CE0E
E70E
E30E
E38E
E1CE
E0CE
E0EE
E07E
E03E
E03E
E01E
E00E
0000
0380
0300
0300
0200
0600
ENDCHAR
STARTCHAR uni0146
ENCODING 326
SWIDTH 590 0
DWIDTH 15 0
BBX 11 20 2 -6
BITMAP
CF00
DFC0
F1C0
E0E0
C060
C060
C060
C060
C060
C060
C060
C060
C060
C060
0000
0C00
0C00
0C00
0800
1800
ENDCHAR
STARTCHAR Ncaron
ENCODING 327
SWIDTH 753 0
DWIDTH 19 0
BBX 15 25 2 0
BITMAP
0C60
0CE0
06C0
0380
0000
0000
0000
E00E
F00E
F80E
D80E
DC0E
CC0E
CE0E
E70E
E30E
E38E
E1CE
E0CE
E0EE
E07E
E03E
E03E
E01E
E00E
ENDCHAR
STARTCHAR ncaron
ENCODING 328
SWIDTH 590 0
DWIDTH 15 0
BBX 11 20 2 0
BITMAP
7180
3380
1B00
0E00
0000
0000
CF00
DFC0
F1C0
E0E0
C060
C060
C060
C060
C060
C060
C060
C060
C060
C060
ENDCHAR
STARTCHAR Eng
ENCODING 330
SWIDTH 753 0
DWIDTH 19 0
BBX 15 23 2 -5
BITMAP
E00E
F00E
F80E
D80E
DC0E
CC0E
CE0E
E70E
E30E
E38E
E1CE
E0CE
E0EE
E07E
E03E
E03E
E01E
E00E
000E
000E
000E
003C
0038
ENDCHAR
STARTCHAR eng
ENCODING 331
SWIDTH 590 0
DWIDTH 15 0
BBX 11 19 2 -5
BITMAP
CF00
DFC0
F1C0
E0E0
C060
C060
C060
C060
C060
C060
C060
C060
C060
C060
0060
0060
00E0
03E0
03C0
ENDCHAR
STARTCHAR Omacron
ENCODING 332
SWIDTH 764 0
DWIDTH 19 0
BBX 17 24 1 0
BITMAP
07F000
07F000
000000
000000
000000
000000
03E000
0FF800
1C1C00
380E00
700700
600300
600300
600380
E00380
E00380
600380
600300
600300
700700
380E00
1C1C00
0FF800
03F000
ENDCHAR
STARTCHAR omacron
ENCODING 333
SWIDTH 599 0
DWIDTH 15 0
BBX 13 19 1 0
BITMAP
1FC0
1FC0
0000
0000
0000
0F80
3FE0
38E0
6030
6030
E038
E038
E038
E038
6030
6030
38E0
3FE0
0F80
ENDCHAR
STARTCHAR Obreve
ENCODING 334
SWIDTH 764 0
DWIDTH 19 0
BBX 17 25 1 0
BITMAP
063000
063000
03E000
01C000
000000
000000
000000
03E000
0FF800
1C1C00
380E00
700700
600300
600300
600380
E00380
E00380
600380
600300
600300
700700
380E00
1C1C00
0FF800
03F000
ENDCHAR
STARTCHAR obreve
ENCODING 335
SWIDTH 599 0
DWIDTH 15 0
BBX 13 20 1 0
BITMAP
18C0
18C0
0F80
0700
0000
0000
0F80
3FE0
38E0
6030
6030
E038
E038
E038
E038
6030
6030
38E0
3FE0
0F80
ENDCHAR
STARTCHAR Ohungarumlaut
ENCODING 336
SWIDTH 764 0
DWIDTH 19 0
BBX 17 25 1 0
BITMAP
01DC00
019800
033000
033000
000000
000000
000000
03E000
0FF800
1C1C00
380E00
700700
600300
600300
600380
E00380
E00380
600380
600300
600300
700700
380E00
1C1C00
0FF800
03F000
ENDCHAR
STARTCHAR ohungarumlaut
ENCODING 337
SWIDTH 599 0
DWIDTH 15 0
BBX 13 20 1 0
BITMAP
0670
0E60
0CC0
0CC0
0000
0000
0F80
3FE0
38E0
6030
6030
E038
E038
E038
E038
6030
6030
38E0
3FE0
0F80
ENDCHAR
STARTCHAR OE
ENCODING 338
SWIDTH 1004 0
DWIDTH 25 0
BBX 22 18 1 0
BITMAP
03FFFC
0FFFFC
1C1C00
381C00
701C00
601C00
601C00
601C00
E01FFC
E01FFC
601C00
601C00
601C00
701C00
381C00
1C1C00
0FFFFC
03FFFC
ENDCHAR
STARTCHAR oe
ENCODING 339
SWIDTH 999 0
DWIDTH 25 0
BBX 23 14 1 0
BITMAP
0F83E0
3FE7F8
38EE1C
603C0C
60380C
E0380E
E03FFE
E03FFE
E03800
603800
603C0E
38EE1C
3FE7F8
0F83F0
ENDCHAR
STARTCHAR Racute
ENCODING 340
SWIDTH 643 0
DWIDTH 16 0
BBX 13 25 2 0
BITMAP
0180
0300
0300
0600
0000
0000
0000
FF80
FFE0
E070
E030
E038
E038
E038
E030
E070
FFE0
FF80
E1C0
E0C0
E0E0
E060
E070
E030
E038
ENDCHAR
STARTCHAR racute
ENCODING 341
SWIDTH 376 0
DWIDTH 9 0
BBX 7 20 2 0
BITMAP
0C
1C
18
30
00
00
CE
DE
F0
E0
C0
C0
C0
C0
C0
C0
C0
C0
C0
C0
ENDCHAR
STARTCHAR uni0156
ENCODING 342
SWIDTH 643 0
DWIDTH 16 0
BBX 13 24 2 -6
BITMAP
FF80
FFE0
E070
E030
E038
E038
E038
E030
E070
FFE0
FF80
E1C0
E0C0
E0E0
E060
E070
E030
E038
0000
0600
0600
0600
0C00
0C00
ENDCHAR
STARTCHAR uni0157
ENCODING 343
SWIDTH 376 0
DWIDTH 9 0
BBX 8 20 1 -6
BITMAP
67
6F
78
70
60
60
60
60
60
60
60
60
60
60
00
60
60
C0
C0
C0
ENDCHAR
STARTCHAR Rcaron
ENCODING 344
SWIDTH 643 0
DWIDTH 16 0
BBX 13 25 2 0
BITMAP
30C0
1980
0F00
0E00
0000
0000
0000
FF80
FFE0
E070
E030
E038
E038
E038
E030
E070
FFE0
FF80
E1C0
E0C0
E0E0
E060
E070
E030
E038
ENDCHAR
STARTCHAR rcaron
ENCODING 345
SWIDTH 376 0
DWIDTH 9 0
BBX 8 20 1 0
BITMAP
C3
66
3E
1C
00
00
67
6F
78
70
60
60
60
60
60
60
60
60
60
60
ENDCHAR
STARTCHAR Sacute
ENCODING 346
SWIDTH 641 0
DWIDTH 16 0
BBX 14 25 1 0
BITMAP
00C0
01C0
0180
0300
0000
0000
0000
0FC0
1FF0
3878
7018
6018
6000
7000
3C00
1FC0
03F0
0078
0018
001C
E01C
6018
7878
3FF0
0FC0
ENDCHAR
STARTCHAR sacute
ENCODING 347
SWIDTH 527 0
DWIDTH 13 0
BBX 11 20 1 0
BITMAP
0380
0300
0300
0600
0000
0000
1F00
3FC0
70C0
60E0
6000
7000
3F00
0FC0
00E0
0060
E060
70E0
7FC0
1F00
ENDCHAR
STARTCHAR Scircumflex
ENCODING 348
SWIDTH 641 0
DWIDTH 16 0
BBX 14 25 1 0
BITMAP
0300
0780
0CC0
1CE0
0000
0000
0000
0FC0
1FF0
3878
7018
6018
6000
7000
3C00
1FC0
03F0
0078
0018
001C
E01C
6018
7878
3FF0
0FC0
ENDCHAR
STARTCHAR scircumflex
ENCODING 349
SWIDTH 527 0
DWIDTH 13 0
BBX 11 20 1 0
BITMAP
0600
0F00
1B00
31C0
0000
0000
1F00
3FC0
70C0
60E0
6000
7000
3F00
0FC0
00E0
0060
E060
70E0
7FC0
1F00
ENDCHAR
STARTCHAR Scedilla
ENCODING 350
SWIDTH 641 0
DWIDTH 16 0
BBX 14 23 1 -5
BITMAP
0FC0
1FF0
3878
7018
6018
6000
7000
3C00
1FC0
03F0
0078
0018
001C
E01C
6018
7878
3FF0
0FC0
0300
03C0
00C0
00C0
0380
ENDCHAR
STARTCHAR scedilla
ENCODING 351
SWIDTH 527 0
DWIDTH 13 0
BBX 11 19 1 -5
BITMAP
1F00
3FC0
70C0
60E0
6000
7000
3F00
0FC0
00E0
0060
E060
70E0
7FC0
1F00
0400
0700
0180
0180
0F00
ENDCHAR
STARTCHAR Scaron
ENCODING 352
SWIDTH 641 0
DWIDTH 16 0
BBX 14 25 1 0
BITMAP
1860
0CC0
0780
0300
0000
0000
0000
0FC0
1FF0
3878
7018
6018
6000
7000
3C00
1FC0
03F0
0078
0018
001C
E01C
6018
7878
3FF0
0FC0
ENDCHAR
STARTCHAR scaron
ENCODING 353
SWIDTH 527 0
DWIDTH 13 0
BBX 11 20 1 0
BITMAP
31C0
1980
1F00
0E00
0000
0000
1F00
3FC0
70C0
60E0
6000
7000
3F00
0FC0
00E0
0060
E060
70E0
7FC0
1F00
ENDCHAR
STARTCHAR uni021A
ENCODING 354
SWIDTH 645 0
DWIDTH 16 0
BBX 14 23 1 -5
BITMAP
FFFC
FFFC
0300
0300
0300
0300
0300
0300
0300
0300
0300
0300
0300
0300
0300
0300
0300
0300
0300
03C0
00C0
00C0
03C0
ENDCHAR
STARTCHAR uni0163
ENCODING 355
SWIDTH 327 0
DWIDTH 8 0
BBX 8 23 0 -5
BITMAP
38
38
38
38
FE
FE
38
38
38
38
38
38
38
38
38
38
1E
0F
04
0F
03
03
0F
ENDCHAR
STARTCHAR Tcaron
ENCODING 356
SWIDTH 645 0
DWIDTH 16 0
BBX 14 25 1 0
BITMAP
1860
0CC0
0780
0380
0000
0000
0000
FFFC
FFFC
0300
0300
0300
0300
0300
0300
0300
0300
0300
0300
0300
0300
0300
0300
0300
0300
ENDCHAR
STARTCHAR tcaron
ENCODING 357
SWIDTH 375 0
DWIDTH 9 0
BBX 8 21 0 0
BITMAP
03
03
03
3B
3B
38
38
FE
FE
38
38
38
38
38
38
38
38
38
38
1E
0F
ENDCHAR
STARTCHAR Tbar
ENCODING 358
SWIDTH 645 0
DWIDTH 16 0
BBX 14 18 1 0
BITMAP
FFFC
FFFC
0300
0300
0300
0300
0300
0300
3FF0
3FF0
0300
0300
0300
0300
0300
0300
0300
0300
ENDCHAR
STARTCHAR tbar
ENCODING 359
SWIDTH 327 0
DWIDTH 8 0
BBX 8 18 0 0
BITMAP
38
38
38
38
FE
FE
38
38
FE
FE
38
38
38
38
38
38
1E
0F
ENDCHAR
STARTCHAR Utilde
ENCODING 360
SWIDTH 744 0
DWIDTH 19 0
BBX 14 24 2 0
BITMAP
0460
0FE0
09C0
0000
0000
0000
E00C
E00C
E00C
E00C
E00C
E00C
E00C
E00C
E00C
E00C
E00C
E00C
E00C
E00C
701C
7838
3FF0
0FC0
ENDCHAR
STARTCHAR utilde
ENCODING 361
SWIDTH 591 0
DWIDTH 15 0
BBX 11 19 2 0
BITMAP
1980
3F80
3700
0000
0000
C060
C060
C060
C060
C060
C060
C060
C060
C060
C0E0
E0E0
E1E0
7F60
3E60
ENDCHAR
STARTCHAR Umacron
ENCODING 362
SWIDTH 744 0
DWIDTH 19 0
BBX 14 24 2 0
BITMAP
0FE0
0FE0
0000
0000
0000
0000
E00C
E00C
E00C
E00C
E00C
E00C
E00C
E00C
E00C
E00C
E00C
E00C
E00C
E00C
701C
7838
3FF0
0FC0
ENDCHAR
STARTCHAR umacron
ENCODING 363
SWIDTH 591 0
DWIDTH 15 0
BBX 11 19 2 0
BITMAP
3F80
3F80
0000
0000
0000
C060
C060
C060
C060
C060
C060
C060
C060
C060
C0E0
E0E0
E1E0
7F60
3E60
ENDCHAR
STARTCHAR Ubreve
ENCODING 364
SWIDTH 744 0
DWIDTH 19 0
BBX 14 25 2 0
BITMAP
0860
0C60
0FC0
0780
0000
0000
0000
E00C
E00C
E00C
E00C
E00C
E00C
E00C
E00C
E00C
E00C
E00C
E00C
E00C
E00C
701C
7838
3FF0
0FC0
ENDCHAR
STARTCHAR ubreve
ENCODING 365
SWIDTH 591 0
DWIDTH 15 0
BBX 11 20 2 0
BITMAP
2180
3180
3F00
0E00
0000
0000
C060
C060
C060
C060
C060
C060
C060
C060
C060
C0E0
E0E0
E1E0
7F60
3E60
ENDCHAR
STARTCHAR Uring
ENCODING 366
SWIDTH 744 0
DWIDTH 19 0
BBX 14 25 2 0
BITMAP
0380
07C0
0C60
0C40
07C0
0380
0000
E00C
E00C
E00C
E00C
E00C
E00C
E00C
E00C
E00C
E00C
E00C
E00C
E00C
E00C
701C
7838
3FF0
0FC0
ENDCHAR
STARTCHAR uring
ENCODING 367
SWIDTH 591 0
DWIDTH 15 0
BBX 11 21 2 0
BITMAP
0E00
1F00
3180
3180
1F00
0E00
0000
C060
C060
C060
C060
C060
C060
C060
C060
C060
C0E0
E0E0
E1E0
7F60
3E60
ENDCHAR
STARTCHAR Uhungarumlaut
ENCODING 368
SWIDTH 744 0
DWIDTH 19 0
BBX 14 25 2 0
BITMAP
0338
0630
0660
0CE0
0000
0000
0000
E00C
E00C
E00C
E00C
E00C
E00C
E00C
E00C
E00C
E00C
E00C
E00C
E00C
E00C
701C
7838
3FF0
0FC0
ENDCHAR
STARTCHAR uhungarumlaut
ENCODING 369
SWIDTH 591 0
DWIDTH 15 0
BBX 11 20 2 0
BITMAP
0CE0
1CC0
1980
3B80
0000
0000
C060
C060
C060
C060
C060
C060
C060
C060
C060
C0E0
E0E0
E1E0
7F60
3E60
ENDCHAR
STARTCHAR Uogonek
ENCODING 370
SWIDTH 744 0
DWIDTH 19 0
BBX 14 23 2 -5
BITMAP
E00C
E00C
E00C
E00C
E00C
E00C
E00C
E00C
E00C
E00C
E00C
E00C
E00C
E00C
701C
7838
3FF0
0FC0
0380
0700
0600
07C0
03C0
ENDCHAR
STARTCHAR uogonek
ENCODING 371
SWIDTH 591 0
DWIDTH 15 0
BBX 12 19 2 -5
BITMAP
C060
C060
C060
C060
C060
C060
C060
C060
C060
C0E0
E0E0
E1E0
7F60
3EE0
01C0
0180
0180
01E0
00F0
ENDCHAR
STARTCHAR Wcircumflex
ENCODING 372
SWIDTH 985 0
DWIDTH 25 0
BBX 23 25 1 0
BITMAP
003000
007800
006C00
01C600
000000
000000
000000
C0380E
C0380E
E0780C
607C0C
606C1C
606C18
70CC18
30CE18
30C638
31C630
198630
198330
198370
1B8360
0F0360
0F01E0
0F01C0
0E01C0
ENDCHAR
STARTCHAR wcircumflex
ENCODING 373
SWIDTH 818 0
DWIDTH 20 0
BBX 19 20 1 0
BITMAP
00C000
01E000
03B000
071800
000000
000000
C0E0E0
E0E0C0
61E0C0
61E1C0
61B180
71B180
333380
333300
331B00
1A1B00
1E1F00
1E0E00
0E0E00
0C0E00
ENDCHAR
STARTCHAR Ycircumflex
ENCODING 374
SWIDTH 678 0
DWIDTH 17 0
BBX 15 25 1 0
BITMAP
0380
0380
06C0
0C60
0000
0000
0000
E00E
600C
701C
3018
3838
1C70
0C60
0EE0
06C0
0380
0380
0380
0380
0380
0380
0380
0380
0380
ENDCHAR
STARTCHAR ycircumflex
ENCODING 375
SWIDTH 562 0
DWIDTH 14 0
BBX 12 25 1 -5
BITMAP
0600
0F00
1980
39C0
0000
0000
C030
E070
6060
6060
70E0
30C0
30C0
39C0
1980
1980
0F00
0F00
0F00
0600
0600
0E00
0C00
7800
7000
ENDCHAR
STARTCHAR Ydieresis
ENCODING 376
SWIDTH 678 0
DWIDTH 17 0
BBX 15 24 1 0
BITMAP
0C60
1C70
0C60
0000
0000
0000
E00E
600C
701C
3018
3838
1C70
0C60
0EE0
06C0
0380
0380
0380
0380
0380
0380
0380
0380
0380
ENDCHAR
STARTCHAR Zacute
ENCODING 377
SWIDTH 628 0
DWIDTH 16 0
BBX 13 25 1 0
BITMAP
00C0
0180
0180
0300
0000
0000
0000
FFF8
FFF8
0038
0070
0060
00E0
01C0
0180
0300
0700
0600
0C00
1C00
1800
3000
7000
7FF8
7FF8
ENDCHAR
STARTCHAR zacute
ENCODING 378
SWIDTH 552 0
DWIDTH 14 0
BBX 10 20 2 0
BITMAP
0300
0600
0600
0C00
0000
0000
FFC0
FFC0
0180
0380
0700
0600
0E00
1C00
3800
3000
7000
E000
FFC0
FFC0
ENDCHAR
STARTCHAR Zdotaccent
ENCODING 379
SWIDTH 628 0
DWIDTH 16 0
BBX 13 24 1 0
BITMAP
0300
0700
0300
0000
0000
0000
FFF8
FFF8
0038
0070
0060
00E0
01C0
0180
0300
0700
0600
0C00
1C00
1800
3000
7000
7FF8
7FF8
ENDCHAR
STARTCHAR zdotaccent
ENCODING 380
SWIDTH 552 0
DWIDTH 14 0
BBX 10 19 2 0
BITMAP
0C00
1C00
0C00
0000
0000
FFC0
FFC0
0180
0380
0700
0600
0E00
1C00
3800
3000
7000
E000
FFC0
FFC0
ENDCHAR
STARTCHAR Zcaron
ENCODING 381
SWIDTH 628 0
DWIDTH 16 0
BBX 13 25 1 0
BITMAP
1860
0CC0
0780
0700
0000
0000
0000
FFF8
FFF8
0038
0070
0060
00E0
01C0
0180
0300
0700
0600
0C00
1C00
1800
3000
7000
7FF8
7FF8
ENDCHAR
STARTCHAR zcaron
ENCODING 382
SWIDTH 552 0
DWIDTH 14 0
BBX 10 20 2 0
BITMAP
6380
3300
3E00
1C00
0000
0000
FFC0
FFC0
0180
0380
0700
0600
0E00
1C00
3800
3000
7000
E000
FFC0
FFC0
ENDCHAR
STARTCHAR longs
ENCODING 383
SWIDTH 314 0
DWIDTH 8 0
BBX 6 19 2 0
BITMAP
10
7C
F8
C0
C0
C0
C0
C0
C0
C0
C0
C0
C0
C0
C0
C0
C0
C0
C0
ENDCHAR
STARTCHAR bbar
ENCODING 384
SWIDTH 612 0
DWIDTH 15 0
BBX 14 18 0 0
BITMAP
3000
FF00
FF00
3000
33E0
37F0
3C38
3818
301C
300C
300C
300C
300C
381C
3818
3C38
37F0
33E0
ENDCHAR
STARTCHAR uni0181
ENCODING 385
SWIDTH 791 0
DWIDTH 20 0
BBX 17 18 1 0
BITMAP
7FFC00
FFFE00
C60700
C60300
C60380
060380
060300
060700
07FC00
07FE00
060780
060180
060180
060180
060180
060380
07FF00
07FC00
ENDCHAR
STARTCHAR uni0182
ENCODING 386
SWIDTH 656 0
DWIDTH 16 0
BBX 13 18 2 0
BITMAP
FFE0
FFE0
E000
E000
E000
E000
E000
FFC0
FFF0
E070
E038
E018
E018
E018
E038
E070
FFE0
FFC0
ENDCHAR
STARTCHAR uni0183
ENCODING 387
SWIDTH 612 0
DWIDTH 15 0
BBX 12 18 2 0
BITMAP
FFC0
FFC0
C000
C000
CF80
DFC0
F0E0
E060
C070
C030
C030
C030
C030
E070
E060
F0E0
DFC0
CF80
ENDCHAR
STARTCHAR uni0184
ENCODING 388
SWIDTH 717 0
DWIDTH 18 0
BBX 17 18 0 0
BITMAP
FE0000
FE0000
060000
060000
060000
060000
060000
07FC00
07FF00
060780
060180
060180
060180
060180
060380
060780
07FF00
07FC00
ENDCHAR
STARTCHAR uni0185
ENCODING 389
SWIDTH 633 0
DWIDTH 16 0
BBX 14 19 1 0
BITMAP
2000
7000
F000
F000
7000
73E0
37F0
3C38
381C
380C
300C
300C
300C
300C
380C
381C
3C38
37F0
33E0
ENDCHAR
STARTCHAR uni0186
ENCODING 390
SWIDTH 730 0
DWIDTH 18 0
BBX 16 18 1 0
BITMAP
07E0
1FF0
383C
700C
600E
E006
0007
0007
0007
0007
0007
0007
E006
600E
700C
383C
1FF0
07E0
ENDCHAR
STARTCHAR uni0187
ENCODING 391
SWIDTH 730 0
DWIDTH 18 0
BBX 19 21 1 0
BITMAP
0001E0
0003E0
000300
03F300
0FFB00
1C1F00
380F00
700700
600300
600000
600000
E00000
E00000
600000
600000
600300
700700
380E00
1C1C00
0FF800
03E000
ENDCHAR
STARTCHAR uni0188
ENCODING 392
SWIDTH 578 0
DWIDTH 14 0
BBX 13 17 1 0
BITMAP
0038
0078
0060
0FE0
3FE0
38F0
6070
6000
E000
E000
E000
E000
6000
6030
38E0
3FE0
0F80
ENDCHAR
STARTCHAR Dbar1
ENCODING 393
SWIDTH 734 0
DWIDTH 18 0
BBX 17 18 0 0
BITMAP
1FF000
1FFC00
181E00
180600
180700
180300
180380
180180
FFC180
FFC180
180180
180380
180300
180700
180600
181E00
1FFC00
1FE000
ENDCHAR
STARTCHAR uni018A
ENCODING 394
SWIDTH 858 0
DWIDTH 21 0
BBX 19 18 1 0
BITMAP
7FFC00
FFFF00
C60780
C601C0
C600C0
0600C0
0600E0
060060
060060
060060
060060
0600E0
0600C0
0600C0
0601C0
060780
07FF00
07FC00
ENDCHAR
STARTCHAR uni018B
ENCODING 395
SWIDTH 633 0
DWIDTH 16 0
BBX 13 18 1 0
BITMAP
3FF8
3FF8
0018
0018
0018
0018
0018
0FF8
3FF8
7818
7018
6018
E018
6018
7018
7818
3FF8
0FF8
ENDCHAR
STARTCHAR uni018C
ENCODING 396
SWIDTH 612 0
DWIDTH 15 0
BBX 12 18 1 0
BITMAP
3FF0
3FF0
0030
0030
0F30
3FB0
70F0
6070
6030
E030
E030
E030
E030
6030
6070
70F0
3FB0
0F30
ENDCHAR
STARTCHAR deltaturn
ENCODING 397
SWIDTH 542 0
DWIDTH 14 0
BBX 12 19 1 -5
BITMAP
1F00
3FC0
70E0
60E0
E060
C070
C070
C070
C070
E060
60E0
71C0
3F80
1C00
0E00
0700
0380
7FC0
7FC0
ENDCHAR
STARTCHAR Eturn
ENCODING 398
SWIDTH 601 0
DWIDTH 15 0
BBX 11 18 2 0
BITMAP
FFE0
FFE0
0060
0060
0060
0060
0060
0060
FFE0
FFE0
0060
0060
0060
0060
0060
0060
FFE0
FFE0
ENDCHAR
STARTCHAR uni018F
ENCODING 399
SWIDTH 746 0
DWIDTH 19 0
BBX 15 18 2 0
BITMAP
0FC0
3FF0
7878
E01C
E00C
C00E
0006
0006
0006
FFFE
FFFE
C006
C00E
C00C
E01C
7838
3FF0
0FC0
ENDCHAR
STARTCHAR Epsilon1
ENCODING 400
SWIDTH 617 0
DWIDTH 15 0
BBX 13 18 1 0
BITMAP
0F80
3FE0
3870
7030
6008
7000
3800
1F00
1F00
7800
6000
6000
E000
6038
6038
7870
3FE0
0F80
ENDCHAR
STARTCHAR uni0191
ENCODING 401
SWIDTH 590 0
DWIDTH 15 0
BBX 13 23 0 -5
BITMAP
3FF8
3FF8
3800
3800
3800
3800
3800
3800
3FF0
3FF0
3800
3800
3800
3800
3800
3800
3800
3800
3800
3800
3000
F000
E000
ENDCHAR
STARTCHAR florin
ENCODING 402
SWIDTH 389 0
DWIDTH 10 0
BBX 9 24 0 -5
BITMAP
0100
0F80
0F80
1C00
1C00
7F00
7F00
1C00
1C00
1C00
1C00
1C00
1C00
1C00
1C00
1C00
1C00
1C00
1C00
1C00
1C00
1800
F800
F000
ENDCHAR
STARTCHAR uni0193
ENCODING 403
SWIDTH 746 0
DWIDTH 19 0
BBX 19 21 1 0
BITMAP
0001E0
0003E0
000300
03E300
0FFB00
1C1F00
380F00
700700
600700
600000
600000
E00000
E07F00
607F00
600300
600300
700700
380E00
1C1E00
0FFC00
03F000
ENDCHAR
STARTCHAR Gamma1
ENCODING 404
SWIDTH 635 0
DWIDTH 16 0
BBX 16 23 0 -5
BITMAP
E007
600E
700E
300C
381C
1818
1C38
0C30
0C70
0E60
0660
07E0
03C0
03C0
0180
0380
03C0
07C0
0660
0660
0660
07E0
03C0
ENDCHAR
STARTCHAR uni0195
ENCODING 405
SWIDTH 951 0
DWIDTH 24 0
BBX 20 18 2 0
BITMAP
C00000
C00000
C00000
C00000
CF8030
DFC030
F1E030
E0E030
C06030
C06070
C06070
C06060
C06060
C060E0
C060C0
C071C0
C03F80
C01F00
ENDCHAR
STARTCHAR Iota
ENCODING 406
SWIDTH 275 0
DWIDTH 7 0
BBX 4 18 2 0
BITMAP
C0
C0
C0
C0
C0
C0
C0
C0
C0
C0
C0
C0
C0
C0
C0
C0
F0
70
ENDCHAR
STARTCHAR uni0197
ENCODING 407
SWIDTH 336 0
DWIDTH 8 0
BBX 8 18 0 0
BITMAP
18
18
18
18
18
18
18
18
FF
FF
18
18
18
18
18
18
18
18
ENDCHAR
STARTCHAR uni0198
ENCODING 408
SWIDTH 678 0
DWIDTH 17 0
BBX 15 18 2 0
BITMAP
E01E
E03C
E070
E0E0
E1C0
E380
E700
EE00
FC00
FE00
F700
E380
E1C0
E0C0
E0E0
E070
E038
E01C
ENDCHAR
STARTCHAR uni0199
ENCODING 409
SWIDTH 548 0
DWIDTH 14 0
BBX 11 18 2 0
BITMAP
7800
F800
C000
C000
C0E0
C1C0
C380
C700
CE00
DC00
FC00
FC00
EE00
C700
C380
C180
C1C0
C0E0
ENDCHAR
STARTCHAR uni019A
ENCODING 410
SWIDTH 242 0
DWIDTH 6 0
BBX 8 18 -1 0
BITMAP
18
18
18
18
18
18
18
18
FF
FF
18
18
18
18
18
18
18
18
ENDCHAR
STARTCHAR lambdabar
ENCODING 411
SWIDTH 641 0
DWIDTH 16 0
BBX 15 18 1 0
BITMAP
7000
7C80
0F00
3E00
3600
0600
0F00
0F00
1D80
1980
1980
30C0
30C0
70E0
6060
6070
E03C
C01E
ENDCHAR
STARTCHAR mcapturn
ENCODING 412
SWIDTH 907 0
DWIDTH 23 0
BBX 19 18 2 0
BITMAP
E0E0E0
E0E0E0
E0E0E0
E0E0E0
E0E0E0
E0E0E0
E0E0E0
E0E0E0
E0E0E0
E0E0E0
E0E0E0
E0E0E0
E0E0E0
E0E0E0
E0E0E0
E1F1E0
7F7FE0
3E3EE0
ENDCHAR
STARTCHAR Nhook
ENCODING 413
SWIDTH 753 0
DWIDTH 19 0
BBX 17 23 0 -5
BITMAP
380380
3C0380
3E0380
360380
370380
330380
338380
39C380
38C380
38E380
387380
383380
383B80
381F80
380F80
380F80
380780
380380
380000
380000
300000
F00000
E00000
ENDCHAR
STARTCHAR uni019E
ENCODING 414
SWIDTH 591 0
DWIDTH 15 0
BBX 11 19 2 -5
BITMAP
CF00
DFC0
F1C0
E0E0
C060
C060
C060
C060
C060
C060
C060
C060
C060
C060
0060
0060
0060
0060
0060
ENDCHAR
STARTCHAR Obar
ENCODING 415
SWIDTH 764 0
DWIDTH 19 0
BBX 17 18 1 0
BITMAP
03E000
0FF800
1C1C00
380E00
700700
600300
600300
600380
FFFF80
FFFF80
600380
600300
600300
700700
380E00
1C1C00
0FF800
03F000
ENDCHAR
STARTCHAR Ohorn
ENCODING 416
SWIDTH 761 0
DWIDTH 19 0
BBX 17 20 1 0
BITMAP
000380
000380
03FF80
0FFF00
1C1C00
380E00
700700
600300
600300
600380
E00380
E00380
600380
600300
600300
700700
380E00
1C1C00
0FF800
03F000
ENDCHAR
STARTCHAR ohorn
ENCODING 417
SWIDTH 596 0
DWIDTH 15 0
BBX 13 17 1 0
BITMAP
0018
0018
0018
0FF8
3FF8
38E0
6030
6030
E038
E038
E038
E038
6030
6030
38F0
3FE0
0F80
ENDCHAR
STARTCHAR OI
ENCODING 418
SWIDTH 871 0
DWIDTH 22 0
BBX 19 23 1 -5
BITMAP
07E1E0
1FFFE0
3C1FE0
380CE0
700CE0
600CE0
600CE0
E00CE0
E00CE0
E00CE0
E00CE0
600CE0
600CE0
700CE0
380CE0
3C1CE0
1FF8E0
07E0E0
0000E0
0000E0
0000E0
0000E0
0000E0
ENDCHAR
STARTCHAR uni01A3
ENCODING 419
SWIDTH 638 0
DWIDTH 16 0
BBX 14 19 1 -5
BITMAP
1F1C
3FFC
71FC
E0EC
E0CC
C0CC
C0CC
C0CC
C0CC
E0CC
E0CC
70CC
3FCC
1F0C
000C
000C
000C
000C
000C
ENDCHAR
STARTCHAR uni01A4
ENCODING 420
SWIDTH 775 0
DWIDTH 19 0
BBX 17 18 1 0
BITMAP
7FFC00
FFFE00
C60700
C60380
060180
060180
060180
060380
060700
07FE00
07FC00
060000
060000
060000
060000
060000
060000
060000
ENDCHAR
STARTCHAR uni01A5
ENCODING 421
SWIDTH 612 0
DWIDTH 15 0
BBX 12 23 2 -5
BITMAP
7800
F800
C000
C000
CF80
DFC0
F0E0
E060
C070
C030
C030
C030
C030
E070
E060
F0E0
DFC0
CF80
C000
C000
C000
C000
C000
ENDCHAR
STARTCHAR YR
ENCODING 422
SWIDTH 725 0
DWIDTH 18 0
BBX 16 24 1 -4
BITMAP
E000
E000
FFC0
FFE0
E070
E030
E038
E038
E030
E070
FFE0
FF80
E1C0
E1C0
E0E0
E0E0
E070
E070
E038
E038
001C
001C
000E
000F
ENDCHAR
STARTCHAR uni01A7
ENCODING 423
SWIDTH 641 0
DWIDTH 16 0
BBX 14 18 1 0
BITMAP
0FC0
3FE0
7870
6038
6018
0018
0038
00F0
0FE0
3F00
7800
6000
E000
E01C
6018
7878
3FF0
0FC0
ENDCHAR
STARTCHAR uni01A8
ENCODING 424
SWIDTH 527 0
DWIDTH 13 0
BBX 11 14 1 0
BITMAP
1F00
3F80
71C0
E0C0
00C0
01C0
1F80
7E00
7000
E000
E060
70C0
7FC0
1F00
ENDCHAR
STARTCHAR uni01A9
ENCODING 425
SWIDTH 630 0
DWIDTH 16 0
BBX 14 18 1 0
BITMAP
7FFC
7FFC
3000
1800
0C00
0E00
0700
0380
00C0
01C0
0380
0700
0E00
1C00
3800
7000
FFFC
FFFC
ENDCHAR
STARTCHAR eshlooprev
ENCODING 426
SWIDTH 546 0
DWIDTH 14 0
BBX 11 24 1 -5
BITMAP
0800
3E00
7F00
E380
E380
6380
7F80
3F80
0380
0380
0380
0380
0380
0380
0380
0380
0380
0380
0380
0380
0380
0180
01E0
00E0
ENDCHAR
STARTCHAR uni01AB
ENCODING 427
SWIDTH 327 0
DWIDTH 8 0
BBX 8 23 0 -5
BITMAP
38
38
38
38
FE
FE
38
38
38
38
38
38
38
38
38
38
1E
0F
03
03
03
1F
1C
ENDCHAR
STARTCHAR uni01AC
ENCODING 428
SWIDTH 647 0
DWIDTH 16 0
BBX 14 18 1 0
BITMAP
7FFC
FFFC
C300
C300
C300
0300
0300
0300
0300
0300
0300
0300
0300
0300
0300
0300
0300
0300
ENDCHAR
STARTCHAR uni01AD
ENCODING 429
SWIDTH 322 0
DWIDTH 8 0
BBX 8 18 0 0
BITMAP
0E
1E
38
38
FE
FE
38
30
30
30
30
30
30
30
30
38
1E
0F
ENDCHAR
STARTCHAR Trthook
ENCODING 430
SWIDTH 645 0
DWIDTH 16 0
BBX 14 23 1 -5
BITMAP
FFFC
FFFC
0300
0300
0300
0300
0300
0300
0300
0300
0300
0300
0300
0300
0300
0300
0300
0300
0300
0300
0300
03E0
01E0
ENDCHAR
STARTCHAR Uhorn
ENCODING 431
SWIDTH 741 0
DWIDTH 19 0
BBX 17 21 2 0
BITMAP
000180
000180
000180
E00F00
E00C00
E00C00
E00C00
E00C00
E00C00
E00C00
E00C00
E00C00
E00C00
E00C00
E00C00
E00C00
E00C00
701C00
783800
3FF000
0FC000
ENDCHAR
STARTCHAR uhorn
ENCODING 432
SWIDTH 619 0
DWIDTH 15 0
BBX 13 17 2 0
BITMAP
0018
0018
0018
C078
C070
C060
C060
C060
C060
C060
C060
C060
C0E0
E0E0
E1E0
7F60
3E60
ENDCHAR
STARTCHAR Upsilon2
ENCODING 433
SWIDTH 765 0
DWIDTH 19 0
BBX 17 18 1 0
BITMAP
FE3F80
FE3F80
0E3800
1C0E00
300600
700700
600300
600300
E00380
E00380
600380
600300
600300
700700
380E00
1C1C00
0FF800
03F000
ENDCHAR
STARTCHAR Vcursive
ENCODING 434
SWIDTH 634 0
DWIDTH 16 0
BBX 13 18 1 0
BITMAP
E0F0
E0F8
E038
E018
E018
E018
E018
E018
E018
E018
E018
E018
E018
6018
7038
7878
3FF0
0FC0
ENDCHAR
STARTCHAR uni01B3
ENCODING 435
SWIDTH 712 0
DWIDTH 18 0
BBX 16 18 1 0
BITMAP
E007
600F
701C
3018
3830
1C70
0C60
0EE0
07C0
0380
0380
0380
0380
0380
0380
0380
0380
0380
ENDCHAR
STARTCHAR uni01B4
ENCODING 436
SWIDTH 678 0
DWIDTH 17 0
BBX 16 23 1 -5
BITMAP
000F
001F
0018
0038
C030
E030
6070
6060
7060
30E0
30C0
39C0
1980
1980
0F80
0F00
0F00
0600
0600
0E00
0C00
7C00
7000
ENDCHAR
STARTCHAR Zbar
ENCODING 437
SWIDTH 628 0
DWIDTH 16 0
BBX 13 18 1 0
BITMAP
FFF8
FFF8
0038
0070
0060
00E0
01C0
0180
3FF0
3FF0
0600
0C00
1C00
1800
3000
7000
7FF8
7FF8
ENDCHAR
STARTCHAR zbar
ENCODING 438
SWIDTH 552 0
DWIDTH 14 0
BBX 10 14 2 0
BITMAP
FFC0
FFC0
0180
0380
0700
0600
7F80
7F80
3800
3000
7000
E000
FFC0
FFC0
ENDCHAR
STARTCHAR uni01B7
ENCODING 439
SWIDTH 684 0
DWIDTH 17 0
BBX 15 23 1 -5
BITMAP
7FFC
7FFC
0018
0030
0060
00C0
0180
0300
07C0
07F0
0078
001C
000C
000C
000E
000E
000E
E00C
E00C
701C
3838
1FF0
0FC0
ENDCHAR
STARTCHAR uni01B8
ENCODING 440
SWIDTH 684 0
DWIDTH 17 0
BBX 15 23 1 -5
BITMAP
7FFC
7FFC
3000
1C00
0E00
0700
0380
01C0
07C0
1FC0
3C00
7000
7000
6000
E000
E000
E000
600E
600E
701C
383C
1FF0
07E0
ENDCHAR
STARTCHAR uni01B9
ENCODING 441
SWIDTH 620 0
DWIDTH 16 0
BBX 13 19 1 -5
BITMAP
7FF0
7FF0
3800
1800
1C00
0E00
0700
0380
0F80
3F80
7800
7000
6000
E000
6018
6038
7070
3FE0
0FC0
ENDCHAR
STARTCHAR uni01BA
ENCODING 442
SWIDTH 541 0
DWIDTH 14 0
BBX 11 19 1 -5
BITMAP
7FE0
7FE0
01C0
0380
0700
0E00
1F80
1FC0
00C0
00C0
01C0
1F80
7F00
F000
E000
E0E0
E1C0
7FC0
1F00
ENDCHAR
STARTCHAR uni01BB
ENCODING 443
SWIDTH 609 0
DWIDTH 15 0
BBX 11 18 2 0
BITMAP
1F00
3FC0
70C0
E060
C060
0060
0060
00E0
01C0
3FE0
3FE0
0600
0C00
1800
3800
7000
FFE0
FFE0
ENDCHAR
STARTCHAR uni01BC
ENCODING 444
SWIDTH 623 0
DWIDTH 16 0
BBX 13 18 1 0
BITMAP
FFF0
FFF0
3800
3000
3000
3000
37C0
3FE0
3870
0038
0018
0018
0018
7018
3038
3870
1FE0
0FC0
ENDCHAR
STARTCHAR uni01BD
ENCODING 445
SWIDTH 544 0
DWIDTH 14 0
BBX 11 14 1 0
BITMAP
FFE0
FFE0
3800
3000
3000
3780
3FE0
30E0
0060
0060
7060
70E0
3FC0
0F80
ENDCHAR
STARTCHAR glottalstopbarinv
ENCODING 446
SWIDTH 542 0
DWIDTH 14 0
BBX 11 17 1 0
BITMAP
0E00
0E00
0E00
3F80
3F80
0E00
0E00
0E00
0E00
0780
03C0
00E0
E0E0
6060
70E0
3FC0
1F80
ENDCHAR
STARTCHAR uni01BF
ENCODING 447
SWIDTH 633 0
DWIDTH 16 0
BBX 12 19 2 -5
BITMAP
EF80
FFC0
F1E0
E0E0
E060
E070
E070
E070
E070
E060
E0E0
E1C0
E3C0
EF00
FE00
F000
E000
E000
E000
ENDCHAR
STARTCHAR pipe
ENCODING 448
SWIDTH 266 0
DWIDTH 7 0
BBX 2 18 2 0
BITMAP
C0
C0
C0
C0
C0
C0
C0
C0
C0
C0
C0
C0
C0
C0
C0
C0
C0
C0
ENDCHAR
STARTCHAR pipedbl
ENCODING 449
SWIDTH 358 0
DWIDTH 9 0
BBX 5 18 2 0
BITMAP
D8
D8
D8
D8
D8
D8
D8
D8
D8
D8
D8
D8
D8
D8
D8
D8
D8
D8
ENDCHAR
STARTCHAR pipedblbar
ENCODING 450
SWIDTH 242 0
DWIDTH 6 0
BBX 8 18 -1 0
BITMAP
18
18
18
18
18
FF
FF
18
18
18
18
FF
FF
18
18
18
18
18
ENDCHAR
STARTCHAR exclam1
ENCODING 451
SWIDTH 287 0
DWIDTH 7 0
BBX 3 18 2 0
BITMAP
E0
E0
E0
E0
E0
E0
E0
E0
E0
E0
E0
E0
00
00
00
E0
E0
E0
ENDCHAR
STARTCHAR Dzcaron_
ENCODING 453
SWIDTH 1273 0
DWIDTH 32 0
BBX 28 20 2 0
BITMAP
00001860
00000CC0
FF800780
FFE00700
E0700000
E0380000
E01C3FF0
E00C3FF0
E00C0060
E00C00E0
E00E01C0
E00E0180
E00C0380
E00C0700
E00C0E00
E01C0C00
E0381C00
E0703800
FFE03FF0
FF803FF0
ENDCHAR
STARTCHAR uni01C6
ENCODING 454
SWIDTH 1164 0
DWIDTH 29 0
BBX 27 20 1 0
BITMAP
00006180
00003300
00301E00
00300E00
00300000
00300000
0F30FFC0
3FB0FFC0
70F001C0
60700380
60300300
E0300700
E0300E00
E0301C00
E0301800
60303800
60707000
70F06000
3FB0FFE0
0F30FFE0
ENDCHAR
STARTCHAR uni01C7
ENCODING 455
SWIDTH 1136 0
DWIDTH 28 0
BBX 24 18 2 0
BITMAP
E00003
E00003
E00003
E00003
E00003
E00003
E00003
E00003
E00003
E00003
E00003
E00003
E00703
E00703
E00307
E00387
FFE1FE
FFE0F8
ENDCHAR
STARTCHAR uni01C8
ENCODING 456
SWIDTH 807 0
DWIDTH 20 0
BBX 17 24 2 -5
BITMAP
000300
E00380
E00300
E00000
E00000
E00300
E00300
E00300
E00300
E00300
E00300
E00300
E00300
E00300
E00300
E00300
E00300
FFE300
FFE300
000300
000300
000700
000F00
000E00
ENDCHAR
STARTCHAR uni01C9
ENCODING 457
SWIDTH 484 0
DWIDTH 12 0
BBX 9 24 2 -5
BITMAP
0300
C380
C300
C000
C000
C300
C300
C300
C300
C300
C300
C300
C300
C300
C300
C300
C300
C300
C300
0300
0300
0700
0F00
0C00
ENDCHAR
STARTCHAR uni01CA
ENCODING 458
SWIDTH 1324 0
DWIDTH 33 0
BBX 29 18 2 0
BITMAP
E00E0018
F00E0018
F80E0018
D80E0018
DC0E0018
CC0E0018
CE0E0018
E70E0018
E30E0018
E38E0018
E1CE0018
E0CE0018
E0EE3018
E07E3038
E03E3838
E03E1C70
E01E1FF0
E00E07C0
ENDCHAR
STARTCHAR uni01CB
ENCODING 459
SWIDTH 995 0
DWIDTH 25 0
BBX 21 24 2 -5
BITMAP
000018
E00E38
F00E18
F80E00
D80E00
DC0E18
CC0E18
CE0E18
E70E18
E30E18
E38E18
E1CE18
E0CE18
E0EE18
E07E18
E03E18
E03E18
E01E18
E00E18
000018
000018
000038
000070
000060
ENDCHAR
STARTCHAR uni01CC
ENCODING 460
SWIDTH 833 0
DWIDTH 21 0
BBX 17 24 2 -5
BITMAP
000180
000380
000180
000000
000000
CF0180
DFC180
F1C180
E0E180
C06180
C06180
C06180
C06180
C06180
C06180
C06180
C06180
C06180
C06180
000180
000180
000380
000F00
000E00
ENDCHAR
STARTCHAR uni01CD
ENCODING 461
SWIDTH 689 0
DWIDTH 17 0
BBX 16 25 1 0
BITMAP
0C70
0660
06C0
0380
0000
0000
0000
0380
0380
06C0
06C0
06E0
0C60
0C60
1C70
1830
1830
3838
3FF8
3FFC
700C
600C
600E
E006
C007
ENDCHAR
STARTCHAR uni01CE
ENCODING 462
SWIDTH 561 0
DWIDTH 14 0
BBX 11 20 1 0
BITMAP
30C0
1980
0F00
0E00
0000
0000
1F80
3FC0
70E0
E060
0060
00E0
1FE0
7E60
E060
C060
C0E0
E1E0
7F60
3E60
ENDCHAR
STARTCHAR uni01CF
ENCODING 463
SWIDTH 268 0
DWIDTH 7 0
BBX 8 25 -1 0
BITMAP
E3
67
36
1C
00
00
00
1C
1C
1C
1C
1C
1C
1C
1C
1C
1C
1C
1C
1C
1C
1C
1C
1C
1C
ENDCHAR
STARTCHAR uni01D0
ENCODING 464
SWIDTH 242 0
DWIDTH 6 0
BBX 8 20 -1 0
BITMAP
C3
66
3C
1C
00
00
18
18
18
18
18
18
18
18
18
18
18
18
18
18
ENDCHAR
STARTCHAR uni01D1
ENCODING 465
SWIDTH 764 0
DWIDTH 19 0
BBX 17 25 1 0
BITMAP
063000
073000
036000
01C000
000000
000000
000000
03E000
0FF800
1C1C00
380E00
700700
600300
600300
600380
E00380
E00380
600380
600300
600300
700700
380E00
1C1C00
0FF800
03F000
ENDCHAR
STARTCHAR uni01D2
ENCODING 466
SWIDTH 599 0
DWIDTH 15 0
BBX 13 20 1 0
BITMAP
18C0
1DC0
0D80
0700
0000
0000
0F80
3FE0
38E0
6030
6030
E038
E038
E038
E038
6030
6030
38E0
3FE0
0F80
ENDCHAR
STARTCHAR uni01D3
ENCODING 467
SWIDTH 744 0
DWIDTH 19 0
BBX 14 25 2 0
BITMAP
1C60
0CC0
07C0
0380
0000
0000
0000
E00C
E00C
E00C
E00C
E00C
E00C
E00C
E00C
E00C
E00C
E00C
E00C
E00C
E00C
701C
7838
3FF0
0FC0
ENDCHAR
STARTCHAR uni01D4
ENCODING 468
SWIDTH 591 0
DWIDTH 15 0
BBX 11 20 2 0
BITMAP
7180
3380
1B00
0E00
0000
0000
C060
C060
C060
C060
C060
C060
C060
C060
C060
C0E0
E0E0
E1E0
7F60
3E60
ENDCHAR
STARTCHAR uni01D5
ENCODING 469
SWIDTH 744 0
DWIDTH 19 0
BBX 14 27 2 0
BITMAP
0FE0
0FE0
0000
0000
0C60
1CE0
0C60
0000
0000
E00C
E00C
E00C
E00C
E00C
E00C
E00C
E00C
E00C
E00C
E00C
E00C
E00C
E00C
701C
7838
3FF0
0FC0
ENDCHAR
STARTCHAR uni01D6
ENCODING 470
SWIDTH 591 0
DWIDTH 15 0
BBX 11 22 2 0
BITMAP
3F80
3F80
0000
0000
3180
7180
3180
0000
C060
C060
C060
C060
C060
C060
C060
C060
C060
C0E0
E0E0
E1E0
7F60
3E60
ENDCHAR
STARTCHAR uni01D7
ENCODING 471
SWIDTH 744 0
DWIDTH 19 0
BBX 14 28 2 0
BITMAP
00E0
00C0
0180
0380
0000
0C60
1CE0
0C60
0000
0000
E00C
E00C
E00C
E00C
E00C
E00C
E00C
E00C
E00C
E00C
E00C
E00C
E00C
E00C
701C
7838
3FF0
0FC0
ENDCHAR
STARTCHAR uni01D8
ENCODING 472
SWIDTH 591 0
DWIDTH 15 0
BBX 11 23 2 0
BITMAP
0380
0300
0600
0E00
0000
3180
7180
3180
0000
C060
C060
C060
C060
C060
C060
C060
C060
C060
C0E0
E0E0
E1E0
7F60
3E60
ENDCHAR
STARTCHAR uni01D9
ENCODING 473
SWIDTH 744 0
DWIDTH 19 0
BBX 14 28 2 0
BITMAP
1C60
0CE0
06C0
0380
0000
0C60
1CE0
0C60
0000
0000
E00C
E00C
E00C
E00C
E00C
E00C
E00C
E00C
E00C
E00C
E00C
E00C
E00C
E00C
701C
7838
3FF0
0FC0
ENDCHAR
STARTCHAR uni01DA
ENCODING 474
SWIDTH 591 0
DWIDTH 15 0
BBX 11 23 2 0
BITMAP
3180
3B80
1B00
0E00
0000
3180
7180
3180
0000
C060
C060
C060
C060
C060
C060
C060
C060
C060
C0E0
E0E0
E1E0
7F60
3E60
ENDCHAR
STARTCHAR uni01DB
ENCODING 475
SWIDTH 744 0
DWIDTH 19 0
BBX 14 28 2 0
BITMAP
0E00
0600
0300
0000
0000
0C60
1CE0
0C60
0000
0000
E00C
E00C
E00C
E00C
E00C
E00C
E00C
E00C
E00C
E00C
E00C
E00C
E00C
E00C
701C
7838
3FF0
0FC0
ENDCHAR
STARTCHAR uni01DC
ENCODING 476
SWIDTH 591 0
DWIDTH 15 0
BBX 11 23 2 0
BITMAP
3800
1800
0C00
0000
0000
3180
7180
3180
0000
C060
C060
C060
C060
C060
C060
C060
C060
C060
C0E0
E0E0
E1E0
7F60
3E60
ENDCHAR
STARTCHAR eturn
ENCODING 477
SWIDTH 583 0
DWIDTH 15 0
BBX 12 14 1 0
BITMAP
1F80
3FC0
70E0
E070
0030
0030
FFF0
FFF0
E030
E030
6070
70E0
3FC0
0F80
ENDCHAR
STARTCHAR uni01DE
ENCODING 478
SWIDTH 689 0
DWIDTH 17 0
BBX 16 27 1 0
BITMAP
0FE0
0FE0
0000
0000
0C60
0E70
0C60
0000
0000
0380
0380
06C0
06C0
06E0
0C60
0C60
1C70
1830
1830
3838
3FF8
3FFC
700C
600C
600E
E006
C007
ENDCHAR
STARTCHAR uni01DF
ENCODING 479
SWIDTH 561 0
DWIDTH 14 0
BBX 11 22 1 0
BITMAP
3F80
3F80
0000
0000
31C0
39C0
3180
0000
1F80
3FC0
70E0
E060
0060
00E0
1FE0
7E60
E060
C060
C0E0
E1E0
7F60
3E60
ENDCHAR
STARTCHAR uni01E0
ENCODING 480
SWIDTH 689 0
DWIDTH 17 0
BBX 16 27 1 0
BITMAP
0FE0
0FE0
0000
0000
0180
0380
0180
0000
0000
0380
0380
06C0
06C0
06E0
0C60
0C60
1C70
1830
1830
3838
3FF8
3FFC
700C
600C
600E
E006
C007
ENDCHAR
STARTCHAR uni01E1
ENCODING 481
SWIDTH 561 0
DWIDTH 14 0
BBX 11 22 1 0
BITMAP
3F80
3F80
0000
0000
0600
0E00
0600
0000
1F80
3FC0
70E0
E060
0060
00E0
1FE0
7E60
E060
C060
C0E0
E1E0
7F60
3E60
ENDCHAR
STARTCHAR uni01E2
ENCODING 482
SWIDTH 993 0
DWIDTH 25 0
BBX 22 24 1 0
BITMAP
000FE0
000FE0
000000
000000
000000
000000
00FFFC
00DFFC
019800
019800
039800
031800
071800
061800
0E1FFC
0C1FFC
1C1800
1FF800
3FF800
301800
701800
601800
E01FFC
C01FFC
ENDCHAR
STARTCHAR uni01E3
ENCODING 483
SWIDTH 917 0
DWIDTH 23 0
BBX 21 19 1 0
BITMAP
01FC00
01FC00
000000
000000
000000
1F0F80
3FDFE0
70F870
E07030
006030
006038
1FFFF8
7FFFF8
E06000
C06000
C0F038
E1F870
7F9FE0
3E0FC0
ENDCHAR
STARTCHAR Gbar
ENCODING 484
SWIDTH 746 0
DWIDTH 19 0
BBX 17 18 1 0
BITMAP
03E000
0FF800
1C1C00
380E00
700700
600700
600000
600000
E00000
E07F00
607F00
600300
607F80
707F80
380E00
1C1E00
0FFC00
03F000
ENDCHAR
STARTCHAR gbar
ENCODING 485
SWIDTH 671 0
DWIDTH 17 0
BBX 15 19 1 -5
BITMAP
0F30
3FB0
78F0
6070
6030
E030
E1FE
E1FE
E030
6030
6070
70F0
3FB0
0F30
0030
2030
7070
3FE0
1F80
ENDCHAR
STARTCHAR Gcaron
ENCODING 486
SWIDTH 746 0
DWIDTH 19 0
BBX 16 25 1 0
BITMAP
0630
0770
0360
01C0
0000
0000
0000
03E0
0FF8
1C1C
380E
7007
6007
6000
6000
E000
E07F
607F
6003
6003
7007
380E
1C1E
0FFC
03F0
ENDCHAR
STARTCHAR gcaron
ENCODING 487
SWIDTH 613 0
DWIDTH 15 0
BBX 12 25 1 -5
BITMAP
38C0
19C0
0D80
0700
0000
0000
0F30
3FB0
78F0
6070
6030
E030
E030
E030
E030
6030
6070
70F0
3FB0
0F30
0030
2030
7070
3FE0
1F80
ENDCHAR
STARTCHAR uni01E8
ENCODING 488
SWIDTH 671 0
DWIDTH 17 0
BBX 14 25 2 0
BITMAP
18E0
1CC0
0D80
0700
0000
0000
0000
E01C
E038
E070
E0E0
E1C0
E380
E700
EE00
FE00
FF00
F380
E180
E1C0
E0E0
E070
E030
E038
E01C
ENDCHAR
STARTCHAR uni01E9
ENCODING 489
SWIDTH 548 0
DWIDTH 14 0
BBX 14 25 -1 0
BITMAP
C300
6600
3C00
1C00
0000
0000
0000
1800
1800
1800
1800
181C
1838
1870
18E0
19C0
1B80
1F80
1F80
1DC0
18E0
1870
1830
1838
181C
ENDCHAR
STARTCHAR uni01EA
ENCODING 490
SWIDTH 764 0
DWIDTH 19 0
BBX 17 23 1 -5
BITMAP
03E000
0FF800
1C1C00
380E00
700700
600300
600300
600380
E00380
E00380
600380
600300
600300
700700
380E00
1C1C00
0FF800
03F000
00C000
018000
038000
01E000
01F000
ENDCHAR
STARTCHAR uni01EB
ENCODING 491
SWIDTH 599 0
DWIDTH 15 0
BBX 13 19 1 -5
BITMAP
0F80
3FE0
38E0
6030
6030
E038
E038
E038
E038
6030
6030
38E0
3FE0
0F80
0700
0600
0E00
0780
0780
ENDCHAR
STARTCHAR uni01EC
ENCODING 492
SWIDTH 764 0
DWIDTH 19 0
BBX 17 29 1 -5
BITMAP
07F000
07F000
000000
000000
000000
000000
03E000
0FF800
1C1C00
380E00
700700
600300
600300
600380
E00380
E00380
600380
600300
600300
700700
380E00
1C1C00
0FF800
03F000
00C000
018000
038000
01E000
01F000
ENDCHAR
STARTCHAR uni01ED
ENCODING 493
SWIDTH 599 0
DWIDTH 15 0
BBX 13 24 1 -5
BITMAP
1FC0
1FC0
0000
0000
0000
0F80
3FE0
38E0
6030
6030
E038
E038
E038
E038
6030
6030
38E0
3FE0
0F80
0700
0600
0E00
0780
0780
ENDCHAR
STARTCHAR uni01EE
ENCODING 494
SWIDTH 684 0
DWIDTH 17 0
BBX 15 30 1 -5
BITMAP
0C60
0EE0
06C0
0380
0000
0000
0000
7FFC
7FFC
0018
0030
0060
00C0
0180
0300
07C0
07F0
0078
001C
000C
000C
000E
000E
000E
E00C
E00C
701C
3838
1FF0
0FC0
ENDCHAR
STARTCHAR uni01EF
ENCODING 495
SWIDTH 620 0
DWIDTH 16 0
BBX 12 25 2 -5
BITMAP
31C0
1980
1F00
0E00
0000
0000
0000
FFE0
FFE0
00C0
0180
0300
0600
0C00
0F80
0FC0
00E0
0070
0030
0030
C030
C070
E0E0
7FC0
1F00
ENDCHAR
STARTCHAR uni01F0
ENCODING 496
SWIDTH 242 0
DWIDTH 6 0
BBX 8 25 -1 -5
BITMAP
C3
66
3C
1C
00
00
18
18
18
18
18
18
18
18
18
18
18
18
18
18
18
18
38
70
60
ENDCHAR
STARTCHAR uni01F1
ENCODING 497
SWIDTH 1350 0
DWIDTH 34 0
BBX 30 18 2 0
BITMAP
FF803FFC
FFE03FFC
E070001C
E0380038
E01C0030
E00C0070
E00C00E0
E00C00C0
E00E01C0
E00E0380
E00C0300
E00C0600
E00C0E00
E01C0C00
E0381800
E0703800
FFE03FFC
FF803FFC
ENDCHAR
STARTCHAR uni01F2
ENCODING 498
SWIDTH 1273 0
DWIDTH 32 0
BBX 28 18 2 0
BITMAP
FF800000
FFE00000
E0700000
E0380000
E01C3FF0
E00C3FF0
E00C0060
E00C00E0
E00E01C0
E00E0180
E00C0380
E00C0700
E00C0E00
E01C0C00
E0381C00
E0703800
FFE03FF0
FF803FF0
ENDCHAR
STARTCHAR uni01F3
ENCODING 499
SWIDTH 1164 0
DWIDTH 29 0
BBX 27 18 1 0
BITMAP
00300000
00300000
00300000
00300000
0F30FFC0
3FB0FFC0
70F001C0
60700380
60300300
E0300700
E0300E00
E0301C00
E0301800
60303800
60707000
70F06000
3FB0FFE0
0F30FFE0
ENDCHAR
STARTCHAR uni01F4
ENCODING 500
SWIDTH 746 0
DWIDTH 19 0
BBX 16 25 1 0
BITMAP
0070
0060
00C0
00C0
0000
0000
0000
03E0
0FF8
1C1C
380E
7007
6007
6000
6000
E000
E07F
607F
6003
6003
7007
380E
1C1E
0FFC
03F0
ENDCHAR
STARTCHAR uni01F5
ENCODING 501
SWIDTH 613 0
DWIDTH 15 0
BBX 12 25 1 -5
BITMAP
01C0
0180
0300
0700
0000
0000
0F30
3FB0
78F0
6070
6030
E030
E030
E030
E030
6030
6070
70F0
3FB0
0F30
0030
2030
7070
3FE0
1F80
ENDCHAR
STARTCHAR uni01F6
ENCODING 502
SWIDTH 1118 0
DWIDTH 28 0
BBX 24 18 2 0
BITMAP
E00C00
E00C00
E00C00
E00C00
E00C03
E00C03
E00C03
E00C03
FFFC03
FFFC03
E00C03
E00C03
E00C03
E00E03
E00E07
E0070E
E003FC
E001F8
ENDCHAR
STARTCHAR uni01F7
ENCODING 503
SWIDTH 635 0
DWIDTH 16 0
BBX 14 23 1 -5
BITMAP
FF80
FFE0
F070
E038
E038
E018
E018
E01C
E018
E018
E018
E038
E038
E070
E0F0
E1E0
E3C0
EF00
FE00
F800
E000
E000
E000
ENDCHAR
STARTCHAR uni01F8
ENCODING 504
SWIDTH 753 0
DWIDTH 19 0
BBX 15 25 2 0
BITMAP
0E00
0600
0300
0300
0000
0000
0000
E00E
F00E
F80E
D80E
DC0E
CC0E
CE0E
E70E
E30E
E38E
E1CE
E0CE
E0EE
E07E
E03E
E03E
E01E
E00E
ENDCHAR
STARTCHAR uni01F9
ENCODING 505
SWIDTH 590 0
DWIDTH 15 0
BBX 11 20 2 0
BITMAP
3800
1800
0C00
0C00
0000
0000
CF00
DFC0
F1C0
E0E0
C060
C060
C060
C060
C060
C060
C060
C060
C060
C060
ENDCHAR
STARTCHAR Aringacute
ENCODING 506
SWIDTH 689 0
DWIDTH 17 0
BBX 16 28 1 0
BITMAP
00E0
0180
0000
0380
07C0
0C60
0C60
07C0
0380
0000
0380
0380
06C0
06C0
06E0
0C60
0C60
1C70
1830
1830
3838
3FF8
3FFC
700C
600C
600E
E006
C007
ENDCHAR
STARTCHAR aringacute
ENCODING 507
SWIDTH 561 0
DWIDTH 14 0
BBX 11 24 1 0
BITMAP
0380
0600
0000
0F00
1F80
1980
1980
1F80
0F00
0000
1F80
3FC0
70E0
E060
0060
00E0
1FE0
7E60
E060
C060
C0E0
E1E0
7F60
3E60
ENDCHAR
STARTCHAR AEacute
ENCODING 508
SWIDTH 993 0
DWIDTH 25 0
BBX 22 25 1 0
BITMAP
0000C0
0001C0
000180
000300
000000
000000
000000
00FFFC
00DFFC
019800
019800
039800
031800
071800
061800
0E1FFC
0C1FFC
1C1800
1FF800
3FF800
301800
701800
601800
E01FFC
C01FFC
ENDCHAR
STARTCHAR aeacute
ENCODING 509
SWIDTH 917 0
DWIDTH 23 0
BBX 21 20 1 0
BITMAP
001C00
001800
003000
007000
000000
000000
1F0F80
3FDFE0
70F870
E07030
006030
006038
1FFFF8
7FFFF8
E06000
C06000
C0F038
E1F870
7F9FE0
3E0FC0
ENDCHAR
STARTCHAR Oslashacute
ENCODING 510
SWIDTH 764 0
DWIDTH 19 0
BBX 17 26 1 -1
BITMAP
007000
006000
00C000
00C000
000000
000000
000200
03E700
0FFE00
1C1C00
381E00
703F00
603300
606300
60E380
E0C380
E18380
638380
630300
660300
7E0700
3C0E00
1C1C00
3FF800
73F000
100000
ENDCHAR
STARTCHAR oslashacute
ENCODING 511
SWIDTH 599 0
DWIDTH 15 0
BBX 13 21 1 -1
BITMAP
01C0
0180
0300
0300
0000
0000
0F98
3FF0
38F0
60F0
60F0
E1B8
E338
E638
EC38
7C30
7830
38E0
7FE0
CF80
4000
ENDCHAR
STARTCHAR uni0200
ENCODING 512
SWIDTH 689 0
DWIDTH 17 0
BBX 16 25 1 0
BITMAP
3980
19C0
0CC0
0EE0
0000
0000
0000
0380
0380
06C0
06C0
06E0
0C60
0C60
1C70
1830
1830
3838
3FF8
3FFC
700C
600C
600E
E006
C007
ENDCHAR
STARTCHAR uni0201
ENCODING 513
SWIDTH 561 0
DWIDTH 14 0
BBX 11 20 1 0
BITMAP
E600
6300
3300
1980
0000
0000
1F80
3FC0
70E0
E060
0060
00E0
1FE0
7E60
E060
C060
C0E0
E1E0
7F60
3E60
ENDCHAR
STARTCHAR uni0202
ENCODING 514
SWIDTH 689 0
DWIDTH 17 0
BBX 16 25 1 0
BITMAP
0380
07E0
0C60
0C20
0000
0000
0000
0380
0380
06C0
06C0
06E0
0C60
0C60
1C70
1830
1830
3838
3FF8
3FFC
700C
600C
600E
E006
C007
ENDCHAR
STARTCHAR uni0203
ENCODING 515
SWIDTH 561 0
DWIDTH 14 0
BBX 11 20 1 0
BITMAP
0F00
1F80
3180
30C0
0000
0000
1F80
3FC0
70E0
E060
0060
00E0
1FE0
7E60
E060
C060
C0E0
E1E0
7F60
3E60
ENDCHAR
STARTCHAR uni0204
ENCODING 516
SWIDTH 601 0
DWIDTH 15 0
BBX 11 25 2 0
BITMAP
E600
6300
3300
1980
0000
0000
0000
FFE0
FFE0
E000
E000
E000
E000
E000
E000
FFE0
FFE0
E000
E000
E000
E000
E000
E000
FFE0
FFE0
ENDCHAR
STARTCHAR uni0205
ENCODING 517
SWIDTH 583 0
DWIDTH 15 0
BBX 12 20 1 0
BITMAP
6700
3300
3980
1980
0000
0000
0F80
3FC0
38E0
6070
6030
E030
FFF0
FFF0
E000
6000
6030
7070
3FE0
0F80
ENDCHAR
STARTCHAR uni0206
ENCODING 518
SWIDTH 601 0
DWIDTH 15 0
BBX 11 25 2 0
BITMAP
0F00
1F80
3180
30C0
0000
0000
0000
FFE0
FFE0
E000
E000
E000
E000
E000
E000
FFE0
FFE0
E000
E000
E000
E000
E000
E000
FFE0
FFE0
ENDCHAR
STARTCHAR uni0207
ENCODING 519
SWIDTH 583 0
DWIDTH 15 0
BBX 12 20 1 0
BITMAP
0700
1F80
18C0
10C0
0000
0000
0F80
3FC0
38E0
6070
6030
E030
FFF0
FFF0
E000
6000
6030
7070
3FE0
0F80
ENDCHAR
STARTCHAR uni0208
ENCODING 520
SWIDTH 268 0
DWIDTH 7 0
BBX 8 25 -2 0
BITMAP
CE
66
73
33
00
00
00
0E
0E
0E
0E
0E
0E
0E
0E
0E
0E
0E
0E
0E
0E
0E
0E
0E
0E
ENDCHAR
STARTCHAR uni0209
ENCODING 521
SWIDTH 242 0
DWIDTH 6 0
BBX 9 20 -3 0
BITMAP
E700
7300
3300
1980
0000
0000
0600
0600
0600
0600
0600
0600
0600
0600
0600
0600
0600
0600
0600
0600
ENDCHAR
STARTCHAR uni020A
ENCODING 522
SWIDTH 268 0
DWIDTH 7 0
BBX 7 25 0 0
BITMAP
38
FC
C6
86
00
00
00
38
38
38
38
38
38
38
38
38
38
38
38
38
38
38
38
38
38
ENDCHAR
STARTCHAR uni020B
ENCODING 523
SWIDTH 242 0
DWIDTH 6 0
BBX 8 20 -1 0
BITMAP
3C
7E
66
C3
00
00
18
18
18
18
18
18
18
18
18
18
18
18
18
18
ENDCHAR
STARTCHAR uni020C
ENCODING 524
SWIDTH 764 0
DWIDTH 19 0
BBX 17 25 1 0
BITMAP
1CC000
0CE000
066000
066000
000000
000000
000000
03E000
0FF800
1C1C00
380E00
700700
600300
600300
600380
E00380
E00380
600380
600300
600300
700700
380E00
1C1C00
0FF800
03F000
ENDCHAR
STARTCHAR uni020D
ENCODING 525
SWIDTH 599 0
DWIDTH 15 0
BBX 13 20 1 0
BITMAP
7300
3380
1980
1980
0000
0000
0F80
3FE0
38E0
6030
6030
E038
E038
E038
E038
6030
6030
38E0
3FE0
0F80
ENDCHAR
STARTCHAR uni020E
ENCODING 526
SWIDTH 764 0
DWIDTH 19 0
BBX 17 25 1 0
BITMAP
01C000
03E000
063000
061000
000000
000000
000000
03E000
0FF800
1C1C00
380E00
700700
600300
600300
600380
E00380
E00380
600380
600300
600300
700700
380E00
1C1C00
0FF800
03F000
ENDCHAR
STARTCHAR uni020F
ENCODING 527
SWIDTH 599 0
DWIDTH 15 0
BBX 13 20 1 0
BITMAP
0700
0F80
18C0
1040
0000
0000
0F80
3FE0
38E0
6030
6030
E038
E038
E038
E038
6030
6030
38E0
3FE0
0F80
ENDCHAR
STARTCHAR uni0210
ENCODING 528
SWIDTH 643 0
DWIDTH 16 0
BBX 13 25 2 0
BITMAP
E700
7300
3300
1980
0000
0000
0000
FF80
FFE0
E070
E030
E038
E038
E038
E030
E070
FFE0
FF80
E1C0
E0C0
E0E0
E060
E070
E030
E038
ENDCHAR
STARTCHAR uni0211
ENCODING 529
SWIDTH 376 0
DWIDTH 9 0
BBX 9 20 0 0
BITMAP
CE00
6600
6300
3300
0000
0000
3380
3780
3C00
3800
3000
3000
3000
3000
3000
3000
3000
3000
3000
3000
ENDCHAR
STARTCHAR uni0212
ENCODING 530
SWIDTH 643 0
DWIDTH 16 0
BBX 13 25 2 0
BITMAP
0F00
1F80
3980
30C0
0000
0000
0000
FF80
FFE0
E070
E030
E038
E038
E038
E030
E070
FFE0
FF80
E1C0
E0C0
E0E0
E060
E070
E030
E038
ENDCHAR
STARTCHAR uni0213
ENCODING 531
SWIDTH 376 0
DWIDTH 9 0
BBX 8 20 1 0
BITMAP
3C
7E
63
C3
00
00
67
6F
78
70
60
60
60
60
60
60
60
60
60
60
ENDCHAR
STARTCHAR uni0214
ENCODING 532
SWIDTH 744 0
DWIDTH 19 0
BBX 14 25 2 0
BITMAP
3380
1980
18C0
0CC0
0000
0000
0000
E00C
E00C
E00C
E00C
E00C
E00C
E00C
E00C
E00C
E00C
E00C
E00C
E00C
E00C
701C
7838
3FF0
0FC0
ENDCHAR
STARTCHAR uni0215
ENCODING 533
SWIDTH 591 0
DWIDTH 15 0
BBX 11 20 2 0
BITMAP
EE00
6600
7300
3300
0000
0000
C060
C060
C060
C060
C060
C060
C060
C060
C060
C0E0
E0E0
E1E0
7F60
3E60
ENDCHAR
STARTCHAR uni0216
ENCODING 534
SWIDTH 744 0
DWIDTH 19 0
BBX 14 25 2 0
BITMAP
0780
0FC0
0C60
0860
0000
0000
0000
E00C
E00C
E00C
E00C
E00C
E00C
E00C
E00C
E00C
E00C
E00C
E00C
E00C
E00C
701C
7838
3FF0
0FC0
ENDCHAR
STARTCHAR uni0217
ENCODING 535
SWIDTH 591 0
DWIDTH 15 0
BBX 11 20 2 0
BITMAP
0E00
3F00
3180
2180
0000
0000
C060
C060
C060
C060
C060
C060
C060
C060
C060
C0E0
E0E0
E1E0
7F60
3E60
ENDCHAR
STARTCHAR uni0218
ENCODING 536
SWIDTH 641 0
DWIDTH 16 0
BBX 14 24 1 -6
BITMAP
0FC0
1FF0
3878
7018
6018
6000
7000
3C00
1FC0
03F0
0078
0018
001C
E01C
6018
7878
3FF0
0FC0
0000
0300
0300
0600
0600
0600
ENDCHAR
STARTCHAR uni0219
ENCODING 537
SWIDTH 527 0
DWIDTH 13 0
BBX 11 20 1 -6
BITMAP
1F00
3FC0
70C0
60E0
6000
7000
3F00
0FC0
00E0
0060
E060
70E0
7FC0
1F00
0000
0E00
0C00
0C00
0C00
0800
ENDCHAR
STARTCHAR uni021A.1
ENCODING 538
SWIDTH 645 0
DWIDTH 16 0
BBX 14 24 1 -6
BITMAP
FFFC
FFFC
0300
0300
0300
0300
0300
0300
0300
0300
0300
0300
0300
0300
0300
0300
0300
0300
0000
0300
0300
0600
0600
0600
ENDCHAR
STARTCHAR uni021B
ENCODING 539
SWIDTH 327 0
DWIDTH 8 0
BBX 8 24 0 -6
BITMAP
38
38
38
38
FE
FE
38
38
38
38
38
38
38
38
38
38
1E
0F
00
1C
18
18
18
30
ENDCHAR
STARTCHAR uni021C
ENCODING 540
SWIDTH 633 0
DWIDTH 16 0
BBX 12 24 2 -6
BITMAP
1F80
7FC0
F0E0
E070
C070
0070
0070
0070
00E0
01C0
03E0
0F70
7C70
7030
0030
0030
0070
0070
00E0
01E0
07C0
3F00
7C00
6000
ENDCHAR
STARTCHAR uni021D
ENCODING 541
SWIDTH 543 0
DWIDTH 14 0
BBX 10 20 2 -6
BITMAP
3E00
7F80
E380
C1C0
01C0
01C0
0380
0380
0F80
7DC0
71C0
81C0
01C0
01C0
0180
0380
0F00
7E00
7800
8000
ENDCHAR
STARTCHAR uni021E
ENCODING 542
SWIDTH 743 0
DWIDTH 19 0
BBX 14 25 2 0
BITMAP
1C60
0CC0
07C0
0380
0000
0000
0000
E00C
E00C
E00C
E00C
E00C
E00C
E00C
E00C
FFFC
FFFC
E00C
E00C
E00C
E00C
E00C
E00C
E00C
E00C
ENDCHAR
STARTCHAR uni021F
ENCODING 543
SWIDTH 591 0
DWIDTH 15 0
BBX 14 25 -1 0
BITMAP
C300
6600
3C00
1C00
0000
0000
0000
1800
1800
1800
1800
19E0
1BF8
1E38
1C1C
180C
180C
180C
180C
180C
180C
180C
180C
180C
180C
ENDCHAR
STARTCHAR uni0220
ENCODING 544
SWIDTH 632 0
DWIDTH 16 0
BBX 13 23 1 -5
BITMAP
EFC0
FFE0
F070
E038
E018
E018
E018
E018
E018
E018
E018
E018
E018
E018
E018
E018
E018
E018
0018
0018
0018
0018
0018
ENDCHAR
STARTCHAR uni0221
ENCODING 545
SWIDTH 768 0
DWIDTH 19 0
BBX 18 23 1 -5
BITMAP
003000
003000
003000
003000
0F3000
3FB000
70F000
607000
603000
E03000
E03000
E03000
E03000
603000
607000
70F000
3FB600
0F3F80
003980
0071C0
00F9C0
01DF80
008F00
ENDCHAR
STARTCHAR uni0222
ENCODING 546
SWIDTH 632 0
DWIDTH 16 0
BBX 14 18 1 0
BITMAP
3860
7878
E038
E01C
E01C
E01C
7038
7FF0
3FF0
7078
E018
E01C
E01C
E01C
E018
7038
3FF0
0FC0
ENDCHAR
STARTCHAR uni0223
ENCODING 547
SWIDTH 631 0
DWIDTH 16 0
BBX 14 19 1 0
BITMAP
0880
3870
7078
E01C
E01C
E01C
E01C
7038
3FF0
3FF0
7078
E018
E01C
E01C
E01C
E018
7078
3FF0
0FC0
ENDCHAR
STARTCHAR uni0224
ENCODING 548
SWIDTH 628 0
DWIDTH 16 0
BBX 13 23 1 -5
BITMAP
FFF8
FFF8
0038
0070
0060
00E0
01C0
0180
0300
0700
0600
0C00
1C00
1800
3000
7000
7FF8
7FF8
0018
0018
0018
00F8
00F0
ENDCHAR
STARTCHAR uni0225
ENCODING 549
SWIDTH 552 0
DWIDTH 14 0
BBX 11 17 2 -3
BITMAP
FFC0
FFC0
0180
0380
0700
0600
0E00
1C00
3800
3000
7000
E000
FF80
FFC0
00E0
0060
0060
ENDCHAR
STARTCHAR uni0226
ENCODING 550
SWIDTH 689 0
DWIDTH 17 0
BBX 16 24 1 0
BITMAP
0180
0380
0180
0000
0000
0000
0380
0380
06C0
06C0
06E0
0C60
0C60
1C70
1830
1830
3838
3FF8
3FFC
700C
600C
600E
E006
C007
ENDCHAR
STARTCHAR uni0227
ENCODING 551
SWIDTH 561 0
DWIDTH 14 0
BBX 11 19 1 0
BITMAP
0600
0E00
0600
0000
0000
1F80
3FC0
70E0
E060
0060
00E0
1FE0
7E60
E060
C060
C0E0
E1E0
7F60
3E60
ENDCHAR
STARTCHAR uni0228
ENCODING 552
SWIDTH 601 0
DWIDTH 15 0
BBX 11 23 2 -5
BITMAP
FFE0
FFE0
E000
E000
E000
E000
E000
E000
FFE0
FFE0
E000
E000
E000
E000
E000
E000
FFE0
FFE0
0400
0700
0180
0180
0F00
ENDCHAR
STARTCHAR uni0229
ENCODING 553
SWIDTH 583 0
DWIDTH 15 0
BBX 12 19 1 -5
BITMAP
0F80
3FC0
38E0
6070
6030
E030
FFF0
FFF0
E000
6000
6030
7070
3FE0
0F80
0200
0780
0080
0080
0780
ENDCHAR
STARTCHAR uni022A
ENCODING 554
SWIDTH 764 0
DWIDTH 19 0
BBX 17 27 1 0
BITMAP
07F000
07F000
000000
000000
063000
073800
063000
000000
000000
03E000
0FF800
1C1C00
380E00
700700
600300
600300
600380
E00380
E00380
600380
600300
600300
700700
380E00
1C1C00
0FF800
03F000
ENDCHAR
STARTCHAR uni022B
ENCODING 555
SWIDTH 599 0
DWIDTH 15 0
BBX 13 22 1 0
BITMAP
1FC0
1FC0
0000
0000
18C0
18E0
18C0
0000
0F80
3FE0
38E0
6030
6030
E038
E038
E038
E038
6030
6030
38E0
3FE0
0F80
ENDCHAR
STARTCHAR uni022C
ENCODING 556
SWIDTH 764 0
DWIDTH 19 0
BBX 17 26 1 0
BITMAP
07F000
07F000
000000
039000
07F000
066000
000000
000000
03E000
0FF800
1C1C00
380E00
700700
600300
600300
600380
E00380
E00380
600380
600300
600300
700700
380E00
1C1C00
0FF800
03F000
ENDCHAR
STARTCHAR uni022D
ENCODING 557
SWIDTH 599 0
DWIDTH 15 0
BBX 13 21 1 0
BITMAP
1FC0
1FC0
0000
0EC0
1FC0
1B80
0000
0F80
3FE0
38E0
6030
6030
E038
E038
E038
E038
6030
6030
38E0
3FE0
0F80
ENDCHAR
STARTCHAR uni022E
ENCODING 558
SWIDTH 764 0
DWIDTH 19 0
BBX 17 24 1 0
BITMAP
01C000
01C000
01C000
000000
000000
000000
03E000
0FF800
1C1C00
380E00
700700
600300
600300
600380
E00380
E00380
600380
600300
600300
700700
380E00
1C1C00
0FF800
03F000
ENDCHAR
STARTCHAR uni022F
ENCODING 559
SWIDTH 599 0
DWIDTH 15 0
BBX 13 19 1 0
BITMAP
0700
0700
0700
0000
0000
0F80
3FE0
38E0
6030
6030
E038
E038
E038
E038
6030
6030
38E0
3FE0
0F80
ENDCHAR
STARTCHAR uni0230
ENCODING 560
SWIDTH 764 0
DWIDTH 19 0
BBX 17 27 1 0
BITMAP
07F000
07F000
000000
000000
01C000
01C000
00C000
000000
000000
03E000
0FF800
1C1C00
380E00
700700
600300
600300
600380
E00380
E00380
600380
600300
600300
700700
380E00
1C1C00
0FF800
03F000
ENDCHAR
STARTCHAR uni0231
ENCODING 561
SWIDTH 599 0
DWIDTH 15 0
BBX 13 22 1 0
BITMAP
1FC0
1FC0
0000
0000
0700
0700
0700
0000
0F80
3FE0
38E0
6030
6030
E038
E038
E038
E038
6030
6030
38E0
3FE0
0F80
ENDCHAR
STARTCHAR uni0232
ENCODING 562
SWIDTH 678 0
DWIDTH 17 0
BBX 15 24 1 0
BITMAP
0FE0
0FE0
0000
0000
0000
0000
E00E
600C
701C
3018
3838
1C70
0C60
0EE0
06C0
0380
0380
0380
0380
0380
0380
0380
0380
0380
ENDCHAR
STARTCHAR uni0233
ENCODING 563
SWIDTH 562 0
DWIDTH 14 0
BBX 12 24 1 -5
BITMAP
1F80
1F80
0000
0000
0000
C030
E070
6060
6060
70E0
30C0
30C0
39C0
1980
1980
0F00
0F00
0F00
0600
0600
0E00
0C00
7800
7000
ENDCHAR
STARTCHAR uni0234
ENCODING 564
SWIDTH 398 0
DWIDTH 10 0
BBX 10 23 -1 -5
BITMAP
1800
1800
1800
1800
1800
1800
1800
1800
1800
1800
1800
1800
1800
1800
1800
1800
1800
1F80
1DC0
38C0
7CC0
EFC0
4780
ENDCHAR
STARTCHAR uni0235
ENCODING 565
SWIDTH 747 0
DWIDTH 19 0
BBX 16 19 2 -5
BITMAP
CF00
DFC0
F1C0
E0E0
C060
C060
C060
C060
C060
C060
C060
C060
C060
C07E
0077
00E3
03E3
037F
013E
ENDCHAR
STARTCHAR uni0236
ENCODING 566
SWIDTH 408 0
DWIDTH 10 0
BBX 11 18 -1 0
BITMAP
1800
1800
1800
1800
7F00
7F00
1800
1800
1800
1800
1800
1900
1FC0
1CE0
38E0
7CE0
EFC0
4780
ENDCHAR
STARTCHAR uni0237
ENCODING 567
SWIDTH 242 0
DWIDTH 6 0
BBX 4 19 0 -5
BITMAP
30
30
30
30
30
30
30
30
30
30
30
30
30
30
30
30
70
E0
C0
ENDCHAR
STARTCHAR uni0238
ENCODING 568
SWIDTH 904 0
DWIDTH 23 0
BBX 20 18 1 0
BITMAP
007000
007000
007000
007000
1F7780
3FFFE0
70F8E0
707070
E07030
E07030
E07030
E07030
E07030
E07070
607070
70F8E0
3FFFE0
1F7780
ENDCHAR
STARTCHAR uni0239
ENCODING 569
SWIDTH 904 0
DWIDTH 23 0
BBX 20 19 1 -5
BITMAP
1F6780
3FFFE0
70F8E0
707070
E07030
E07030
E07030
E07030
E07030
E07070
607070
70F8E0
3FFFE0
1F7780
007000
007000
007000
007000
007000
ENDCHAR
STARTCHAR uni023A
ENCODING 570
SWIDTH 689 0
DWIDTH 17 0
BBX 16 23 1 -2
BITMAP
0018
0038
0030
03B0
03B0
06E0
06E0
06E0
0CE0
0CE0
1DF0
19B0
19B0
3B38
3FF8
3FFC
760C
660C
660E
EC06
CC07
0C00
1800
ENDCHAR
STARTCHAR uni023B
ENCODING 571
SWIDTH 730 0
DWIDTH 18 0
BBX 16 23 1 -2
BITMAP
0018
0018
0018
03F0
0FF8
1C3C
386E
7067
60C3
60C0
60C0
E180
E180
6180
6300
6303
7307
360E
1E1C
0FF8
0FE0
0C00
1800
ENDCHAR
STARTCHAR uni023C
ENCODING 572
SWIDTH 571 0
DWIDTH 14 0
BBX 12 23 1 -5
BITMAP
0030
0060
0060
00C0
0FC0
3FE0
39E0
71F0
6100
E300
E300
E600
E600
6400
6C30
3CE0
3FE0
1F80
1800
3000
3000
2000
6000
ENDCHAR
STARTCHAR uni023D
ENCODING 573
SWIDTH 578 0
DWIDTH 14 0
BBX 13 18 0 0
BITMAP
1800
1800
1800
1800
1800
1800
1800
1800
FFC0
FFC0
1800
1800
1800
1800
1800
1800
1FF8
1FF8
ENDCHAR
STARTCHAR uni023E
ENCODING 574
SWIDTH 645 0
DWIDTH 16 0
BBX 14 23 1 -2
BITMAP
0018
0030
0030
FFFC
FFFC
0360
03C0
03C0
0380
0380
0380
0300
0300
0300
0700
0700
0F00
0F00
0B00
1B00
1300
3000
3000
ENDCHAR
STARTCHAR uni023F
ENCODING 575
SWIDTH 527 0
DWIDTH 13 0
BBX 11 19 1 -5
BITMAP
1F00
3FC0
70C0
60E0
6000
7000
3F00
0FC0
00E0
0060
E060
70E0
7FC0
3F00
3000
1800
1C80
0F80
0700
ENDCHAR
STARTCHAR uni0240
ENCODING 576
SWIDTH 552 0
DWIDTH 14 0
BBX 13 19 2 -5
BITMAP
FFC0
FFC0
0180
0380
0700
0600
0E00
1C00
3800
3000
7000
E000
FC00
FE00
0700
0380
01C0
00F0
0078
ENDCHAR
STARTCHAR uni0241
ENCODING 577
SWIDTH 542 0
DWIDTH 14 0
BBX 12 18 1 0
BITMAP
1F00
7FC0
71C0
E0E0
E060
0060
0070
0070
0060
0060
00E0
01E0
0FC0
0F80
0E00
0E00
0E00
0E00
ENDCHAR
STARTCHAR uni0242
ENCODING 578
SWIDTH 543 0
DWIDTH 14 0
BBX 10 14 2 0
BITMAP
3E00
7F80
E380
C1C0
C1C0
01C0
01C0
0380
0F80
0E00
0C00
0C00
0C00
0C00
ENDCHAR
STARTCHAR uni0243
ENCODING 579
SWIDTH 654 0
DWIDTH 16 0
BBX 15 18 0 0
BITMAP
3FE0
3FF8
381C
380C
380C
380C
380C
3838
3FF0
3FF8
381C
380E
FF06
FF06
380E
381C
3FFC
3FF0
ENDCHAR
STARTCHAR uni0244
ENCODING 580
SWIDTH 741 0
DWIDTH 19 0
BBX 19 18 0 0
BITMAP
380300
380300
380300
380300
380300
380300
380300
FFFFE0
FFFFE0
380300
380300
380300
380300
380300
1C0700
1E0E00
0FFC00
03F000
ENDCHAR
STARTCHAR uni0245
ENCODING 581
SWIDTH 725 0
DWIDTH 18 0
BBX 16 18 1 0
BITMAP
0180
03C0
03C0
03E0
07E0
0660
0670
0E70
0C30
1C38
1C38
1818
381C
381C
300E
700E
700E
E007
ENDCHAR
STARTCHAR uni0246
ENCODING 582
SWIDTH 601 0
DWIDTH 15 0
BBX 11 23 2 -2
BITMAP
00E0
00C0
00C0
FFE0
FFE0
E180
E180
E180
E300
E300
E300
FFE0
FFE0
E600
EE00
EC00
EC00
EC00
F800
FFE0
FFE0
3000
3000
ENDCHAR
STARTCHAR uni0247
ENCODING 583
SWIDTH 583 0
DWIDTH 15 0
BBX 12 23 1 -5
BITMAP
0030
0060
0060
00C0
0FC0
3FC0
39E0
61F0
6330
E330
FFF0
FFF0
E600
6C00
6C30
3870
3FE0
1F80
3000
3000
2000
6000
6000
ENDCHAR
STARTCHAR uni0248
ENCODING 584
SWIDTH 604 0
DWIDTH 15 0
BBX 14 18 1 0
BITMAP
0060
0060
0060
0060
0060
0060
03FC
03FC
0060
0060
0060
0060
E060
E060
E0E0
71C0
3FC0
1F00
ENDCHAR
STARTCHAR uni0249
ENCODING 585
SWIDTH 242 0
DWIDTH 6 0
BBX 8 24 -1 -5
BITMAP
18
3C
18
00
00
18
18
18
18
18
FF
FF
18
18
18
18
18
18
18
18
18
38
70
60
ENDCHAR
STARTCHAR Q_rthook
ENCODING 586
SWIDTH 764 0
DWIDTH 19 0
BBX 19 23 1 -5
BITMAP
07E300
0FF300
1C1B00
380F00
700700
600700
600700
600300
E00300
E00300
600300
600700
600700
700700
380F00
1C1B00
0FF300
07E300
000300
000300
000300
0003E0
0001E0
ENDCHAR
STARTCHAR qrthook
ENCODING 587
SWIDTH 612 0
DWIDTH 15 0
BBX 15 19 1 -5
BITMAP
0F30
3FB0
70F0
6070
6030
E030
E030
E030
E030
6030
6070
70F0
3FB0
0F30
0030
0030
0038
001E
000E
ENDCHAR
STARTCHAR uni024C
ENCODING 588
SWIDTH 647 0
DWIDTH 16 0
BBX 16 18 0 0
BITMAP
3FF0
3FF8
381C
380E
380E
3806
380E
380E
381C
FFF8
FFF0
3870
3838
3838
381C
380C
380E
3807
ENDCHAR
STARTCHAR uni024D
ENCODING 589
SWIDTH 376 0
DWIDTH 9 0
BBX 10 14 -1 0
BITMAP
19C0
1BC0
1E00
1C00
1800
1800
1800
FF00
FF00
1800
1800
1800
1800
1800
ENDCHAR
STARTCHAR uni024E
ENCODING 590
SWIDTH 667 0
DWIDTH 17 0
BBX 17 18 0 0
BITMAP
700700
300600
380E00
180C00
FFFF80
0E3800
063000
077000
036000
03C000
01C000
01C000
01C000
01C000
01C000
01C000
01C000
01C000
ENDCHAR
STARTCHAR uni024F
ENCODING 591
SWIDTH 562 0
DWIDTH 14 0
BBX 12 19 1 -5
BITMAP
C030
E070
6060
6060
FFF0
FFF0
30C0
39C0
1980
1980
0F00
0F00
0F00
0600
0600
0E00
0C00
7800
7000
ENDCHAR
STARTCHAR aturn
ENCODING 592
SWIDTH 561 0
DWIDTH 14 0
BBX 11 14 2 0
BITMAP
CF80
DFC0
F0E0
E060
C060
C0E0
C7C0
FF00
E000
C000
C0E0
E1C0
7F80
3F00
ENDCHAR
STARTCHAR ascript
ENCODING 593
SWIDTH 612 0
DWIDTH 15 0
BBX 12 14 1 0
BITMAP
0F30
3FB0
70F0
6070
6030
E030
E030
E030
E030
6030
6070
70F0
3FB0
0F30
ENDCHAR
STARTCHAR ascriptturn
ENCODING 594
SWIDTH 612 0
DWIDTH 15 0
BBX 12 14 2 0
BITMAP
CF80
DFC0
F0E0
E060
C070
C030
C030
C030
C030
C070
E060
F0E0
DFC0
CF80
ENDCHAR
STARTCHAR uni0253
ENCODING 595
SWIDTH 608 0
DWIDTH 15 0
BBX 12 18 2 0
BITMAP
7800
F800
C000
C000
CF80
DFC0
F0E0
E060
C070
C030
C030
C030
C030
C070
E060
F0E0
DFC0
CF00
ENDCHAR
STARTCHAR uni0254
ENCODING 596
SWIDTH 542 0
DWIDTH 14 0
BBX 11 14 1 0
BITMAP
1F00
3F80
71C0
E0E0
E060
0060
0060
0060
0060
0060
E0E0
71C0
3FC0
1F00
ENDCHAR
STARTCHAR drthook
ENCODING 598
SWIDTH 612 0
DWIDTH 15 0
BBX 15 23 1 -5
BITMAP
0030
0030
0030
0030
0F30
3FB0
70F0
6070
6030
E030
E030
E030
E030
6030
6070
70F0
3FB0
0F30
0030
0030
0038
003E
001E
ENDCHAR
STARTCHAR uni0257
ENCODING 599
SWIDTH 612 0
DWIDTH 15 0
BBX 15 18 1 0
BITMAP
001E
003E
0038
0030
0F30
3FB0
70F0
6070
6030
E030
E030
E030
E030
6030
6070
70F0
3FB0
0F30
ENDCHAR
STARTCHAR erev
ENCODING 600
SWIDTH 543 0
DWIDTH 14 0
BBX 11 14 1 0
BITMAP
1F00
3F80
71C0
60E0
E060
E060
FFE0
FFE0
0060
0060
40E0
E1C0
7F80
1F00
ENDCHAR
STARTCHAR uni0259
ENCODING 601
SWIDTH 583 0
DWIDTH 15 0
BBX 12 14 1 0
BITMAP
1F80
3FC0
70E0
E070
0030
0030
FFF0
FFF0
E030
E030
6070
70E0
3FC0
0F80
ENDCHAR
STARTCHAR uni025A
ENCODING 602
SWIDTH 750 0
DWIDTH 19 0
BBX 18 14 1 0
BITMAP
1F8000
3FC000
70E000
E07000
003000
007E00
7FFE00
FC3600
E03380
6033C0
607000
70E000
3FC000
0F8000
ENDCHAR
STARTCHAR epsilon1
ENCODING 603
SWIDTH 537 0
DWIDTH 13 0
BBX 11 14 1 0
BITMAP
1F80
3FC0
70E0
6060
6000
7000
3E00
3E00
7000
E000
E060
70E0
7FC0
1F80
ENDCHAR
STARTCHAR epsilon1rev
ENCODING 604
SWIDTH 537 0
DWIDTH 13 0
BBX 11 14 1 0
BITMAP
1F00
3FC0
70E0
E0E0
0060
00E0
0FC0
0F80
00E0
0060
E060
60E0
7FC0
1F00
ENDCHAR
STARTCHAR epsilon1revhook
ENCODING 605
SWIDTH 696 0
DWIDTH 17 0
BBX 16 14 1 0
BITMAP
1F00
3FC0
70E4
E0F8
0078
00EC
0FCF
0FC7
00E0
0060
E060
60E0
7FC0
1F00
ENDCHAR
STARTCHAR epsilon1revclosed
ENCODING 606
SWIDTH 565 0
DWIDTH 14 0
BBX 12 14 1 0
BITMAP
0F80
3FE0
70E0
6060
E070
E060
C7E0
C7C0
E0E0
6070
6070
7070
3FE0
1F80
ENDCHAR
STARTCHAR jdotlessbar
ENCODING 607
SWIDTH 242 0
DWIDTH 6 0
BBX 8 19 -1 -5
BITMAP
18
18
18
18
18
FF
FF
18
18
18
18
18
18
18
18
18
38
70
60
ENDCHAR
STARTCHAR uni0260
ENCODING 608
SWIDTH 613 0
DWIDTH 15 0
BBX 15 23 1 -5
BITMAP
000E
001E
0038
0030
0F30
3FB0
78F0
6070
6030
E030
E030
E030
E030
6030
6070
70F0
3FB0
0F30
0030
2030
7070
3FE0
1F80
ENDCHAR
STARTCHAR gcursive
ENCODING 609
SWIDTH 613 0
DWIDTH 15 0
BBX 12 19 1 -5
BITMAP
0F30
3FB0
78F0
6070
6030
E030
E030
E030
E030
6030
6070
70F0
3FB0
0F30
0030
2030
7070
3FE0
1F80
ENDCHAR
STARTCHAR g.sc
ENCODING 610
SWIDTH 560 0
DWIDTH 14 0
BBX 12 14 1 0
BITMAP
0F80
3FC0
70E0
6070
E030
C000
C000
C1F0
C1F0
E030
6070
70E0
3FC0
0F80
ENDCHAR
STARTCHAR gamma1
ENCODING 611
SWIDTH 598 0
DWIDTH 15 0
BBX 13 19 1 -5
BITMAP
E038
6030
7070
3060
38E0
18C0
1DC0
0D80
0F80
0700
0700
0700
0F80
0D80
1DC0
1DC0
1DC0
1FC0
0F80
ENDCHAR
STARTCHAR babygamma
ENCODING 612
SWIDTH 723 0
DWIDTH 18 0
BBX 16 14 1 0
BITMAP
3C1C
FE7F
4772
07E0
03C0
03C0
03C0
03C0
07E0
07E0
0660
0660
07E0
03C0
ENDCHAR
STARTCHAR hturn
ENCODING 613
SWIDTH 591 0
DWIDTH 15 0
BBX 11 18 2 -4
BITMAP
C060
C060
C060
C060
C060
C060
C060
C060
C060
C060
E0E0
E1E0
7F60
3E60
0060
0060
0060
0060
ENDCHAR
STARTCHAR uni0266
ENCODING 614
SWIDTH 590 0
DWIDTH 15 0
BBX 11 18 2 0
BITMAP
7800
F800
C000
C000
CF00
DFC0
F1C0
E0E0
C060
C060
C060
C060
C060
C060
C060
C060
C060
C060
ENDCHAR
STARTCHAR uni0267
ENCODING 615
SWIDTH 590 0
DWIDTH 15 0
BBX 11 23 2 -5
BITMAP
7800
F800
C000
C000
CF00
DFC0
F1C0
E0E0
C060
C060
C060
C060
C060
C060
C060
C060
C060
C060
0060
0060
00E0
03E0
03C0
ENDCHAR
STARTCHAR ibar
ENCODING 616
SWIDTH 242 0
DWIDTH 6 0
BBX 8 19 -1 0
BITMAP
18
1C
18
00
00
18
18
18
18
18
18
FF
FF
18
18
18
18
18
18
ENDCHAR
STARTCHAR iota.dup1
ENCODING 617
SWIDTH 275 0
DWIDTH 7 0
BBX 4 14 2 0
BITMAP
C0
C0
C0
C0
C0
C0
C0
C0
C0
C0
C0
C0
F0
70
ENDCHAR
STARTCHAR lmidtilde
ENCODING 619
SWIDTH 242 0
DWIDTH 6 0
BBX 7 18 0 0
BITMAP
30
30
30
30
30
30
30
76
FC
BC
30
30
30
30
30
30
30
30
ENDCHAR
STARTCHAR uni026C
ENCODING 620
SWIDTH 417 0
DWIDTH 10 0
BBX 10 18 0 0
BITMAP
0700
0700
0700
0700
3F00
7F00
E700
E700
E700
7FC0
3FC0
0700
0700
0700
0700
0700
0700
0700
ENDCHAR
STARTCHAR lrthook
ENCODING 621
SWIDTH 242 0
DWIDTH 6 0
BBX 5 23 2 -5
BITMAP
C0
C0
C0
C0
C0
C0
C0
C0
C0
C0
C0
C0
C0
C0
C0
C0
C0
C0
C0
C0
C0
F8
78
ENDCHAR
STARTCHAR lyogh
ENCODING 622
SWIDTH 641 0
DWIDTH 16 0
BBX 13 23 2 -5
BITMAP
C000
C000
C000
C000
FFF0
FFF0
C070
C0E0
C1C0
C380
C300
C600
C7C0
C7E0
C070
C030
C038
C038
0030
0030
1070
3FE0
0F80
ENDCHAR
STARTCHAR mturn
ENCODING 623
SWIDTH 875 0
DWIDTH 22 0
BBX 18 14 2 0
BITMAP
C0C0C0
C0C0C0
C0C0C0
C0C0C0
C0C0C0
C0C0C0
C0C0C0
C0C0C0
C0C0C0
C0C0C0
C1C1C0
E163C0
7F7EC0
3C3CC0
ENDCHAR
STARTCHAR mturndescend
ENCODING 624
SWIDTH 875 0
DWIDTH 22 0
BBX 18 19 2 -5
BITMAP
C0C0C0
C0C0C0
C0C0C0
C0C0C0
C0C0C0
C0C0C0
C0C0C0
C0C0C0
C0C0C0
C0C0C0
C1C1C0
E163C0
7F7EC0
3C3CC0
0000C0
0000C0
0000C0
0000C0
0000C0
ENDCHAR
STARTCHAR uni0271
ENCODING 625
SWIDTH 875 0
DWIDTH 22 0
BBX 18 19 2 -5
BITMAP
CF0F00
DFBF80
E1A1C0
E0C0C0
C0C0C0
C0C0C0
C0C0C0
C0C0C0
C0C0C0
C0C0C0
C0C0C0
C0C0C0
C0C0C0
C0C0C0
0000C0
0000C0
0001C0
0007C0
000780
ENDCHAR
STARTCHAR nlfthook
ENCODING 626
SWIDTH 590 0
DWIDTH 15 0
BBX 14 19 -1 -5
BITMAP
19E0
1BF8
1E38
1C1C
180C
180C
180C
180C
180C
180C
180C
180C
180C
180C
1800
1800
1800
F800
F000
ENDCHAR
STARTCHAR nrthook
ENCODING 627
SWIDTH 590 0
DWIDTH 15 0
BBX 13 19 2 -5
BITMAP
CF00
DFC0
F1C0
E0E0
C060
C060
C060
C060
C060
C060
C060
C060
C060
C060
0060
0060
0060
0078
0038
ENDCHAR
STARTCHAR obar
ENCODING 629
SWIDTH 599 0
DWIDTH 15 0
BBX 13 14 1 0
BITMAP
0F80
3FE0
38E0
6030
6030
E038
FFF8
FFF8
E038
6030
6030
38E0
3FE0
0F80
ENDCHAR
STARTCHAR omegaclosed
ENCODING 631
SWIDTH 816 0
DWIDTH 20 0
BBX 18 14 1 0
BITMAP
03F800
1FFE00
3C0F00
700380
700180
6001C0
E0C1C0
E0C0C0
E0C1C0
60E1C0
60E1C0
71F380
3FBF80
1E1E00
ENDCHAR
STARTCHAR philatin
ENCODING 632
SWIDTH 639 0
DWIDTH 16 0
BBX 12 23 2 -5
BITMAP
0600
0600
0600
0600
0600
3FC0
7FE0
76E0
E670
E670
C630
C630
C630
E670
E670
76E0
7FE0
1F80
0600
0600
0600
0600
0600
ENDCHAR
STARTCHAR rturn
ENCODING 633
SWIDTH 376 0
DWIDTH 9 0
BBX 6 14 1 0
BITMAP
0C
0C
0C
0C
0C
0C
0C
0C
0C
0C
0C
1C
FC
EC
ENDCHAR
STARTCHAR rturnascend
ENCODING 634
SWIDTH 362 0
DWIDTH 9 0
BBX 7 19 1 0
BITMAP
0E
0E
0E
0E
0E
0E
0E
0E
0E
0E
0E
0E
0E
0E
0E
0E
1E
FE
EE
ENDCHAR
STARTCHAR rturnrthook
ENCODING 635
SWIDTH 376 0
DWIDTH 9 0
BBX 9 19 1 -5
BITMAP
0C00
0C00
0C00
0C00
0C00
0C00
0C00
0C00
0C00
0C00
0C00
1C00
FC00
EC00
0C00
0C00
0E00
0780
0780
ENDCHAR
STARTCHAR uni027E
ENCODING 638
SWIDTH 343 0
DWIDTH 9 0
BBX 6 14 2 0
BITMAP
3C
7C
E0
C0
C0
C0
C0
C0
C0
C0
C0
C0
C0
C0
ENDCHAR
STARTCHAR rfishhookrev
ENCODING 639
SWIDTH 343 0
DWIDTH 9 0
BBX 6 14 1 0
BITMAP
E0
F8
18
1C
1C
1C
1C
1C
1C
1C
1C
1C
1C
1C
ENDCHAR
STARTCHAR srthook
ENCODING 642
SWIDTH 527 0
DWIDTH 13 0
BBX 11 19 1 -5
BITMAP
1F00
3FC0
70C0
60E0
6000
7000
3F00
0FC0
00E0
0060
E060
F0E0
FFC0
DF00
C000
C000
E000
7800
3800
ENDCHAR
STARTCHAR uni0283
ENCODING 643
SWIDTH 365 0
DWIDTH 9 0
BBX 9 25 0 -6
BITMAP
0780
0F80
1C00
1800
1800
1800
1800
1800
1800
1800
1800
1800
1800
1800
1800
1800
1800
1800
1800
1800
1800
1800
3800
F000
E000
ENDCHAR
STARTCHAR jhookdblbar
ENCODING 644
SWIDTH 365 0
DWIDTH 9 0
BBX 9 25 0 -6
BITMAP
0780
0F80
1C00
1800
1800
1800
1800
1800
1800
1800
1800
1800
1800
1800
1800
1800
1800
FF00
FF00
1800
1800
1800
3800
F000
E000
ENDCHAR
STARTCHAR uni0286
ENCODING 646
SWIDTH 514 0
DWIDTH 13 0
BBX 11 25 1 -5
BITMAP
00E0
03E0
0300
0300
0300
0300
0300
0300
0300
0300
0300
0300
0300
0300
0300
0300
0300
0300
1300
7F00
E700
E380
E7C0
7EE0
3C40
ENDCHAR
STARTCHAR tturn
ENCODING 647
SWIDTH 327 0
DWIDTH 8 0
BBX 8 17 0 -3
BITMAP
F0
78
1C
0C
0C
0C
0C
0C
0C
0C
0C
0C
7F
7F
0C
0C
0C
ENDCHAR
STARTCHAR trthook
ENCODING 648
SWIDTH 326 0
DWIDTH 8 0
BBX 8 23 0 -5
BITMAP
30
30
30
30
FE
FE
30
30
30
30
30
30
30
30
30
30
30
30
30
38
38
1E
0F
ENDCHAR
STARTCHAR uni0289
ENCODING 649
SWIDTH 634 0
DWIDTH 16 0
BBX 16 14 0 0
BITMAP
1818
1818
1818
1818
1818
1818
FFFF
FFFF
1818
1818
1818
1C38
1FF8
0798
ENDCHAR
STARTCHAR upsilonlatin
ENCODING 650
SWIDTH 631 0
DWIDTH 16 0
BBX 13 14 1 0
BITMAP
E018
F038
3870
3870
3030
7030
6038
6018
E018
E018
7038
7878
3FF0
0FC0
ENDCHAR
STARTCHAR vscript
ENCODING 651
SWIDTH 544 0
DWIDTH 14 0
BBX 10 14 2 0
BITMAP
C780
C7C0
C1C0
C1C0
C1C0
C1C0
C1C0
C1C0
C1C0
C1C0
C1C0
E380
7F80
3E00
ENDCHAR
STARTCHAR vturn
ENCODING 652
SWIDTH 562 0
DWIDTH 14 0
BBX 12 14 1 0
BITMAP
0600
0F00
0F00
0F00
1980
1980
39C0
30C0
30C0
70E0
6060
6060
E070
C030
ENDCHAR
STARTCHAR wturn
ENCODING 653
SWIDTH 818 0
DWIDTH 20 0
BBX 19 14 1 0
BITMAP
0C0E00
0E0E00
1E0E00
1E1E00
1A1B00
3B1B00
333300
333380
71B180
61B180
61E1C0
61E0C0
E0E0C0
C0E0E0
ENDCHAR
STARTCHAR yturn
ENCODING 654
SWIDTH 562 0
DWIDTH 14 0
BBX 12 19 1 0
BITMAP
0040
01E0
03A0
0300
0700
0600
0700
0F00
0F00
1980
1980
1980
30C0
30C0
70E0
6060
6060
E070
C030
ENDCHAR
STARTCHAR zrthook
ENCODING 656
SWIDTH 552 0
DWIDTH 14 0
BBX 13 19 2 -5
BITMAP
FFC0
FFC0
0180
0380
0700
0600
0E00
1C00
3800
3000
7000
E000
FFC0
FFC0
00C0
00C0
00C0
00F8
0078
ENDCHAR
STARTCHAR uni0292
ENCODING 658
SWIDTH 620 0
DWIDTH 16 0
BBX 12 18 2 -5
BITMAP
FFE0
FFE0
00C0
0180
0300
0600
0C00
0F80
0FC0
00E0
0070
0030
0030
C030
C070
E0E0
7FC0
1F00
ENDCHAR
STARTCHAR uni0293
ENCODING 659
SWIDTH 624 0
DWIDTH 16 0
BBX 12 19 2 -5
BITMAP
7FE0
7FE0
00E0
01C0
0380
0300
0600
0E00
0F80
0FC0
00E0
0070
7C70
FF70
C3F0
C1E0
E1F0
7FB0
3F10
ENDCHAR
STARTCHAR uni0294
ENCODING 660
SWIDTH 542 0
DWIDTH 14 0
BBX 11 18 1 0
BITMAP
1F00
3FC0
71C0
E0E0
0060
0060
0060
0060
0060
00E0
01C0
0FC0
0F80
0E00
0E00
0E00
0E00
0E00
ENDCHAR
STARTCHAR glottalstoprevinv
ENCODING 661
SWIDTH 542 0
DWIDTH 14 0
BBX 11 18 1 0
BITMAP
1F80
3FC0
70E0
6060
E060
E000
E000
E000
E000
6000
7000
3E00
1E00
0600
0600
0600
0600
0600
ENDCHAR
STARTCHAR glottalstopinv
ENCODING 662
SWIDTH 542 0
DWIDTH 14 0
BBX 11 18 1 0
BITMAP
0E00
0E00
0E00
0E00
0F00
0FC0
01C0
00E0
0060
0060
0060
0060
0060
E060
E0E0
71C0
3FC0
1F00
ENDCHAR
STARTCHAR cstretch
ENCODING 663
SWIDTH 542 0
DWIDTH 14 0
BBX 11 19 1 -5
BITMAP
1F00
3FC0
70E0
6060
E060
E000
E000
E000
E000
E000
E000
E000
E000
E000
E000
6060
70E0
3FC0
1F00
ENDCHAR
STARTCHAR uni25CE
ENCODING 664
SWIDTH 764 0
DWIDTH 19 0
BBX 17 18 1 0
BITMAP
03E000
0FF800
1C1C00
380E00
700700
600300
600300
61C380
E1C380
E1C380
600380
600300
600300
700700
380E00
1C1C00
0FF800
03F000
ENDCHAR
STARTCHAR uni0299
ENCODING 665
SWIDTH 564 0
DWIDTH 14 0
BBX 11 14 2 0
BITMAP
FF00
FFC0
C1C0
C0C0
C0C0
C1C0
FF80
FF80
C0C0
C060
C060
C0E0
FFC0
FF80
ENDCHAR
STARTCHAR epsilonclosed
ENCODING 666
SWIDTH 565 0
DWIDTH 14 0
BBX 12 14 1 0
BITMAP
1F80
3FC0
70E0
6060
6070
7030
3E30
3E30
7030
E070
E060
70E0
7FC0
1F80
ENDCHAR
STARTCHAR h.sc
ENCODING 668
SWIDTH 588 0
DWIDTH 15 0
BBX 11 14 2 0
BITMAP
C060
C060
C060
C060
C060
C060
FFE0
FFE0
C060
C060
C060
C060
C060
C060
ENDCHAR
STARTCHAR jcrosstail
ENCODING 669
SWIDTH 346 0
DWIDTH 9 0
BBX 9 24 0 -5
BITMAP
0600
0E00
0600
0000
0000
0600
0600
0600
0600
0600
0600
0600
0600
0600
0600
0600
0600
7F80
FF80
C600
C600
CC00
FC00
7800
ENDCHAR
STARTCHAR kturn
ENCODING 670
SWIDTH 548 0
DWIDTH 14 0
BBX 12 18 0 -4
BITMAP
F030
7030
3830
1C30
0E30
0670
07F0
03F0
03B0
0730
0E30
1C30
3830
7030
0030
0030
0030
0030
ENDCHAR
STARTCHAR uni02A0
ENCODING 672
SWIDTH 612 0
DWIDTH 15 0
BBX 15 23 1 -5
BITMAP
001E
003E
0038
0030
0F30
3FB0
70F0
6070
6030
E030
E030
E030
E030
6030
6070
70F0
3FB0
0F30
0030
0030
0030
0030
0030
ENDCHAR
STARTCHAR glottalstopbar
ENCODING 673
SWIDTH 542 0
DWIDTH 14 0
BBX 11 18 1 0
BITMAP
1F00
3FC0
71C0
E0E0
0060
0060
0060
0060
0060
00E0
00C0
0FC0
0F00
0E00
7F80
7F80
0E00
0E00
ENDCHAR
STARTCHAR glottalstopbarrev
ENCODING 674
SWIDTH 542 0
DWIDTH 14 0
BBX 11 18 1 0
BITMAP
1F80
3FC0
70E0
6060
E060
E000
E000
E000
E000
6000
7000
3E00
1E00
0600
0600
3FC0
3FC0
0600
ENDCHAR
STARTCHAR uni02A3
ENCODING 675
SWIDTH 1088 0
DWIDTH 27 0
BBX 25 18 1 0
BITMAP
00300000
00300000
00300000
00300000
0F3FFF00
3FBFFF00
70F00700
60700600
60300C00
E0301C00
E0303800
E0303000
E0306000
6030E000
6071C000
70F38000
3FF3FF80
0F33FF80
ENDCHAR
STARTCHAR dyogh
ENCODING 676
SWIDTH 1001 0
DWIDTH 25 0
BBX 23 23 1 -5
BITMAP
003000
003000
003000
003000
0F3FFC
3FBFFC
70F018
607030
603070
E030E0
E031C0
E03180
E033E0
6033F8
60701C
70F00C
3FB00C
0F300E
00000C
00380C
001C1C
000FF8
0007E0
ENDCHAR
STARTCHAR uni02A6
ENCODING 678
SWIDTH 747 0
DWIDTH 19 0
BBX 17 17 0 0
BITMAP
300000
300000
300000
FFFE00
FFFF00
31C380
31C180
31C000
30C000
30FC00
303F00
300380
300180
380180
380380
1FFF80
0FFE00
ENDCHAR
STARTCHAR uni02A7
ENCODING 679
SWIDTH 559 0
DWIDTH 14 0
BBX 14 24 0 -5
BITMAP
0008
007C
00FC
18E0
18C0
FFC0
FFC0
18C0
18C0
18C0
18C0
18C0
18C0
18C0
18C0
18C0
1CC0
1FC0
0FC0
00C0
00C0
01C0
0FC0
0F00
ENDCHAR
STARTCHAR uni02A8
ENCODING 680
SWIDTH 798 0
DWIDTH 20 0
BBX 19 18 0 0
BITMAP
300000
300000
300000
300000
FE1F00
FE7F80
30E1C0
30C0E0
31C000
318000
318000
318780
319FC0
31F8C0
30F0C0
38E1C0
1FFF80
0F1F00
ENDCHAR
STARTCHAR feng
ENCODING 681
SWIDTH 841 0
DWIDTH 21 0
BBX 19 24 0 -5
BITMAP
020000
0F8000
1F0000
180000
180000
FFCF80
FFDFC0
18F0E0
18E0E0
18E060
18C060
18C060
18C060
18C060
18C060
18C060
18C060
18C060
18C060
000060
000060
000060
0003E0
0003C0
ENDCHAR
STARTCHAR uni05DA
ENCODING 682
SWIDTH 637 0
DWIDTH 16 0
BBX 14 18 1 0
BITMAP
C000
C000
C000
C000
C3E0
CFF0
CE38
DC18
DC04
CF00
C7E0
C3F8
C038
C01C
E01C
FC38
FFF8
C7E0
ENDCHAR
STARTCHAR uni02AB
ENCODING 683
SWIDTH 729 0
DWIDTH 18 0
BBX 15 18 2 0
BITMAP
C000
C000
C000
C000
FFFE
FFFE
C01C
C018
C038
C070
C0E0
C0C0
C1C0
C380
C700
C600
CFFE
CFFE
ENDCHAR
STARTCHAR uni02AC
ENCODING 684
SWIDTH 451 0
DWIDTH 11 0
BBX 11 18 0 0
BITMAP
E660
6E40
6EC0
6BC0
3BC0
3980
3180
0000
0000
0000
8000
6660
6E40
6EC0
2BC0
3B80
3980
3180
ENDCHAR
STARTCHAR uni05DD
ENCODING 685
SWIDTH 541 0
DWIDTH 14 0
BBX 10 18 2 0
BITMAP
FFC0
FFC0
C0C0
C0C0
C0C0
C0C0
C0C0
0000
0000
0000
0000
FFC0
FFC0
C0C0
C0C0
C0C0
C0C0
C0C0
ENDCHAR
STARTCHAR hturnlthook
ENCODING 686
SWIDTH 631 0
DWIDTH 16 0
BBX 14 19 0 -5
BITMAP
E00C
F80C
380C
180C
180C
180C
180C
180C
180C
180C
1C1C
1C3C
0FEC
07CC
000C
000C
000C
000C
000C
ENDCHAR
STARTCHAR hturnhook2
ENCODING 687
SWIDTH 630 0
DWIDTH 16 0
BBX 16 19 0 -5
BITMAP
E00C
F80C
180C
180C
180C
180C
180C
180C
180C
180C
1C1C
1C3C
0FEC
07CC
000C
000C
000C
000F
0007
ENDCHAR
STARTCHAR h.sups
ENCODING 688
SWIDTH 435 0
DWIDTH 11 0
BBX 8 10 1 11
BITMAP
C0
C0
DE
DF
E3
E3
E3
E3
E3
E3
ENDCHAR
STARTCHAR hhooksuper
ENCODING 689
SWIDTH 451 0
DWIDTH 11 0
BBX 8 14 2 8
BITMAP
F0
F0
C0
C0
DC
FE
C6
C7
C7
C7
C7
C7
C7
C7
ENDCHAR
STARTCHAR j.sups
ENCODING 690
SWIDTH 198 0
DWIDTH 5 0
BBX 4 14 0 8
BITMAP
20
70
00
70
70
70
70
70
70
70
70
70
E0
E0
ENDCHAR
STARTCHAR r.sups
ENCODING 691
SWIDTH 285 0
DWIDTH 7 0
BBX 6 8 1 11
BITMAP
DC
FC
E0
E0
E0
E0
E0
E0
ENDCHAR
STARTCHAR rturnsuper
ENCODING 692
SWIDTH 268 0
DWIDTH 7 0
BBX 5 10 1 8
BITMAP
18
18
18
18
18
18
18
18
F8
D8
ENDCHAR
STARTCHAR uni05E5
ENCODING 693
SWIDTH 361 0
DWIDTH 9 0
BBX 7 14 1 4
BITMAP
18
18
18
18
18
18
18
18
F8
F8
18
1C
1E
0E
ENDCHAR
STARTCHAR Rturnsuper
ENCODING 694
SWIDTH 450 0
DWIDTH 11 0
BBX 9 10 1 8
BITMAP
C380
C700
C600
FE00
FF00
C300
C300
C300
FF00
FE00
ENDCHAR
STARTCHAR w.sups
ENCODING 695
SWIDTH 583 0
DWIDTH 15 0
BBX 13 8 1 11
BITMAP
C618
C730
EF30
6D30
6DE0
69E0
38E0
38C0
ENDCHAR
STARTCHAR y.sups
ENCODING 696
SWIDTH 420 0
DWIDTH 11 0
BBX 9 11 1 8
BITMAP
C380
C300
6300
6600
3600
3C00
3C00
1C00
1800
7800
F000
ENDCHAR
STARTCHAR uni02B9
ENCODING 697
SWIDTH 241 0
DWIDTH 6 0
BBX 2 7 2 11
BITMAP
C0
C0
C0
C0
C0
C0
C0
ENDCHAR
STARTCHAR uni02BA
ENCODING 698
SWIDTH 479 0
DWIDTH 12 0
BBX 8 7 2 11
BITMAP
C3
C3
C3
C3
C3
C3
C3
ENDCHAR
STARTCHAR uni02BB
ENCODING 699
SWIDTH 268 0
DWIDTH 7 0
BBX 3 7 2 12
BITMAP
60
E0
C0
C0
C0
C0
C0
ENDCHAR
STARTCHAR quoteright.dup2
ENCODING 700
SWIDTH 260 0
DWIDTH 7 0
BBX 4 7 2 11
BITMAP
70
60
60
E0
C0
C0
C0
ENDCHAR
STARTCHAR uni02BD
ENCODING 701
SWIDTH 269 0
DWIDTH 7 0
BBX 3 7 2 12
BITMAP
C0
C0
C0
C0
60
60
60
ENDCHAR
STARTCHAR uni02BE
ENCODING 702
SWIDTH 164 0
DWIDTH 4 0
BBX 3 6 1 15
BITMAP
C0
E0
60
60
E0
C0
ENDCHAR
STARTCHAR uni02BF
ENCODING 703
SWIDTH 175 0
DWIDTH 4 0
BBX 2 5 1 14
BITMAP
40
C0
80
C0
40
ENDCHAR
STARTCHAR uni02C0
ENCODING 704
SWIDTH 449 0
DWIDTH 11 0
BBX 9 14 1 8
BITMAP
3E00
7F00
6300
8380
0180
0180
0380
0380
0300
1F00
1E00
1C00
1C00
1C00
ENDCHAR
STARTCHAR uni02C1
ENCODING 705
SWIDTH 449 0
DWIDTH 11 0
BBX 9 14 1 8
BITMAP
1E00
7F00
6380
6000
E000
E000
E000
6000
6000
7C00
1C00
1C00
1C00
1C00
ENDCHAR
STARTCHAR uni02C2
ENCODING 706
SWIDTH 451 0
DWIDTH 11 0
BBX 9 9 1 7
BITMAP
0180
0780
3F00
F800
F000
7C00
0F80
0380
0080
ENDCHAR
STARTCHAR uni02C3
ENCODING 707
SWIDTH 451 0
DWIDTH 11 0
BBX 9 9 1 7
BITMAP
C000
F800
3E00
0F80
0380
1F00
FC00
E000
8000
ENDCHAR
STARTCHAR uni02C4
ENCODING 708
SWIDTH 450 0
DWIDTH 11 0
BBX 9 9 1 7
BITMAP
0C00
1C00
1E00
3600
3600
3300
6300
6380
E180
ENDCHAR
STARTCHAR uni02C5
ENCODING 709
SWIDTH 450 0
DWIDTH 11 0
BBX 9 9 1 7
BITMAP
E180
6380
6300
3300
3600
3600
1E00
1C00
0C00
ENDCHAR
STARTCHAR circumflex
ENCODING 710
SWIDTH 413 0
DWIDTH 10 0
BBX 8 4 1 16
BITMAP
18
3C
76
E7
ENDCHAR
STARTCHAR caron
ENCODING 711
SWIDTH 413 0
DWIDTH 10 0
BBX 8 4 1 16
BITMAP
C3
66
3C
1C
ENDCHAR
STARTCHAR linevert
ENCODING 712
SWIDTH 177 0
DWIDTH 4 0
BBX 2 5 1 14
BITMAP
C0
C0
C0
C0
C0
ENDCHAR
STARTCHAR uni02C9
ENCODING 713
SWIDTH 476 0
DWIDTH 12 0
BBX 6 2 3 17
BITMAP
FC
FC
ENDCHAR
STARTCHAR uni02CA
ENCODING 714
SWIDTH 358 0
DWIDTH 9 0
BBX 4 4 2 16
BITMAP
30
30
60
C0
ENDCHAR
STARTCHAR uni02CB
ENCODING 715
SWIDTH 358 0
DWIDTH 9 0
BBX 4 4 3 16
BITMAP
E0
60
70
30
ENDCHAR
STARTCHAR uni02CC
ENCODING 716
SWIDTH 177 0
DWIDTH 4 0
BBX 2 5 1 -6
BITMAP
C0
C0
C0
C0
C0
ENDCHAR
STARTCHAR macronsub
ENCODING 717
SWIDTH 477 0
DWIDTH 12 0
BBX 6 2 3 -4
BITMAP
FC
FC
ENDCHAR
STARTCHAR uni02CE
ENCODING 718
SWIDTH 358 0
DWIDTH 9 0
BBX 4 4 3 -4
BITMAP
E0
60
70
30
ENDCHAR
STARTCHAR uni02CF
ENCODING 719
SWIDTH 358 0
DWIDTH 9 0
BBX 4 4 2 -4
BITMAP
30
30
60
C0
ENDCHAR
STARTCHAR uni02D0
ENCODING 720
SWIDTH 269 0
DWIDTH 7 0
BBX 3 13 2 0
BITMAP
E0
C0
40
00
00
00
00
00
00
00
40
C0
E0
ENDCHAR
STARTCHAR uni02D1
ENCODING 721
SWIDTH 269 0
DWIDTH 7 0
BBX 3 3 2 11
BITMAP
E0
C0
40
ENDCHAR
STARTCHAR uni02D2
ENCODING 722
SWIDTH 164 0
DWIDTH 4 0
BBX 3 6 1 8
BITMAP
C0
E0
60
60
E0
C0
ENDCHAR
STARTCHAR uni02D3
ENCODING 723
SWIDTH 175 0
DWIDTH 4 0
BBX 2 5 1 14
BITMAP
40
C0
80
C0
40
ENDCHAR
STARTCHAR uni02D4
ENCODING 724
SWIDTH 361 0
DWIDTH 9 0
BBX 5 5 2 2
BITMAP
20
20
20
F8
F8
ENDCHAR
STARTCHAR uni02D5
ENCODING 725
SWIDTH 361 0
DWIDTH 9 0
BBX 5 5 2 2
BITMAP
F8
F8
20
20
20
ENDCHAR
STARTCHAR uni02D6
ENCODING 726
SWIDTH 361 0
DWIDTH 9 0
BBX 5 5 2 2
BITMAP
20
F8
F8
20
20
ENDCHAR
STARTCHAR uni02D7
ENCODING 727
SWIDTH 269 0
DWIDTH 7 0
BBX 5 2 1 3
BITMAP
F8
F8
ENDCHAR
STARTCHAR breve
ENCODING 728
SWIDTH 379 0
DWIDTH 10 0
BBX 7 4 1 16
BITMAP
C2
C6
7E
3C
ENDCHAR
STARTCHAR dotaccent
ENCODING 729
SWIDTH 241 0
DWIDTH 6 0
BBX 4 3 1 16
BITMAP
60
F0
60
ENDCHAR
STARTCHAR ring
ENCODING 730
SWIDTH 297 0
DWIDTH 7 0
BBX 6 6 1 15
BITMAP
70
FC
CC
8C
FC
70
ENDCHAR
STARTCHAR ogonek
ENCODING 731
SWIDTH 269 0
DWIDTH 7 0
BBX 5 6 1 -5
BITMAP
30
60
C0
C0
F8
78
ENDCHAR
STARTCHAR tilde
ENCODING 732
SWIDTH 504 0
DWIDTH 13 0
BBX 7 3 3 16
BITMAP
46
FE
9C
ENDCHAR
STARTCHAR hungarumlaut
ENCODING 733
SWIDTH 496 0
DWIDTH 12 0
BBX 9 4 2 16
BITMAP
7380
6700
6600
CC00
ENDCHAR
STARTCHAR uni02DE
ENCODING 734
SWIDTH 281 0
DWIDTH 7 0
BBX 7 5 0 4
BITMAP
70
F8
98
1E
0E
ENDCHAR
STARTCHAR uniFB47
ENCODING 735
SWIDTH 361 0
DWIDTH 9 0
BBX 7 6 1 14
BITMAP
64
7E
38
38
EE
44
ENDCHAR
STARTCHAR gammasuper
ENCODING 736
SWIDTH 451 0
DWIDTH 11 0
BBX 9 16 1 3
BITMAP
E180
E380
6380
6300
7300
3700
3600
3E00
1C00
1C00
1C00
1C00
3600
3600
3E00
1C00
ENDCHAR
STARTCHAR l.sups
ENCODING 737
SWIDTH 197 0
DWIDTH 5 0
BBX 3 10 1 11
BITMAP
E0
E0
E0
E0
E0
E0
E0
E0
E0
E0
ENDCHAR
STARTCHAR s.sups
ENCODING 738
SWIDTH 389 0
DWIDTH 10 0
BBX 8 8 1 11
BITMAP
7C
FE
C5
7C
3E
43
FE
3C
ENDCHAR
STARTCHAR x.sups
ENCODING 739
SWIDTH 400 0
DWIDTH 10 0
BBX 8 8 1 11
BITMAP
C3
66
3E
3C
3C
7E
66
C3
ENDCHAR
STARTCHAR uni0295.numr
ENCODING 740
SWIDTH 448 0
DWIDTH 11 0
BBX 9 10 1 8
BITMAP
3E00
7F00
6380
E000
E000
E000
6000
7C00
1C00
1C00
ENDCHAR
STARTCHAR uni02E5.cn
ENCODING 741
SWIDTH 363 0
DWIDTH 9 0
BBX 5 18 2 0
BITMAP
F8
F8
18
18
18
18
18
18
18
18
18
18
18
18
18
18
18
18
ENDCHAR
STARTCHAR uni02E6.cn
ENCODING 742
SWIDTH 363 0
DWIDTH 9 0
BBX 5 18 2 0
BITMAP
18
18
18
F8
F8
18
18
18
18
18
18
18
18
18
18
18
18
18
ENDCHAR
STARTCHAR uni02E7.cn
ENCODING 743
SWIDTH 363 0
DWIDTH 9 0
BBX 5 18 2 0
BITMAP
18
18
18
18
18
18
18
18
F8
F8
18
18
18
18
18
18
18
18
ENDCHAR
STARTCHAR uni02E8.cn
ENCODING 744
SWIDTH 363 0
DWIDTH 9 0
BBX 5 18 2 0
BITMAP
18
18
18
18
18
18
18
18
18
18
18
18
F8
F8
18
18
18
18
ENDCHAR
STARTCHAR uni02E9.cn
ENCODING 745
SWIDTH 363 0
DWIDTH 9 0
BBX 5 18 2 0
BITMAP
18
18
18
18
18
18
18
18
18
18
18
18
18
18
18
18
F8
F8
ENDCHAR
STARTCHAR uni02EA
ENCODING 746
SWIDTH 363 0
DWIDTH 9 0
BBX 7 11 1 0
BITMAP
E0
E0
E0
E0
E0
E0
E0
E0
E0
FE
FE
ENDCHAR
STARTCHAR uni02EB
ENCODING 747
SWIDTH 365 0
DWIDTH 9 0
BBX 7 11 1 0
BITMAP
E0
E0
E0
E0
FE
FE
E0
E0
E0
E0
E0
ENDCHAR
STARTCHAR uni02EC
ENCODING 748
SWIDTH 456 0
DWIDTH 11 0
BBX 8 4 2 -5
BITMAP
C7
66
3C
38
ENDCHAR
STARTCHAR uni02ED
ENCODING 749
SWIDTH 450 0
DWIDTH 11 0
BBX 8 5 2 14
BITMAP
FF
FF
00
FF
FF
ENDCHAR
STARTCHAR quotedblright.dup3
ENCODING 750
SWIDTH 440 0
DWIDTH 11 0
BBX 8 7 2 11
BITMAP
77
67
66
E6
C6
C6
CC
ENDCHAR
STARTCHAR uni02EF
ENCODING 751
SWIDTH 359 0
DWIDTH 9 0
BBX 7 6 1 -7
BITMAP
C6
44
6C
28
38
10
ENDCHAR
STARTCHAR uni02F0
ENCODING 752
SWIDTH 359 0
DWIDTH 9 0
BBX 7 6 1 -7
BITMAP
10
38
28
6C
44
C6
ENDCHAR
STARTCHAR uni02F1
ENCODING 753
SWIDTH 359 0
DWIDTH 9 0
BBX 7 6 1 -7
BITMAP
06
3C
E0
70
1E
02
ENDCHAR
STARTCHAR uni02F2
ENCODING 754
SWIDTH 359 0
DWIDTH 9 0
BBX 7 6 1 -7
BITMAP
C0
78
0E
1C
F0
80
ENDCHAR
STARTCHAR uni02F3
ENCODING 755
SWIDTH 283 0
DWIDTH 7 0
BBX 7 6 0 -7
BITMAP
38
7C
46
C6
7C
38
ENDCHAR
STARTCHAR uni02F4
ENCODING 756
SWIDTH 358 0
DWIDTH 9 0
BBX 4 4 3 4
BITMAP
E0
60
70
30
ENDCHAR
STARTCHAR uni02F5
ENCODING 757
SWIDTH 544 0
DWIDTH 14 0
BBX 8 4 3 16
BITMAP
CE
66
67
33
ENDCHAR
STARTCHAR uni02F6
ENCODING 758
SWIDTH 544 0
DWIDTH 14 0
BBX 8 4 3 16
BITMAP
67
E6
CC
CC
ENDCHAR
STARTCHAR uni02F7
ENCODING 759
SWIDTH 451 0
DWIDTH 11 0
BBX 9 3 1 -5
BITMAP
7980
7F80
C700
ENDCHAR
STARTCHAR uni02F8
ENCODING 760
SWIDTH 288 0
DWIDTH 7 0
BBX 3 13 2 5
BITMAP
E0
E0
E0
00
00
00
00
00
00
00
E0
E0
E0
ENDCHAR
STARTCHAR uni02F9
ENCODING 761
SWIDTH 267 0
DWIDTH 7 0
BBX 5 5 1 14
BITMAP
F8
F8
C0
C0
C0
ENDCHAR
STARTCHAR uni02FA
ENCODING 762
SWIDTH 267 0
DWIDTH 7 0
BBX 5 5 1 14
BITMAP
F8
F8
18
18
18
ENDCHAR
STARTCHAR uni02FB
ENCODING 763
SWIDTH 267 0
DWIDTH 7 0
BBX 5 5 1 -6
BITMAP
C0
C0
C0
F8
F8
ENDCHAR
STARTCHAR uni02FC
ENCODING 764
SWIDTH 267 0
DWIDTH 7 0
BBX 5 5 1 -6
BITMAP
18
18
18
F8
F8
ENDCHAR
STARTCHAR uni02FD
ENCODING 765
SWIDTH 451 0
DWIDTH 11 0
BBX 9 5 1 -6
BITMAP
C180
C180
C180
FF80
FF80
ENDCHAR
STARTCHAR uni02FE
ENCODING 766
SWIDTH 448 0
DWIDTH 11 0
BBX 9 5 1 -6
BITMAP
C000
C000
C000
FF80
FF80
ENDCHAR
STARTCHAR uni02FF
ENCODING 767
SWIDTH 450 0
DWIDTH 11 0
BBX 9 8 1 -5
BITMAP
0C00
1800
3000
7F80
FF80
6000
3000
1C00
ENDCHAR
STARTCHAR gravecomb
ENCODING 768
SWIDTH 0 0
DWIDTH 0 0
BBX 4 4 2 16
BITMAP
E0
60
60
30
ENDCHAR
STARTCHAR acutecomb
ENCODING 769
SWIDTH 0 0
DWIDTH 0 0
BBX 4 4 2 16
BITMAP
30
70
60
C0
ENDCHAR
STARTCHAR uni0302
ENCODING 770
SWIDTH 0 0
DWIDTH 0 0
BBX 8 4 1 16
BITMAP
18
3C
76
E7
ENDCHAR
STARTCHAR tildecomb
ENCODING 771
SWIDTH 0 0
DWIDTH 0 0
BBX 7 3 3 16
BITMAP
46
FE
9C
ENDCHAR
STARTCHAR uni0304
ENCODING 772
SWIDTH 0 0
DWIDTH 0 0
BBX 6 2 3 17
BITMAP
FC
FC
ENDCHAR
STARTCHAR uni0306
ENCODING 774
SWIDTH 0 0
DWIDTH 0 0
BBX 7 4 1 16
BITMAP
C2
C6
7E
3C
ENDCHAR
STARTCHAR uni0307
ENCODING 775
SWIDTH 0 0
DWIDTH 0 0
BBX 4 3 1 16
BITMAP
60
F0
60
ENDCHAR
STARTCHAR uni0308
ENCODING 776
SWIDTH 0 0
DWIDTH 0 0
BBX 8 3 3 16
BITMAP
63
E3
63
ENDCHAR
STARTCHAR hookabovecomb
ENCODING 777
SWIDTH 0 0
DWIDTH 0 0
BBX 4 4 1 16
BITMAP
F0
F0
30
60
ENDCHAR
STARTCHAR uni030A
ENCODING 778
SWIDTH 0 0
DWIDTH 0 0
BBX 6 6 1 15
BITMAP
70
FC
CC
8C
FC
70
ENDCHAR
STARTCHAR uni030C
ENCODING 780
SWIDTH 0 0
DWIDTH 0 0
BBX 8 4 1 16
BITMAP
C3
66
3C
1C
ENDCHAR
STARTCHAR uni030F
ENCODING 783
SWIDTH 0 0
DWIDTH 0 0
BBX 8 4 2 16
BITMAP
EE
66
33
33
ENDCHAR
STARTCHAR uni0313
ENCODING 787
SWIDTH 0 0
DWIDTH 0 0
BBX 3 7 5 5
BITMAP
60
60
60
60
60
E0
C0
ENDCHAR
STARTCHAR uni0315
ENCODING 789
SWIDTH 0 0
DWIDTH 0 0
BBX 3 7 5 5
BITMAP
60
60
60
60
60
E0
C0
ENDCHAR
STARTCHAR uni031B
ENCODING 795
SWIDTH 0 0
DWIDTH 0 0
BBX 4 5 -5 12
BITMAP
70
60
60
60
C0
ENDCHAR
STARTCHAR dotbelow
ENCODING 803
SWIDTH 241 0
DWIDTH 6 0
BBX 4 3 1 -5
BITMAP
60
F0
60
ENDCHAR
STARTCHAR commabelowcmb
ENCODING 806
SWIDTH 0 0
DWIDTH 0 0
BBX 4 5 -10 -7
BITMAP
30
30
60
60
C0
ENDCHAR
STARTCHAR uni0327
ENCODING 807
SWIDTH 0 0
DWIDTH 0 0
BBX 4 6 2 -5
BITMAP
40
40
F0
30
30
F0
ENDCHAR
STARTCHAR uni0328
ENCODING 808
SWIDTH 0 0
DWIDTH 0 0
BBX 5 6 1 -5
BITMAP
30
60
C0
C0
F8
78
ENDCHAR
STARTCHAR uni032C
ENCODING 812
SWIDTH 0 0
DWIDTH 0 0
BBX 8 4 1 -5
BITMAP
C3
66
3C
1C
ENDCHAR
STARTCHAR uni0337
ENCODING 823
SWIDTH 0 0
DWIDTH 0 0
BBX 10 17 -12 -2
BITMAP
00C0
0180
0180
0300
0300
0200
0600
0400
0C00
0800
1800
1000
3000
2000
6000
4000
C000
ENDCHAR
STARTCHAR uni0338
ENCODING 824
SWIDTH 0 0
DWIDTH 0 0
BBX 14 20 -14 -1
BITMAP
000C
0018
0010
0020
0060
0040
00C0
0080
0100
0300
0200
0600
0C00
0800
1800
1000
2000
6000
4000
C000
ENDCHAR
STARTCHAR uni0342
ENCODING 834
SWIDTH 0 0
DWIDTH 0 0
BBX 7 3 -10 16
BITMAP
46
FE
9C
ENDCHAR
STARTCHAR uni0343
ENCODING 835
SWIDTH 0 0
DWIDTH 0 0
BBX 4 5 0 11
BITMAP
70
60
60
60
C0
ENDCHAR
STARTCHAR uni0346
ENCODING 838
SWIDTH 0 0
DWIDTH 0 0
BBX 8 5 -11 15
BITMAP
FF
FF
C3
C3
C3
ENDCHAR
STARTCHAR uni0347
ENCODING 839
SWIDTH 0 0
DWIDTH 0 0
BBX 7 5 -11 -8
BITMAP
FE
FE
00
FE
FE
ENDCHAR
STARTCHAR uni0348
ENCODING 840
SWIDTH 0 0
DWIDTH 0 0
BBX 5 5 -9 -6
BITMAP
D8
D8
D8
D8
D8
ENDCHAR
STARTCHAR uni0349
ENCODING 841
SWIDTH 0 0
DWIDTH 0 0
BBX 5 5 -9 -6
BITMAP
F8
F8
18
18
18
ENDCHAR
STARTCHAR uni034A
ENCODING 842
SWIDTH 0 0
DWIDTH 0 0
BBX 9 5 -12 15
BITMAP
0400
7780
FF80
CF00
1800
ENDCHAR
STARTCHAR uni034B
ENCODING 843
SWIDTH 0 0
DWIDTH 0 0
BBX 9 9 -12 14
BITMAP
1800
1C00
1800
7180
FF00
CF00
1800
1C00
1800
ENDCHAR
STARTCHAR uni034C
ENCODING 844
SWIDTH 0 0
DWIDTH 0 0
BBX 8 5 -11 16
BITMAP
71
FF
71
FF
8E
ENDCHAR
STARTCHAR uni034D
ENCODING 845
SWIDTH 0 0
DWIDTH 0 0
BBX 10 5 -12 -6
BITMAP
3300
4180
FFC0
4180
3300
ENDCHAR
STARTCHAR uni034E
ENCODING 846
SWIDTH 0 0
DWIDTH 0 0
BBX 6 6 -10 -7
BITMAP
20
30
F8
A4
A4
20
ENDCHAR
STARTCHAR uni034F
ENCODING 847
SWIDTH 0 0
DWIDTH 0 0
BBX 1 1 0 0
BITMAP
00
ENDCHAR
STARTCHAR uni0350
ENCODING 848
SWIDTH 0 0
DWIDTH 0 0
BBX 9 9 -11 15
BITMAP
C000
F000
7E00
0F80
0780
1F00
F800
E000
8000
ENDCHAR
STARTCHAR uni0351
ENCODING 849
SWIDTH 0 0
DWIDTH 0 0
BBX 3 5 -8 14
BITMAP
60
C0
C0
C0
60
ENDCHAR
STARTCHAR uni0352
ENCODING 850
SWIDTH 0 0
DWIDTH 0 0
BBX 8 7 -11 14
BITMAP
3C
7E
E6
C3
18
38
18
ENDCHAR
STARTCHAR uni0353
ENCODING 851
SWIDTH 0 0
DWIDTH 0 0
BBX 6 5 -9 -6
BITMAP
CC
78
30
78
CC
ENDCHAR
STARTCHAR uni0354
ENCODING 852
SWIDTH 0 0
DWIDTH 0 0
BBX 6 6 -9 -7
BITMAP
0C
38
E0
F0
1C
04
ENDCHAR
STARTCHAR uni0355
ENCODING 853
SWIDTH 0 0
DWIDTH 0 0
BBX 7 6 -9 -7
BITMAP
C0
78
0E
1C
E0
80
ENDCHAR
STARTCHAR uni0356
ENCODING 854
SWIDTH 0 0
DWIDTH 0 0
BBX 13 6 -11 -7
BITMAP
C040
70E0
1CA0
3DA0
E130
8318
ENDCHAR
STARTCHAR uni0357
ENCODING 855
SWIDTH 0 0
DWIDTH 0 0
BBX 3 6 1 15
BITMAP
C0
E0
60
60
E0
C0
ENDCHAR
STARTCHAR uni0358
ENCODING 856
SWIDTH 0 0
DWIDTH 0 0
BBX 4 3 1 16
BITMAP
60
F0
60
ENDCHAR
STARTCHAR uni0359
ENCODING 857
SWIDTH 0 0
DWIDTH 0 0
BBX 6 6 -10 -7
BITMAP
20
20
FC
30
58
50
ENDCHAR
STARTCHAR uni035A
ENCODING 858
SWIDTH 0 0
DWIDTH 0 0
BBX 10 5 -12 -6
BITMAP
7F80
CCC0
CC40
CCC0
7F80
ENDCHAR
STARTCHAR uni035B
ENCODING 859
SWIDTH 0 0
DWIDTH 0 0
BBX 4 5 -9 15
BITMAP
60
C0
F0
30
30
ENDCHAR
STARTCHAR uni035C
ENCODING 860
SWIDTH 0 0
DWIDTH 0 0
BBX 18 4 -9 -4
BITMAP
E001C0
3C0F00
1FFE00
03F800
ENDCHAR
STARTCHAR uni035D
ENCODING 861
SWIDTH 0 0
DWIDTH 0 0
BBX 18 4 -9 15
BITMAP
E001C0
3C0F00
1FFE00
03F800
ENDCHAR
STARTCHAR uni035E
ENCODING 862
SWIDTH 0 0
DWIDTH 0 0
BBX 14 2 -14 17
BITMAP
FFFC
FFFC
ENDCHAR
STARTCHAR uni035F
ENCODING 863
SWIDTH 0 0
DWIDTH 0 0
BBX 14 2 -14 -4
BITMAP
FFFC
FFFC
ENDCHAR
STARTCHAR uni0360
ENCODING 864
SWIDTH 0 0
DWIDTH 0 0
BBX 24 3 -12 16
BITMAP
3FF003
7FFFFE
C00FFC
ENDCHAR
STARTCHAR uni0361
ENCODING 865
SWIDTH 0 0
DWIDTH 0 0
BBX 18 4 -9 15
BITMAP
03F000
1FFE00
3C0F00
E001C0
ENDCHAR
STARTCHAR uni0362
ENCODING 866
SWIDTH 0 0
DWIDTH 0 0
BBX 18 5 -8 -6
BITMAP
000700
000180
FFFFC0
000180
000700
ENDCHAR
STARTCHAR uni0363
ENCODING 867
SWIDTH 0 0
DWIDTH 0 0
BBX 6 7 -10 15
BITMAP
78
CC
0C
7C
CC
CC
7C
ENDCHAR
STARTCHAR uni0364
ENCODING 868
SWIDTH 0 0
DWIDTH 0 0
BBX 6 7 -10 15
BITMAP
38
6C
C4
FC
C0
C4
7C
ENDCHAR
STARTCHAR uni0365
ENCODING 869
SWIDTH 0 0
DWIDTH 0 0
BBX 2 9 -8 15
BITMAP
C0
C0
C0
C0
C0
C0
C0
C0
C0
ENDCHAR
STARTCHAR uni0366
ENCODING 870
SWIDTH 0 0
DWIDTH 0 0
BBX 6 7 -10 15
BITMAP
78
CC
C4
C4
C4
CC
78
ENDCHAR
STARTCHAR uni0367
ENCODING 871
SWIDTH 0 0
DWIDTH 0 0
BBX 6 7 -10 15
BITMAP
CC
CC
CC
CC
CC
CC
74
ENDCHAR
STARTCHAR uni0368
ENCODING 872
SWIDTH 0 0
DWIDTH 0 0
BBX 6 7 -10 15
BITMAP
78
CC
C0
C0
C0
CC
78
ENDCHAR
STARTCHAR uni0369
ENCODING 873
SWIDTH 0 0
DWIDTH 0 0
BBX 6 10 -10 15
BITMAP
0C
0C
0C
7C
CC
CC
8C
CC
CC
7C
ENDCHAR
STARTCHAR uni036A
ENCODING 874
SWIDTH 0 0
DWIDTH 0 0
BBX 6 10 -10 15
BITMAP
C0
C0
C0
F8
CC
CC
CC
CC
CC
CC
ENDCHAR
STARTCHAR uni036B
ENCODING 875
SWIDTH 0 0
DWIDTH 0 0
BBX 10 7 -12 15
BITMAP
FB80
CCC0
CCC0
CCC0
CCC0
CCC0
CCC0
ENDCHAR
STARTCHAR uni036C
ENCODING 876
SWIDTH 0 0
DWIDTH 0 0
BBX 4 7 -9 15
BITMAP
F0
E0
C0
C0
C0
C0
C0
ENDCHAR
STARTCHAR uni036D
ENCODING 877
SWIDTH 0 0
DWIDTH 0 0
BBX 5 8 0 15
BITMAP
20
F8
20
20
20
20
20
30
ENDCHAR
STARTCHAR uni036E
ENCODING 878
SWIDTH 0 0
DWIDTH 0 0
BBX 6 7 -10 15
BITMAP
CC
CC
48
78
38
30
30
ENDCHAR
STARTCHAR uni036F
ENCODING 879
SWIDTH 0 0
DWIDTH 0 0
BBX 6 7 -9 15
BITMAP
CC
58
70
30
70
58
CC
ENDCHAR
STARTCHAR numeralgreek
ENCODING 884
SWIDTH 266 0
DWIDTH 7 0
BBX 2 7 3 11
BITMAP
C0
C0
C0
C0
C0
C0
C0
ENDCHAR
STARTCHAR numeralgreeksub
ENCODING 885
SWIDTH 269 0
DWIDTH 7 0
BBX 4 5 1 -5
BITMAP
10
30
30
60
E0
ENDCHAR
STARTCHAR uni0376
ENCODING 886
SWIDTH 753 0
DWIDTH 19 0
BBX 15 18 2 0
BITMAP
E00E
E01E
E03E
E03E
E07E
E0EE
E0CE
E1CE
E38E
E30E
E70E
E60E
CE0E
DC0E
D80E
F80E
F00E
E00E
ENDCHAR
STARTCHAR uni037A
ENCODING 890
SWIDTH 268 0
DWIDTH 7 0
BBX 3 4 2 -6
BITMAP
C0
C0
C0
E0
ENDCHAR
STARTCHAR uni037B
ENCODING 891
SWIDTH 542 0
DWIDTH 14 0
BBX 11 14 1 0
BITMAP
1F00
3F80
71C0
E0E0
E060
0060
0060
0060
0060
0060
E0E0
71C0
3FC0
1F00
ENDCHAR
STARTCHAR uni037C
ENCODING 892
SWIDTH 571 0
DWIDTH 14 0
BBX 12 14 1 0
BITMAP
0F80
3FE0
3870
6030
6000
E700
E700
E700
E000
6020
6070
38E0
3FE0
0F80
ENDCHAR
STARTCHAR uni037D
ENCODING 893
SWIDTH 565 0
DWIDTH 14 0
BBX 12 14 1 0
BITMAP
1F00
3FC0
70E0
E060
0070
0E70
0E30
0E30
0070
C070
E060
70E0
3FC0
1F00
ENDCHAR
STARTCHAR uni037E
ENCODING 894
SWIDTH 301 0
DWIDTH 8 0
BBX 4 18 2 -5
BITMAP
60
F0
60
00
00
00
00
00
00
00
00
60
E0
C0
C0
C0
C0
80
ENDCHAR
STARTCHAR uni037F
ENCODING 895
SWIDTH 570 0
DWIDTH 14 0
BBX 11 18 1 0
BITMAP
0060
0060
0060
0060
0060
0060
0060
0060
0060
0060
0060
0060
E060
E060
E0E0
71C0
3FC0
1F00
ENDCHAR
STARTCHAR tonos
ENCODING 900
SWIDTH 270 0
DWIDTH 7 0
BBX 3 4 2 16
BITMAP
E0
C0
C0
C0
ENDCHAR
STARTCHAR dieresistonos
ENCODING 901
SWIDTH 672 0
DWIDTH 17 0
BBX 10 6 3 16
BITMAP
0600
0600
0600
64C0
E0C0
60C0
ENDCHAR
STARTCHAR Alphatonos
ENCODING 902
SWIDTH 689 0
DWIDTH 17 0
BBX 16 19 1 0
BITMAP
6000
6380
6380
46C0
06C0
06E0
0C60
0C60
1C70
1830
1830
3838
3FF8
3FFC
700C
600C
600E
E006
C007
ENDCHAR
STARTCHAR anoteleia
ENCODING 903
SWIDTH 288 0
DWIDTH 7 0
BBX 3 3 2 11
BITMAP
E0
E0
E0
ENDCHAR
STARTCHAR Epsilontonos
ENCODING 904
SWIDTH 738 0
DWIDTH 18 0
BBX 16 19 1 0
BITMAP
6000
E7FF
C7FF
C600
0600
0600
0600
0600
0600
07FE
07FE
0600
0600
0600
0600
0600
0600
07FF
07FF
ENDCHAR
STARTCHAR Etatonos
ENCODING 905
SWIDTH 880 0
DWIDTH 22 0
BBX 19 19 1 0
BITMAP
600000
E600E0
C600E0
C600E0
0600E0
0600E0
0600E0
0600E0
0600E0
07FFE0
07FFE0
0600E0
0600E0
0600E0
0600E0
0600E0
0600E0
0600E0
0600E0
ENDCHAR
STARTCHAR Iotatonos
ENCODING 906
SWIDTH 405 0
DWIDTH 10 0
BBX 7 19 1 0
BITMAP
60
E6
C6
C6
06
06
06
06
06
06
06
06
06
06
06
06
06
06
06
ENDCHAR
STARTCHAR Omicrontonos
ENCODING 908
SWIDTH 861 0
DWIDTH 22 0
BBX 19 19 1 0
BITMAP
600000
E0FC00
C3FF00
C78780
0E01C0
0C00C0
1C00E0
1800E0
180060
180060
180060
180060
1800E0
1C00E0
0C00C0
0E01C0
078780
03FF00
00FC00
ENDCHAR
STARTCHAR Upsilontonos
ENCODING 910
SWIDTH 878 0
DWIDTH 22 0
BBX 20 19 1 0
BITMAP
600000
E70070
C30060
C380E0
0180C0
01C1C0
00E380
006300
007700
003600
001C00
001C00
001C00
001C00
001C00
001C00
001C00
001C00
001C00
ENDCHAR
STARTCHAR Omegatonos
ENCODING 911
SWIDTH 870 0
DWIDTH 22 0
BBX 19 19 1 0
BITMAP
600000
E0FC00
C3FF00
C78380
0E01C0
0C00C0
1C00E0
1C0060
180060
180060
180060
1C0060
0C00E0
0E00C0
0701C0
03C700
01C600
1FC7E0
1FC7E0
ENDCHAR
STARTCHAR iotadieresistonos
ENCODING 912
SWIDTH 275 0
DWIDTH 7 0
BBX 8 23 -1 0
BITMAP
0C
1C
18
18
00
66
E7
66
00
18
18
18
18
18
18
18
18
18
18
18
18
1E
0E
ENDCHAR
STARTCHAR Alpha
ENCODING 913
SWIDTH 689 0
DWIDTH 17 0
BBX 16 18 1 0
BITMAP
0380
0380
06C0
06C0
06E0
0C60
0C60
1C70
1830
1830
3838
3FF8
3FFC
700C
600C
600E
E006
C007
ENDCHAR
STARTCHAR Beta
ENCODING 914
SWIDTH 654 0
DWIDTH 16 0
BBX 13 18 2 0
BITMAP
FF80
FFE0
E070
E030
E030
E030
E030
E0E0
FFC0
FFE0
E070
E038
E018
E018
E038
E070
FFF0
FFC0
ENDCHAR
STARTCHAR Gamma
ENCODING 915
SWIDTH 578 0
DWIDTH 14 0
BBX 11 18 2 0
BITMAP
FFE0
FFE0
E000
E000
E000
E000
E000
E000
E000
E000
E000
E000
E000
E000
E000
E000
E000
E000
ENDCHAR
STARTCHAR uni0394.dup4
ENCODING 916
SWIDTH 681 0
DWIDTH 17 0
BBX 15 18 1 0
BITMAP
0380
0380
07C0
06C0
06C0
0EE0
0C60
0C70
1C30
1830
3838
3018
3018
701C
600C
600C
FFFE
FFFE
ENDCHAR
STARTCHAR Epsilon
ENCODING 917
SWIDTH 601 0
DWIDTH 15 0
BBX 11 18 2 0
BITMAP
FFE0
FFE0
E000
E000
E000
E000
E000
E000
FFE0
FFE0
E000
E000
E000
E000
E000
E000
FFE0
FFE0
ENDCHAR
STARTCHAR Zeta
ENCODING 918
SWIDTH 628 0
DWIDTH 16 0
BBX 13 18 1 0
BITMAP
FFF8
FFF8
0038
0070
0060
00E0
01C0
0180
0300
0700
0600
0C00
1C00
1800
3000
7000
7FF8
7FF8
ENDCHAR
STARTCHAR Eta
ENCODING 919
SWIDTH 743 0
DWIDTH 19 0
BBX 14 18 2 0
BITMAP
E00C
E00C
E00C
E00C
E00C
E00C
E00C
E00C
FFFC
FFFC
E00C
E00C
E00C
E00C
E00C
E00C
E00C
E00C
ENDCHAR
STARTCHAR Theta
ENCODING 920
SWIDTH 764 0
DWIDTH 19 0
BBX 17 18 1 0
BITMAP
03E000
0FF800
1C1C00
380E00
700700
600300
600300
600380
E7F380
E7F380
600380
600300
600300
700700
380E00
1C1C00
0FF800
03F000
ENDCHAR
STARTCHAR IotaGreek
ENCODING 921
SWIDTH 268 0
DWIDTH 7 0
BBX 3 18 2 0
BITMAP
E0
E0
E0
E0
E0
E0
E0
E0
E0
E0
E0
E0
E0
E0
E0
E0
E0
E0
ENDCHAR
STARTCHAR Kappa
ENCODING 922
SWIDTH 671 0
DWIDTH 17 0
BBX 14 18 2 0
BITMAP
E01C
E038
E070
E0E0
E1C0
E380
E700
EE00
FE00
FF00
F380
E180
E1C0
E0E0
E070
E030
E038
E01C
ENDCHAR
STARTCHAR Lambda
ENCODING 923
SWIDTH 689 0
DWIDTH 17 0
BBX 16 18 1 0
BITMAP
0380
0380
06C0
06C0
06E0
0C60
0C60
1C70
1830
1830
3838
3018
301C
700C
600C
600E
E006
C007
ENDCHAR
STARTCHAR Mu
ENCODING 924
SWIDTH 903 0
DWIDTH 23 0
BBX 18 18 2 0
BITMAP
F001C0
F003C0
F003C0
D803C0
D807C0
DC06C0
CC06C0
CC0CC0
CE0CC0
C61CC0
C718C0
C318C0
C330C0
C3B0C0
C1B0C0
C1E0C0
C0E0C0
C0E0C0
ENDCHAR
STARTCHAR Nu
ENCODING 925
SWIDTH 753 0
DWIDTH 19 0
BBX 15 18 2 0
BITMAP
E00E
F00E
F80E
D80E
DC0E
CC0E
CE0E
E70E
E30E
E38E
E1CE
E0CE
E0EE
E07E
E03E
E03E
E01E
E00E
ENDCHAR
STARTCHAR Xi
ENCODING 926
SWIDTH 656 0
DWIDTH 16 0
BBX 13 18 2 0
BITMAP
FFF8
FFF8
0000
0000
0000
0000
0000
0000
7FF0
7FF0
0000
0000
0000
0000
0000
0000
FFF8
FFF8
ENDCHAR
STARTCHAR Omicron
ENCODING 927
SWIDTH 764 0
DWIDTH 19 0
BBX 17 18 1 0
BITMAP
03E000
0FF800
1C1C00
380E00
700700
600300
600300
600380
E00380
E00380
600380
600300
600300
700700
380E00
1C1C00
0FF800
03F000
ENDCHAR
STARTCHAR Pi
ENCODING 928
SWIDTH 743 0
DWIDTH 19 0
BBX 14 18 2 0
BITMAP
FFFC
FFFC
E00C
E00C
E00C
E00C
E00C
E00C
E00C
E00C
E00C
E00C
E00C
E00C
E00C
E00C
E00C
E00C
ENDCHAR
STARTCHAR Rho
ENCODING 929
SWIDTH 638 0
DWIDTH 16 0
BBX 13 18 2 0
BITMAP
FF80
FFE0
E070
E030
E038
E038
E038
E030
E070
FFE0
FF80
E000
E000
E000
E000
E000
E000
E000
ENDCHAR
STARTCHAR Sigma
ENCODING 931
SWIDTH 688 0
DWIDTH 17 0
BBX 14 18 2 0
BITMAP
FFF8
FFF8
6000
3800
1C00
0E00
0700
0380
0180
0380
0700
0E00
1C00
3800
7000
E000
FFFC
FFFC
ENDCHAR
STARTCHAR Tau
ENCODING 932
SWIDTH 645 0
DWIDTH 16 0
BBX 14 18 1 0
BITMAP
FFFC
FFFC
0300
0300
0300
0300
0300
0300
0300
0300
0300
0300
0300
0300
0300
0300
0300
0300
ENDCHAR
STARTCHAR Upsilon
ENCODING 933
SWIDTH 678 0
DWIDTH 17 0
BBX 15 18 1 0
BITMAP
E00E
600C
701C
3018
3838
1C70
0C60
0EE0
06C0
0380
0380
0380
0380
0380
0380
0380
0380
0380
ENDCHAR
STARTCHAR Phi
ENCODING 934
SWIDTH 880 0
DWIDTH 22 0
BBX 20 20 1 -1
BITMAP
006000
006000
03FC00
0FFF00
1C6380
3861C0
7060E0
606060
606060
E06060
E06070
606060
606060
7060E0
3861C0
1C6380
0FFF00
03FC00
006000
006000
ENDCHAR
STARTCHAR Chi
ENCODING 935
SWIDTH 682 0
DWIDTH 17 0
BBX 15 18 1 0
BITMAP
E00E
701C
3018
1838
1C70
0C60
06E0
07C0
0380
0380
06C0
0EE0
0C70
1C30
3838
701C
600C
E00E
ENDCHAR
STARTCHAR Psi
ENCODING 936
SWIDTH 879 0
DWIDTH 22 0
BBX 18 18 2 0
BITMAP
C0C0C0
C0C0C0
C0C0C0
C0C0C0
C0C0C0
C0C1C0
E0C1C0
E0C1C0
60C180
70C380
38C700
1FFE00
07F800
00C000
00C000
00C000
00C000
00C000
ENDCHAR
STARTCHAR uni03A9.dup5
ENCODING 937
SWIDTH 770 0
DWIDTH 19 0
BBX 17 18 1 0
BITMAP
03F000
0FFC00
1C1E00
380600
700700
600300
600380
E00380
E00380
600380
600380
600300
300700
380E00
1E3C00
063000
7E3F80
7E3F80
ENDCHAR
STARTCHAR Iotadieresis
ENCODING 938
SWIDTH 268 0
DWIDTH 7 0
BBX 8 24 -1 0
BITMAP
63
E7
63
00
00
00
1C
1C
1C
1C
1C
1C
1C
1C
1C
1C
1C
1C
1C
1C
1C
1C
1C
1C
ENDCHAR
STARTCHAR Upsilondieresis
ENCODING 939
SWIDTH 678 0
DWIDTH 17 0
BBX 15 24 1 0
BITMAP
0C60
1C70
0C60
0000
0000
0000
E00E
600C
701C
3018
3838
1C70
0C60
0EE0
06C0
0380
0380
0380
0380
0380
0380
0380
0380
0380
ENDCHAR
STARTCHAR alphatonos
ENCODING 940
SWIDTH 664 0
DWIDTH 17 0
BBX 15 20 1 0
BITMAP
0380
0300
0300
0200
0000
0000
0F8C
3FCC
38EC
606C
6038
E038
E018
E018
E038
6038
606C
30EC
3FCC
0F8E
ENDCHAR
STARTCHAR epsilontonos
ENCODING 941
SWIDTH 537 0
DWIDTH 13 0
BBX 11 20 1 0
BITMAP
0700
0600
0600
0600
0000
0000
1F80
3FC0
70E0
6060
6000
7000
3E00
3E00
7000
E000
E060
70E0
7FC0
1F80
ENDCHAR
STARTCHAR etatonos
ENCODING 942
SWIDTH 591 0
DWIDTH 15 0
BBX 11 25 2 -5
BITMAP
0700
0600
0600
0400
0000
0000
CF00
DFC0
F1C0
E0E0
C060
C060
C060
C060
C060
C060
C060
C060
C060
C060
0060
0060
0060
0060
0060
ENDCHAR
STARTCHAR iotatonos
ENCODING 943
SWIDTH 275 0
DWIDTH 7 0
BBX 4 20 2 0
BITMAP
60
60
C0
C0
00
00
C0
C0
C0
C0
C0
C0
C0
C0
C0
C0
C0
C0
F0
70
ENDCHAR
STARTCHAR upsilondieresistonos
ENCODING 944
SWIDTH 591 0
DWIDTH 15 0
BBX 11 22 2 0
BITMAP
0600
0600
0600
64C0
E0C0
60C0
0000
0000
C060
C060
C060
C060
C060
C060
C060
C060
C060
C060
E0E0
61C0
7FC0
1F00
ENDCHAR
STARTCHAR alpha
ENCODING 945
SWIDTH 664 0
DWIDTH 17 0
BBX 15 14 1 0
BITMAP
0F8C
3FCC
38EC
606C
6038
E038
E018
E018
E038
6038
606C
30EC
3FCC
0F8E
ENDCHAR
STARTCHAR beta
ENCODING 946
SWIDTH 595 0
DWIDTH 15 0
BBX 11 23 2 -5
BITMAP
1F00
7FC0
61C0
C0E0
C060
C0E0
C1C0
CF80
CF80
C0E0
C060
C060
C060
C060
E060
F0E0
DFC0
CF00
C000
C000
C000
C000
C000
ENDCHAR
STARTCHAR gamma
ENCODING 947
SWIDTH 562 0
DWIDTH 14 0
BBX 12 19 1 -5
BITMAP
C030
E070
6060
6060
70E0
30C0
30C0
39C0
1980
1980
0F00
0F00
0F00
0600
0600
0600
0600
0600
0600
ENDCHAR
STARTCHAR delta
ENCODING 948
SWIDTH 583 0
DWIDTH 15 0
BBX 12 18 1 0
BITMAP
07E0
1FE0
3800
3000
1800
0E00
1FC0
38E0
6070
6030
E030
E030
E030
E030
6070
70E0
3FE0
0F80
ENDCHAR
STARTCHAR epsilon
ENCODING 949
SWIDTH 537 0
DWIDTH 13 0
BBX 11 14 1 0
BITMAP
1F80
3FC0
70E0
6060
6000
7000
3E00
3E00
7000
E000
E060
70E0
7FC0
1F80
ENDCHAR
STARTCHAR zeta
ENCODING 950
SWIDTH 509 0
DWIDTH 13 0
BBX 11 21 1 -3
BITMAP
7FC0
7FC0
01C0
0380
0300
0600
0E00
1C00
3800
3000
6000
6000
E000
E000
E000
7000
3F80
1FC0
00C0
00E0
00E0
ENDCHAR
STARTCHAR eta
ENCODING 951
SWIDTH 591 0
DWIDTH 15 0
BBX 11 19 2 -5
BITMAP
CF00
DFC0
F1C0
E0E0
C060
C060
C060
C060
C060
C060
C060
C060
C060
C060
0060
0060
0060
0060
0060
ENDCHAR
STARTCHAR theta
ENCODING 952
SWIDTH 621 0
DWIDTH 16 0
BBX 13 18 1 0
BITMAP
0F80
1FE0
3860
7030
6030
6018
6018
E018
FFF8
FFF8
6018
6018
6018
6030
7030
3860
1FE0
0F80
ENDCHAR
STARTCHAR iota
ENCODING 953
SWIDTH 275 0
DWIDTH 7 0
BBX 4 14 2 0
BITMAP
C0
C0
C0
C0
C0
C0
C0
C0
C0
C0
C0
C0
F0
70
ENDCHAR
STARTCHAR kappa
ENCODING 954
SWIDTH 525 0
DWIDTH 13 0
BBX 11 14 2 0
BITMAP
C0E0
C1C0
C380
C700
CE00
CC00
F800
F800
DC00
CE00
C700
C380
C180
C0E0
ENDCHAR
STARTCHAR lambda
ENCODING 955
SWIDTH 641 0
DWIDTH 16 0
BBX 15 18 1 0
BITMAP
7800
7C00
0C00
0E00
0600
0600
0F00
0F00
1D80
1980
1980
30C0
30C0
70E0
6060
6070
E03C
C01E
ENDCHAR
STARTCHAR uni03BC
ENCODING 956
SWIDTH 585 0
DWIDTH 15 0
BBX 13 19 2 -5
BITMAP
C060
C060
C060
C060
C060
C060
C060
C060
C060
C060
C0E0
E0E0
FFF8
DE38
C000
C000
C000
C000
C000
ENDCHAR
STARTCHAR nu
ENCODING 957
SWIDTH 586 0
DWIDTH 15 0
BBX 13 14 1 0
BITMAP
C038
E030
7030
3070
3060
3860
18E0
18C0
1CC0
0D80
0D80
0780
0700
0700
ENDCHAR
STARTCHAR xi
ENCODING 958
SWIDTH 558 0
DWIDTH 14 0
BBX 11 21 1 -3
BITMAP
7FE0
7FE0
1C00
3000
7000
7000
7000
3800
0FC0
1FC0
7000
6000
E000
E000
6000
7000
3FC0
1FE0
0060
0060
0060
ENDCHAR
STARTCHAR omicron
ENCODING 959
SWIDTH 599 0
DWIDTH 15 0
BBX 13 14 1 0
BITMAP
0F80
3FE0
38E0
6030
6030
E038
E038
E038
E038
6030
6030
38E0
3FE0
0F80
ENDCHAR
STARTCHAR pi
ENCODING 960
SWIDTH 604 0
DWIDTH 15 0
BBX 15 14 0 0
BITMAP
FFFE
FFFE
1830
1830
1830
1830
1830
1830
1830
1830
1830
1830
183C
181E
ENDCHAR
STARTCHAR rho
ENCODING 961
SWIDTH 612 0
DWIDTH 15 0
BBX 12 19 2 -5
BITMAP
1F80
3FC0
70E0
6060
C070
C030
C030
C030
C030
E070
E060
F0E0
DFC0
CF80
C000
C000
C000
C000
C000
ENDCHAR
STARTCHAR uni03C2
ENCODING 962
SWIDTH 569 0
DWIDTH 14 0
BBX 12 17 1 -3
BITMAP
0F80
3FE0
38E0
7070
6040
E000
E000
E000
E000
6000
6000
7800
3FC0
0FE0
0060
0070
0070
ENDCHAR
STARTCHAR sigma
ENCODING 963
SWIDTH 624 0
DWIDTH 16 0
BBX 14 14 1 0
BITMAP
0FFC
3FFC
70C0
6020
6030
E038
E038
E038
E038
6030
6070
38E0
3FE0
0F80
ENDCHAR
STARTCHAR tau
ENCODING 964
SWIDTH 465 0
DWIDTH 12 0
BBX 11 14 0 0
BITMAP
FFE0
FFE0
0600
0600
0600
0600
0600
0600
0600
0600
0600
0600
07C0
03C0
ENDCHAR
STARTCHAR upsilon
ENCODING 965
SWIDTH 591 0
DWIDTH 15 0
BBX 11 14 2 0
BITMAP
C060
C060
C060
C060
C060
C060
C060
C060
C060
C060
E0E0
61C0
7FC0
1F00
ENDCHAR
STARTCHAR phi
ENCODING 966
SWIDTH 720 0
DWIDTH 18 0
BBX 16 19 1 -5
BITMAP
0878
38FC
318E
6186
6186
E187
C183
C187
E187
6186
618E
399C
3FF8
0FF0
0180
0180
0180
0180
0180
ENDCHAR
STARTCHAR chi
ENCODING 967
SWIDTH 568 0
DWIDTH 14 0
BBX 14 19 0 -5
BITMAP
E018
F038
3830
1860
1C60
0CC0
0EC0
0780
0780
0300
0780
0780
0FC0
0CC0
1CE0
1860
3870
303C
701C
ENDCHAR
STARTCHAR psi
ENCODING 968
SWIDTH 777 0
DWIDTH 19 0
BBX 16 23 2 -5
BITMAP
0180
0180
0180
0180
C187
C187
C187
C187
C187
C187
C187
C186
C186
E186
618E
719C
3FF8
0FF0
0180
0180
0180
0180
0180
ENDCHAR
STARTCHAR omega
ENCODING 969
SWIDTH 804 0
DWIDTH 20 0
BBX 18 14 1 0
BITMAP
1C0E00
300300
700380
600180
600180
E0C1C0
E0C0C0
C0C0C0
E0C0C0
E0C1C0
60E180
71E380
3F3F00
1E1E00
ENDCHAR
STARTCHAR iotadieresis
ENCODING 970
SWIDTH 275 0
DWIDTH 7 0
BBX 8 19 -1 0
BITMAP
C3
E7
E3
00
00
18
18
18
18
18
18
18
18
18
18
18
18
1E
0E
ENDCHAR
STARTCHAR upsilondieresis
ENCODING 971
SWIDTH 591 0
DWIDTH 15 0
BBX 11 19 2 0
BITMAP
3180
7180
3180
0000
0000
C060
C060
C060
C060
C060
C060
C060
C060
C060
C060
E0E0
61C0
7FC0
1F00
ENDCHAR
STARTCHAR omicrontonos
ENCODING 972
SWIDTH 599 0
DWIDTH 15 0
BBX 13 20 1 0
BITMAP
0380
0300
0300
0200
0000
0000
0F80
3FE0
38E0
6030
6030
E038
E038
E038
E038
6030
6030
38E0
3FE0
0F80
ENDCHAR
STARTCHAR upsilontonos
ENCODING 973
SWIDTH 591 0
DWIDTH 15 0
BBX 11 20 2 0
BITMAP
0600
0600
0600
0400
0000
0000
C060
C060
C060
C060
C060
C060
C060
C060
C060
C060
E0E0
61C0
7FC0
1F00
ENDCHAR
STARTCHAR omegatonos
ENCODING 974
SWIDTH 804 0
DWIDTH 20 0
BBX 18 20 1 0
BITMAP
006000
006000
00C000
00C000
000000
000000
1C0E00
300300
700380
600180
600180
E0C1C0
E0C0C0
C0C0C0
E0C0C0
E0C1C0
60E180
71E380
3F3F00
1E1E00
ENDCHAR
STARTCHAR uni03CF
ENCODING 975
SWIDTH 671 0
DWIDTH 17 0
BBX 14 23 2 -5
BITMAP
E01C
E038
E070
E0E0
E1C0
E380
E700
EE00
FE00
FF00
F380
E180
E1C0
E0E0
E070
E030
E038
E01C
001C
0038
0030
0070
0060
ENDCHAR
STARTCHAR beta1
ENCODING 976
SWIDTH 633 0
DWIDTH 16 0
BBX 12 19 2 0
BITMAP
0F80
3FC0
30C0
60C0
7FC0
DF80
C000
CF80
DFC0
F0E0
E070
E070
E070
E070
E070
6060
70E0
3FC0
1F80
ENDCHAR
STARTCHAR uni03D1
ENCODING 977
SWIDTH 634 0
DWIDTH 16 0
BBX 12 18 2 0
BITMAP
0F80
1FC0
38C0
38E0
38E0
38E0
38E0
1CE0
0FE0
C7F0
C1F0
C0E0
C0E0
C0E0
E0C0
E1C0
7F80
1F00
ENDCHAR
STARTCHAR uni03D2
ENCODING 978
SWIDTH 671 0
DWIDTH 17 0
BBX 15 18 1 0
BITMAP
E01E
F01C
3838
1830
1C70
0C60
0EE0
06C0
07C0
0780
0380
0380
0380
0380
0380
0380
0380
0380
ENDCHAR
STARTCHAR uni03D3
ENCODING 979
SWIDTH 844 0
DWIDTH 21 0
BBX 19 19 1 0
BITMAP
600000
E700E0
C781E0
C18180
01C300
00C300
00E700
006600
006E00
007C00
003C00
003800
001800
001800
001800
001800
001800
001800
001800
ENDCHAR
STARTCHAR uni03D4
ENCODING 980
SWIDTH 671 0
DWIDTH 17 0
BBX 15 24 1 0
BITMAP
0C60
1C60
0C60
0000
0000
0000
E01E
F01C
3838
1830
1C70
0C60
0EE0
06C0
07C0
0780
0380
0380
0380
0380
0380
0380
0380
0380
ENDCHAR
STARTCHAR phigreek
ENCODING 981
SWIDTH 685 0
DWIDTH 17 0
BBX 15 23 1 -5
BITMAP
0380
0380
0380
0380
0FE0
3FF8
3B9C
638C
638E
E38E
E386
E386
E38E
638E
638C
3B9C
3FF8
0FE0
0380
0380
0380
0380
0380
ENDCHAR
STARTCHAR uni03D6
ENCODING 982
SWIDTH 820 0
DWIDTH 21 0
BBX 18 14 1 0
BITMAP
FFFFC0
FFFFC0
700180
6001C0
6000C0
E0E0C0
E0E0C0
E0E0C0
E0E0C0
60E0C0
60E1C0
71F380
3FBF80
1E1E00
ENDCHAR
STARTCHAR uni03D7
ENCODING 983
SWIDTH 525 0
DWIDTH 13 0
BBX 11 19 2 -5
BITMAP
C0E0
C1C0
C380
C700
C600
CC00
F800
F800
DC00
CE00
C700
C380
C180
C0C0
00E0
0180
0380
0300
0600
ENDCHAR
STARTCHAR uni03DC
ENCODING 988
SWIDTH 593 0
DWIDTH 15 0
BBX 11 18 2 0
BITMAP
FFE0
FFE0
E000
E000
E000
E000
E000
E000
FFE0
FFE0
E000
E000
E000
E000
E000
E000
E000
E000
ENDCHAR
STARTCHAR uni03DD
ENCODING 989
SWIDTH 533 0
DWIDTH 13 0
BBX 10 19 2 -5
BITMAP
FFC0
FFC0
C000
C000
C000
C000
C000
FFC0
FFC0
C000
C000
C000
C000
C000
C000
C000
C000
C000
C000
ENDCHAR
STARTCHAR kappa1
ENCODING 1008
SWIDTH 724 0
DWIDTH 18 0
BBX 16 14 1 0
BITMAP
F01C
F81C
3C38
1C78
1C78
1CF8
1DF8
1DB8
1FB8
1F38
1E38
1C1C
1C1F
380F
ENDCHAR
STARTCHAR rho1
ENCODING 1009
SWIDTH 633 0
DWIDTH 16 0
BBX 12 20 2 -6
BITMAP
1F00
3FC0
70E0
6060
E070
E070
E070
E070
E070
E060
F0E0
DFC0
CF80
6000
7000
3C00
1F80
0FC0
00E0
0060
ENDCHAR
STARTCHAR uni03F2
ENCODING 1010
SWIDTH 571 0
DWIDTH 14 0
BBX 12 14 1 0
BITMAP
0F80
3FE0
38E0
6070
6000
E000
E000
E000
E000
6000
6030
38E0
3FE0
0F80
ENDCHAR
STARTCHAR uni03F3
ENCODING 1011
SWIDTH 242 0
DWIDTH 6 0
BBX 5 24 0 -5
BITMAP
30
78
30
00
00
30
30
30
30
30
30
30
30
30
30
30
30
30
30
30
30
70
E0
C0
ENDCHAR
STARTCHAR uni03F4
ENCODING 1012
SWIDTH 764 0
DWIDTH 19 0
BBX 17 18 1 0
BITMAP
03E000
0FF800
1C1C00
380E00
700700
600300
600300
600380
FFFF80
FFFF80
600380
600300
600300
700700
380E00
1C1C00
0FF800
03F000
ENDCHAR
STARTCHAR uni03F5
ENCODING 1013
SWIDTH 450 0
DWIDTH 11 0
BBX 9 14 1 0
BITMAP
1F80
3F80
7000
E000
E000
C000
FE00
FE00
C000
E000
E000
7000
3F80
1F80
ENDCHAR
STARTCHAR uni03F6
ENCODING 1014
SWIDTH 450 0
DWIDTH 11 0
BBX 9 14 1 0
BITMAP
FC00
FF00
0700
0380
0180
0180
3F80
3F80
0180
0180
0380
0700
FF00
FC00
ENDCHAR
STARTCHAR uni03F9
ENCODING 1017
SWIDTH 730 0
DWIDTH 18 0
BBX 16 18 1 0
BITMAP
03E0
0FF8
1C1C
380E
7007
6003
6000
6000
E000
E000
6000
6000
6003
7007
380E
1C1C
0FF8
03E0
ENDCHAR
STARTCHAR uni03FA
ENCODING 1018
SWIDTH 903 0
DWIDTH 23 0
BBX 18 18 2 0
BITMAP
F001C0
F003C0
F003C0
D803C0
D807C0
DC06C0
CC06C0
CC0CC0
CE0CC0
C61CC0
C718C0
C318C0
C330C0
C3B0C0
C1B0C0
C1E0C0
C0E0C0
C0E0C0
ENDCHAR
STARTCHAR uni03FC
ENCODING 1020
SWIDTH 612 0
DWIDTH 15 0
BBX 14 19 0 -5
BITMAP
07E0
0FF0
1C38
1818
301C
300C
300C
300C
300C
381C
3818
3C38
37F0
33E0
3000
FF00
FF00
3000
3000
ENDCHAR
STARTCHAR uni03FD
ENCODING 1021
SWIDTH 634 0
DWIDTH 16 0
BBX 14 18 1 0
BITMAP
0FC0
3FE0
7070
6038
E018
E01C
001C
001C
001C
001C
001C
001C
E01C
E018
6038
7070
3FE0
0F80
ENDCHAR
STARTCHAR uni03FE
ENCODING 1022
SWIDTH 730 0
DWIDTH 18 0
BBX 16 18 1 0
BITMAP
03E0
0FF8
1C1C
380E
7007
6003
6000
61C0
E1C0
E1C0
6000
6000
6003
7007
380E
1C1C
0FF8
03E0
ENDCHAR
STARTCHAR uni03FF
ENCODING 1023
SWIDTH 730 0
DWIDTH 18 0
BBX 16 18 1 0
BITMAP
07E0
1FF0
383C
700C
600E
E006
0007
0187
0387
0187
0007
0007
E006
600E
700C
383C
1FF0
07E0
ENDCHAR
STARTCHAR uni0400
ENCODING 1024
SWIDTH 601 0
DWIDTH 15 0
BBX 11 25 2 0
BITMAP
1800
1C00
0C00
0600
0000
0000
0000
FFE0
FFE0
E000
E000
E000
E000
E000
E000
FFE0
FFE0
E000
E000
E000
E000
E000
E000
FFE0
FFE0
ENDCHAR
STARTCHAR uni0401
ENCODING 1025
SWIDTH 601 0
DWIDTH 15 0
BBX 11 24 2 0
BITMAP
3180
39C0
3180
0000
0000
0000
FFE0
FFE0
E000
E000
E000
E000
E000
E000
FFE0
FFE0
E000
E000
E000
E000
E000
E000
FFE0
FFE0
ENDCHAR
STARTCHAR uni0402
ENCODING 1026
SWIDTH 841 0
DWIDTH 21 0
BBX 19 19 1 -1
BITMAP
FFFC00
FFFC00
030000
030000
030000
030000
030000
033E00
037F80
03C3C0
0380C0
0300E0
0300E0
0300E0
0300E0
0300C0
0301C0
031F80
001E00
ENDCHAR
STARTCHAR uni0403
ENCODING 1027
SWIDTH 578 0
DWIDTH 14 0
BBX 11 25 2 0
BITMAP
0180
0300
0300
0600
0000
0000
0000
FFE0
FFE0
E000
E000
E000
E000
E000
E000
E000
E000
E000
E000
E000
E000
E000
E000
E000
E000
ENDCHAR
STARTCHAR uni0404
ENCODING 1028
SWIDTH 730 0
DWIDTH 18 0
BBX 16 18 1 0
BITMAP
03F0
0FFC
1C1E
3806
7007
6000
6000
7FC0
FFC0
E000
6000
6000
7007
7006
380E
1C1C
0FF8
03E0
ENDCHAR
STARTCHAR uni0405
ENCODING 1029
SWIDTH 641 0
DWIDTH 16 0
BBX 14 18 1 0
BITMAP
0FC0
1FF0
3878
7018
6018
6000
7000
3C00
1FC0
03F0
0078
0018
001C
E01C
6018
7878
3FF0
0FC0
ENDCHAR
STARTCHAR uni0406
ENCODING 1030
SWIDTH 268 0
DWIDTH 7 0
BBX 3 18 2 0
BITMAP
E0
E0
E0
E0
E0
E0
E0
E0
E0
E0
E0
E0
E0
E0
E0
E0
E0
E0
ENDCHAR
STARTCHAR uni0407
ENCODING 1031
SWIDTH 268 0
DWIDTH 7 0
BBX 8 24 -1 0
BITMAP
63
E7
63
00
00
00
1C
1C
1C
1C
1C
1C
1C
1C
1C
1C
1C
1C
1C
1C
1C
1C
1C
1C
ENDCHAR
STARTCHAR uni0408
ENCODING 1032
SWIDTH 570 0
DWIDTH 14 0
BBX 11 18 1 0
BITMAP
0060
0060
0060
0060
0060
0060
0060
0060
0060
0060
0060
0060
E060
E060
E0E0
71C0
3FC0
1F00
ENDCHAR
STARTCHAR uni0409
ENCODING 1033
SWIDTH 1113 0
DWIDTH 28 0
BBX 26 18 1 0
BITMAP
0FFE0000
0FFE0000
0C060000
0C060000
0C060000
0C060000
0C060000
0C07FC00
0C07FF00
1C060380
1C060180
1C060180
180601C0
18060180
18060180
38060380
F007FF00
E007FC00
ENDCHAR
STARTCHAR uni040A
ENCODING 1034
SWIDTH 1125 0
DWIDTH 28 0
BBX 25 18 2 0
BITMAP
C00C0000
C00C0000
C00C0000
C00C0000
C00C0000
C00C0000
C00C0000
FFFFFC00
FFFFFE00
C00C0700
C00C0380
C00C0380
C00C0180
C00C0380
C00C0380
C00C0700
C00FFE00
C00FFC00
ENDCHAR
STARTCHAR uni040B
ENCODING 1035
SWIDTH 884 0
DWIDTH 22 0
BBX 19 18 1 0
BITMAP
FFFE00
FFFE00
030000
030000
030000
030000
030000
033F00
03FFC0
03C1C0
0300E0
030060
030060
030060
030060
030060
030060
030060
ENDCHAR
STARTCHAR uni040C
ENCODING 1036
SWIDTH 671 0
DWIDTH 17 0
BBX 14 25 2 0
BITMAP
01C0
0180
0300
0700
0000
0000
0000
E01C
E038
E070
E0E0
E0C0
E1C0
E380
E700
FE00
FF00
E300
E380
E1C0
E0E0
E060
E070
E038
E01C
ENDCHAR
STARTCHAR uni040D
ENCODING 1037
SWIDTH 753 0
DWIDTH 19 0
BBX 15 25 2 0
BITMAP
0E00
0600
0300
0300
0000
0000
0000
E00E
E01E
E03E
E03E
E07E
E0EE
E0CE
E1CE
E38E
E30E
E70E
E60E
CE0E
DC0E
D80E
F80E
F00E
E00E
ENDCHAR
STARTCHAR uni040E
ENCODING 1038
SWIDTH 628 0
DWIDTH 16 0
BBX 14 25 1 0
BITMAP
1840
18C0
0FC0
0780
0000
0000
0000
C01C
E018
6018
7038
3030
3870
1860
1860
0CE0
0CC0
0FC0
0780
0780
0300
0300
0700
3E00
3C00
ENDCHAR
STARTCHAR uni040F
ENCODING 1039
SWIDTH 722 0
DWIDTH 18 0
BBX 14 22 2 -4
BITMAP
E00C
E00C
E00C
E00C
E00C
E00C
E00C
E00C
E00C
E00C
E00C
E00C
E00C
E00C
E00C
E00C
FFFC
FFFC
0300
0300
0300
0300
ENDCHAR
STARTCHAR uni0410
ENCODING 1040
SWIDTH 689 0
DWIDTH 17 0
BBX 16 18 1 0
BITMAP
0380
0380
06C0
06C0
06E0
0C60
0C60
1C70
1830
1830
3838
3FF8
3FFC
700C
600C
600E
E006
C007
ENDCHAR
STARTCHAR uni0411
ENCODING 1041
SWIDTH 645 0
DWIDTH 16 0
BBX 13 18 2 0
BITMAP
FFE0
FFE0
E000
E000
E000
E000
E000
FF80
FFE0
E070
E030
E038
E038
E038
E030
E070
FFE0
FF80
ENDCHAR
STARTCHAR uni0412
ENCODING 1042
SWIDTH 654 0
DWIDTH 16 0
BBX 13 18 2 0
BITMAP
FF80
FFE0
E070
E030
E030
E030
E030
E0E0
FFC0
FFE0
E070
E038
E018
E018
E038
E070
FFF0
FFC0
ENDCHAR
STARTCHAR uni0413
ENCODING 1043
SWIDTH 578 0
DWIDTH 14 0
BBX 11 18 2 0
BITMAP
FFE0
FFE0
E000
E000
E000
E000
E000
E000
E000
E000
E000
E000
E000
E000
E000
E000
E000
E000
ENDCHAR
STARTCHAR uni0414
ENCODING 1044
SWIDTH 819 0
DWIDTH 20 0
BBX 18 22 1 -4
BITMAP
07FF00
07FF00
060300
060300
0E0300
0E0300
0E0300
0E0300
0C0300
0C0300
0C0300
0C0300
1C0300
1C0300
180300
380300
FFFFC0
FFFFC0
C000C0
C000C0
C000C0
C000C0
ENDCHAR
STARTCHAR uni0415
ENCODING 1045
SWIDTH 601 0
DWIDTH 15 0
BBX 11 18 2 0
BITMAP
FFE0
FFE0
E000
E000
E000
E000
E000
E000
FFE0
FFE0
E000
E000
E000
E000
E000
E000
FFE0
FFE0
ENDCHAR
STARTCHAR uni0416
ENCODING 1046
SWIDTH 959 0
DWIDTH 24 0
BBX 22 18 1 0
BITMAP
E0301C
703038
303030
383070
1C30E0
0C30C0
0E31C0
063180
07FF80
07FF80
0E31C0
0C30C0
1C30E0
383060
303030
703038
603018
E0301C
ENDCHAR
STARTCHAR uni0417
ENCODING 1047
SWIDTH 617 0
DWIDTH 15 0
BBX 12 18 2 0
BITMAP
1F00
7FC0
F0E0
C060
0060
0060
00E0
0F80
0FC0
00E0
0070
0070
0030
C030
C070
F0E0
7FC0
1F80
ENDCHAR
STARTCHAR uni0418
ENCODING 1048
SWIDTH 753 0
DWIDTH 19 0
BBX 15 18 2 0
BITMAP
E00E
E01E
E03E
E03E
E07E
E0EE
E0CE
E1CE
E38E
E30E
E70E
E60E
CE0E
DC0E
D80E
F80E
F00E
E00E
ENDCHAR
STARTCHAR uni0419
ENCODING 1049
SWIDTH 753 0
DWIDTH 19 0
BBX 15 25 2 0
BITMAP
0860
0C60
0FC0
0380
0000
0000
0000
E00E
E01E
E03E
E03E
E07E
E0EE
E0CE
E1CE
E38E
E30E
E70E
E60E
CE0E
DC0E
D80E
F80E
F00E
E00E
ENDCHAR
STARTCHAR Kacyr
ENCODING 1050
SWIDTH 671 0
DWIDTH 17 0
BBX 14 18 2 0
BITMAP
E01C
E038
E070
E0E0
E0C0
E1C0
E380
E700
FE00
FF00
E300
E380
E1C0
E0E0
E060
E070
E038
E01C
ENDCHAR
STARTCHAR uni041B
ENCODING 1051
SWIDTH 748 0
DWIDTH 19 0
BBX 16 18 1 0
BITMAP
0FFF
0FFF
0C07
0C07
0C07
0C07
0C07
0C07
0C07
1C07
1C07
1C07
1C07
1807
1807
3807
F007
E007
ENDCHAR
STARTCHAR uni041C
ENCODING 1052
SWIDTH 903 0
DWIDTH 23 0
BBX 18 18 2 0
BITMAP
F001C0
F003C0
F003C0
D803C0
D807C0
DC06C0
CC06C0
CC0CC0
CE0CC0
C61CC0
C718C0
C318C0
C330C0
C3B0C0
C1B0C0
C1E0C0
C0E0C0
C0E0C0
ENDCHAR
STARTCHAR uni041D
ENCODING 1053
SWIDTH 743 0
DWIDTH 19 0
BBX 14 18 2 0
BITMAP
E00C
E00C
E00C
E00C
E00C
E00C
E00C
E00C
FFFC
FFFC
E00C
E00C
E00C
E00C
E00C
E00C
E00C
E00C
ENDCHAR
STARTCHAR uni041E
ENCODING 1054
SWIDTH 764 0
DWIDTH 19 0
BBX 17 18 1 0
BITMAP
03E000
0FF800
1C1C00
380E00
700700
600300
600300
600380
E00380
E00380
600380
600300
600300
700700
380E00
1C1C00
0FF800
03F000
ENDCHAR
STARTCHAR uni041F
ENCODING 1055
SWIDTH 743 0
DWIDTH 19 0
BBX 14 18 2 0
BITMAP
FFFC
FFFC
E00C
E00C
E00C
E00C
E00C
E00C
E00C
E00C
E00C
E00C
E00C
E00C
E00C
E00C
E00C
E00C
ENDCHAR
STARTCHAR uni0420
ENCODING 1056
SWIDTH 638 0
DWIDTH 16 0
BBX 13 18 2 0
BITMAP
FF80
FFE0
E070
E030
E038
E038
E038
E030
E070
FFE0
FF80
E000
E000
E000
E000
E000
E000
E000
ENDCHAR
STARTCHAR uni0421
ENCODING 1057
SWIDTH 730 0
DWIDTH 18 0
BBX 16 18 1 0
BITMAP
03E0
0FF8
1C1C
380E
7007
6003
6000
6000
E000
E000
6000
6000
6003
7007
380E
1C1C
0FF8
03E0
ENDCHAR
STARTCHAR uni0422
ENCODING 1058
SWIDTH 645 0
DWIDTH 16 0
BBX 14 18 1 0
BITMAP
FFFC
FFFC
0300
0300
0300
0300
0300
0300
0300
0300
0300
0300
0300
0300
0300
0300
0300
0300
ENDCHAR
STARTCHAR uni0423
ENCODING 1059
SWIDTH 628 0
DWIDTH 16 0
BBX 14 18 1 0
BITMAP
C01C
E018
6018
7038
3030
3870
1860
1860
0CE0
0CC0
0FC0
0780
0780
0300
0300
0700
3E00
3C00
ENDCHAR
STARTCHAR uni0424
ENCODING 1060
SWIDTH 828 0
DWIDTH 21 0
BBX 18 21 1 -1
BITMAP
00E000
00E000
00E000
07FC00
1FFE00
3CE780
70E180
60E1C0
60E0C0
60E0C0
E0E0C0
60E0C0
60E0C0
60E1C0
70E180
3CE780
1FFE00
07FC00
00E000
00E000
00E000
ENDCHAR
STARTCHAR uni0425
ENCODING 1061
SWIDTH 682 0
DWIDTH 17 0
BBX 15 18 1 0
BITMAP
E00E
701C
3018
1838
1C70
0C60
06E0
07C0
0380
0380
06C0
0EE0
0C70
1C30
3838
701C
600C
E00E
ENDCHAR
STARTCHAR uni0426
ENCODING 1062
SWIDTH 720 0
DWIDTH 18 0
BBX 16 22 2 -4
BITMAP
E00C
E00C
E00C
E00C
E00C
E00C
E00C
E00C
E00C
E00C
E00C
E00C
E00C
E00C
E00C
E00C
FFFF
FFFF
0007
0007
0007
0007
ENDCHAR
STARTCHAR uni0427
ENCODING 1063
SWIDTH 700 0
DWIDTH 18 0
BBX 13 18 2 0
BITMAP
C018
C018
C018
C018
C018
C018
C018
E018
7078
7FF8
1F98
0018
0018
0018
0018
0018
0018
0018
ENDCHAR
STARTCHAR uni0428
ENCODING 1064
SWIDTH 957 0
DWIDTH 24 0
BBX 20 18 2 0
BITMAP
E06070
E06070
E06070
E06070
E06070
E06070
E06070
E06070
E06070
E06070
E06070
E06070
E06070
E06070
E06070
E06070
FFFFF0
FFFFF0
ENDCHAR
STARTCHAR uni0429
ENCODING 1065
SWIDTH 972 0
DWIDTH 24 0
BBX 22 22 2 -4
BITMAP
E06070
E06070
E06070
E06070
E06070
E06070
E06070
E06070
E06070
E06070
E06070
E06070
E06070
E06070
E06070
E06070
FFFFFC
FFFFFC
00001C
00001C
00001C
00001C
ENDCHAR
STARTCHAR uni042A
ENCODING 1066
SWIDTH 816 0
DWIDTH 20 0
BBX 18 18 1 0
BITMAP
FF0000
FF0000
070000
070000
070000
070000
070000
07FE00
07FF80
070380
0701C0
0700C0
0700C0
0700C0
0701C0
070380
07FF00
07FE00
ENDCHAR
STARTCHAR uni042B
ENCODING 1067
SWIDTH 882 0
DWIDTH 22 0
BBX 18 18 2 0
BITMAP
E000C0
E000C0
E000C0
E000C0
E000C0
E000C0
E000C0
FFC0C0
FFE0C0
E070C0
E038C0
E018C0
E018C0
E018C0
E038C0
E070C0
FFE0C0
FFC0C0
ENDCHAR
STARTCHAR uni042C
ENCODING 1068
SWIDTH 649 0
DWIDTH 16 0
BBX 13 18 2 0
BITMAP
E000
E000
E000
E000
E000
E000
E000
FFC0
FFE0
E070
E038
E018
E018
E018
E038
E070
FFE0
FFC0
ENDCHAR
STARTCHAR uni042D
ENCODING 1069
SWIDTH 730 0
DWIDTH 18 0
BBX 16 18 1 0
BITMAP
07E0
1FF0
383C
700C
E006
0006
0007
03FF
03FF
0007
0007
0007
E006
600E
701C
383C
1FF0
07E0
ENDCHAR
STARTCHAR uni042E
ENCODING 1070
SWIDTH 1014 0
DWIDTH 25 0
BBX 22 18 2 0
BITMAP
E01F80
E07FE0
E0E0F0
E1C030
E38038
E38018
E3001C
FF000C
FF000C
E3000C
E3000C
E3001C
E38018
E18038
E1C030
E0E0F0
E07FE0
E01F80
ENDCHAR
STARTCHAR uni042F
ENCODING 1071
SWIDTH 643 0
DWIDTH 16 0
BBX 13 18 1 0
BITMAP
0FF8
3FF8
7018
6018
6018
E018
6018
6018
7018
3FF8
0FF8
1C18
1818
3818
3018
7018
6018
E018
ENDCHAR
STARTCHAR uni0430
ENCODING 1072
SWIDTH 561 0
DWIDTH 14 0
BBX 11 14 1 0
BITMAP
1F80
3FC0
70E0
E060
0060
00E0
1FE0
7E60
E060
C060
C0E0
E1E0
7F60
3E60
ENDCHAR
STARTCHAR uni0431
ENCODING 1073
SWIDTH 592 0
DWIDTH 15 0
BBX 13 19 1 0
BITMAP
0010
0FF0
1FE0
3000
6000
6780
5FE0
F0E0
E070
E030
E030
E038
E038
E030
6030
6070
78E0
3FC0
0F80
ENDCHAR
STARTCHAR uni0432
ENCODING 1074
SWIDTH 564 0
DWIDTH 14 0
BBX 11 14 2 0
BITMAP
FF00
FFC0
C1C0
C0C0
C0C0
C1C0
FF80
FF80
C0C0
C060
C060
C0E0
FFC0
FF80
ENDCHAR
STARTCHAR uni0433
ENCODING 1075
SWIDTH 436 0
DWIDTH 11 0
BBX 8 14 2 0
BITMAP
FF
FF
C0
C0
C0
C0
C0
C0
C0
C0
C0
C0
C0
C0
ENDCHAR
STARTCHAR uni0434
ENCODING 1076
SWIDTH 627 0
DWIDTH 16 0
BBX 15 18 0 -4
BITMAP
0FF8
0FF8
0C18
0C18
0C18
1C18
1C18
1818
1818
1818
1818
3018
FFFE
FFFE
E006
E006
E006
E006
ENDCHAR
STARTCHAR uni0435
ENCODING 1077
SWIDTH 583 0
DWIDTH 15 0
BBX 12 14 1 0
BITMAP
0F80
3FC0
38E0
6070
6030
E030
FFF0
FFF0
E000
6000
6030
7070
3FE0
0F80
ENDCHAR
STARTCHAR uni0436
ENCODING 1078
SWIDTH 810 0
DWIDTH 20 0
BBX 18 14 1 0
BITMAP
E0C1C0
70C180
30C300
18C700
1CCE00
0ECC00
07F800
07F800
0ECC00
1CCE00
38C700
30C380
70C180
E0C1C0
ENDCHAR
STARTCHAR uni0437
ENCODING 1079
SWIDTH 494 0
DWIDTH 12 0
BBX 10 14 1 0
BITMAP
1F00
7F80
6180
E1C0
01C0
0180
0F00
0F80
01C0
00C0
00C0
E1C0
7F80
1F00
ENDCHAR
STARTCHAR uni0438
ENCODING 1080
SWIDTH 591 0
DWIDTH 15 0
BBX 11 14 2 0
BITMAP
C0E0
C0E0
C1E0
C1E0
C360
C760
C660
CC60
DC60
D860
F060
F060
E060
C060
ENDCHAR
STARTCHAR uni0439
ENCODING 1081
SWIDTH 591 0
DWIDTH 15 0
BBX 11 20 2 0
BITMAP
2180
3180
3F00
0E00
0000
0000
C0E0
C0E0
C1E0
C1E0
C360
C760
C660
CC60
DC60
D860
F060
F060
E060
C060
ENDCHAR
STARTCHAR uni043A
ENCODING 1082
SWIDTH 541 0
DWIDTH 14 0
BBX 11 14 2 0
BITMAP
C0E0
C1C0
C380
C300
C600
CE00
FC00
FC00
CE00
C700
C380
C180
C1C0
C0E0
ENDCHAR
STARTCHAR uni043B
ENCODING 1083
SWIDTH 575 0
DWIDTH 14 0
BBX 12 14 0 0
BITMAP
1FF0
1FF0
1830
1830
1830
1830
1830
1830
1830
1830
1830
3030
F030
E030
ENDCHAR
STARTCHAR uni043C
ENCODING 1084
SWIDTH 770 0
DWIDTH 19 0
BBX 15 14 2 0
BITMAP
E00E
F01E
F01E
F81E
D836
D836
CC76
CC66
CE66
C6C6
C6C6
C3C6
C386
C386
ENDCHAR
STARTCHAR uni043D
ENCODING 1085
SWIDTH 591 0
DWIDTH 15 0
BBX 11 14 2 0
BITMAP
C060
C060
C060
C060
C060
C060
FFE0
FFE0
C060
C060
C060
C060
C060
C060
ENDCHAR
STARTCHAR uni043E
ENCODING 1086
SWIDTH 599 0
DWIDTH 15 0
BBX 13 14 1 0
BITMAP
0F80
3FE0
38E0
6030
6030
E038
E038
E038
E038
6030
6030
38E0
3FE0
0F80
ENDCHAR
STARTCHAR uni043F
ENCODING 1087
SWIDTH 587 0
DWIDTH 15 0
BBX 11 14 2 0
BITMAP
FFE0
FFE0
C060
C060
C060
C060
C060
C060
C060
C060
C060
C060
C060
C060
ENDCHAR
STARTCHAR uni0440
ENCODING 1088
SWIDTH 612 0
DWIDTH 15 0
BBX 12 19 2 -5
BITMAP
CF80
DFC0
F0E0
E060
C070
C030
C030
C030
C030
E070
E060
F0E0
DFC0
CF80
C000
C000
C000
C000
C000
ENDCHAR
STARTCHAR uni0441
ENCODING 1089
SWIDTH 571 0
DWIDTH 14 0
BBX 12 14 1 0
BITMAP
0F80
3FE0
38E0
6070
6000
E000
E000
E000
E000
6000
6030
38E0
3FE0
0F80
ENDCHAR
STARTCHAR uni0442
ENCODING 1090
SWIDTH 465 0
DWIDTH 12 0
BBX 11 14 0 0
BITMAP
FFE0
FFE0
0600
0600
0600
0600
0600
0600
0600
0600
0600
0600
0600
0600
ENDCHAR
STARTCHAR uni0443
ENCODING 1091
SWIDTH 562 0
DWIDTH 14 0
BBX 12 19 1 -5
BITMAP
C030
E070
6060
6060
70E0
30C0
30C0
39C0
1980
1980
0F00
0F00
0F00
0600
0600
0E00
0C00
7800
7000
ENDCHAR
STARTCHAR uni0444
ENCODING 1092
SWIDTH 689 0
DWIDTH 17 0
BBX 15 23 1 -5
BITMAP
0180
0180
0180
0180
0FE0
3FF8
399C
618C
618E
E186
E186
E186
E186
618E
618C
399C
3FF8
0FE0
0180
0180
0180
0180
0180
ENDCHAR
STARTCHAR uni0445
ENCODING 1093
SWIDTH 545 0
DWIDTH 14 0
BBX 12 14 1 0
BITMAP
E070
70E0
30C0
3980
1B80
0F00
0E00
0E00
0F00
1B80
3980
70C0
60E0
E070
ENDCHAR
STARTCHAR uni0446
ENCODING 1094
SWIDTH 597 0
DWIDTH 15 0
BBX 13 18 2 -4
BITMAP
C060
C060
C060
C060
C060
C060
C060
C060
C060
C060
C060
C060
FFF8
FFF8
0038
0038
0038
0038
ENDCHAR
STARTCHAR uni0447
ENCODING 1095
SWIDTH 577 0
DWIDTH 14 0
BBX 11 14 2 0
BITMAP
C0E0
C0E0
C0E0
C0E0
C0E0
C0E0
C0E0
E0E0
7FE0
1FE0
00E0
00E0
00E0
00E0
ENDCHAR
STARTCHAR uni0448
ENCODING 1096
SWIDTH 822 0
DWIDTH 21 0
BBX 17 14 2 0
BITMAP
C18380
C18380
C18380
C18380
C18380
C18380
C18380
C18380
C18380
C18380
C18380
C18380
FFFF80
FFFF80
ENDCHAR
STARTCHAR uni0449
ENCODING 1097
SWIDTH 836 0
DWIDTH 21 0
BBX 18 18 2 -4
BITMAP
C18380
C18380
C18380
C18380
C18380
C18380
C18380
C18380
C18380
C18380
C18380
C18380
FFFFC0
FFFFC0
0000C0
0000C0
0000C0
0000C0
ENDCHAR
STARTCHAR uni044A
ENCODING 1098
SWIDTH 643 0
DWIDTH 16 0
BBX 15 14 0 0
BITMAP
FC00
FC00
0C00
0C00
0C00
0FF0
0FFC
0C0C
0C0E
0C06
0C0E
0C0C
0FFC
0FF0
ENDCHAR
STARTCHAR uni044B
ENCODING 1099
SWIDTH 736 0
DWIDTH 18 0
BBX 14 14 2 0
BITMAP
C00C
C00C
C00C
C00C
C00C
FF0C
FFCC
C1CC
C0EC
C0EC
C0EC
C1CC
FFCC
FF0C
ENDCHAR
STARTCHAR uni044C
ENCODING 1100
SWIDTH 558 0
DWIDTH 14 0
BBX 11 14 2 0
BITMAP
C000
C000
C000
C000
C000
FF00
FFC0
C1C0
C0E0
C0E0
C0E0
C1C0
FFC0
FF00
ENDCHAR
STARTCHAR uni044D
ENCODING 1101
SWIDTH 565 0
DWIDTH 14 0
BBX 12 14 1 0
BITMAP
1F00
3FC0
70E0
E060
0070
0070
0FF0
0FF0
0070
0070
E060
70E0
3FC0
1F00
ENDCHAR
STARTCHAR uni044E
ENCODING 1102
SWIDTH 842 0
DWIDTH 21 0
BBX 18 14 2 0
BITMAP
C07C00
C1FF00
C1C380
C38180
C30180
C701C0
FF00C0
FF00C0
C701C0
C30180
C38180
C1C380
C1FF00
C07C00
ENDCHAR
STARTCHAR uni044F
ENCODING 1103
SWIDTH 554 0
DWIDTH 14 0
BBX 11 14 1 0
BITMAP
1FE0
7FE0
6060
E060
C060
E060
6060
7FE0
1FE0
3860
3060
7060
E060
C060
ENDCHAR
STARTCHAR uni0450
ENCODING 1104
SWIDTH 583 0
DWIDTH 15 0
BBX 12 20 1 0
BITMAP
1C00
0C00
0600
0600
0000
0000
0F80
3FC0
38E0
6070
6030
E030
FFF0
FFF0
E000
6000
6030
7070
3FE0
0F80
ENDCHAR
STARTCHAR uni0451
ENCODING 1105
SWIDTH 583 0
DWIDTH 15 0
BBX 12 19 1 0
BITMAP
18C0
39C0
18C0
0000
0000
0F80
3FC0
38E0
6070
6030
E030
FFF0
FFF0
E000
6000
6030
7070
3FE0
0F80
ENDCHAR
STARTCHAR uni0452
ENCODING 1106
SWIDTH 591 0
DWIDTH 15 0
BBX 13 24 0 -6
BITMAP
3000
FF00
FF00
3000
33C0
37F0
3C70
3838
3018
3018
3018
3018
3018
3018
3018
3018
3018
3018
0018
0018
0018
00F8
00F0
0040
ENDCHAR
STARTCHAR uni0453
ENCODING 1107
SWIDTH 436 0
DWIDTH 11 0
BBX 8 20 2 0
BITMAP
06
0E
0C
18
00
00
FF
FF
C0
C0
C0
C0
C0
C0
C0
C0
C0
C0
C0
C0
ENDCHAR
STARTCHAR uni0454
ENCODING 1108
SWIDTH 565 0
DWIDTH 14 0
BBX 12 14 1 0
BITMAP
0F80
3FC0
38E0
6070
6000
E000
FF00
FF00
E000
6000
6070
78E0
3FE0
0F80
ENDCHAR
STARTCHAR uni0455
ENCODING 1109
SWIDTH 527 0
DWIDTH 13 0
BBX 11 14 1 0
BITMAP
1F00
3FC0
70C0
60E0
6000
7000
3F00
0FC0
00E0
0060
E060
70E0
7FC0
1F00
ENDCHAR
STARTCHAR uni0456
ENCODING 1110
SWIDTH 242 0
DWIDTH 6 0
BBX 3 19 2 0
BITMAP
C0
E0
C0
00
00
C0
C0
C0
C0
C0
C0
C0
C0
C0
C0
C0
C0
C0
C0
ENDCHAR
STARTCHAR uni0457
ENCODING 1111
SWIDTH 242 0
DWIDTH 6 0
BBX 8 19 -1 0
BITMAP
E3
E7
E3
00
00
18
18
18
18
18
18
18
18
18
18
18
18
18
18
ENDCHAR
STARTCHAR uni0458
ENCODING 1112
SWIDTH 242 0
DWIDTH 6 0
BBX 5 24 0 -5
BITMAP
30
78
30
00
00
30
30
30
30
30
30
30
30
30
30
30
30
30
30
30
30
70
E0
C0
ENDCHAR
STARTCHAR uni0459
ENCODING 1113
SWIDTH 924 0
DWIDTH 23 0
BBX 22 14 0 0
BITMAP
1FF800
1FF800
1C3800
1C3800
183800
183FE0
183FF8
183838
18381C
18380C
18381C
383818
F03FF8
E03FE0
ENDCHAR
STARTCHAR uni045A
ENCODING 1114
SWIDTH 896 0
DWIDTH 22 0
BBX 19 14 2 0
BITMAP
C06000
C06000
C06000
C06000
C06000
C06000
FFFF80
FFFFC0
C060E0
C06060
C06060
C060E0
C07FC0
C07F80
ENDCHAR
STARTCHAR uni045B
ENCODING 1115
SWIDTH 591 0
DWIDTH 15 0
BBX 13 18 0 0
BITMAP
3000
FF00
FF00
3000
33C0
37F0
3C70
3838
3018
3018
3018
3018
3018
3018
3018
3018
3018
3018
ENDCHAR
STARTCHAR uni045C
ENCODING 1116
SWIDTH 541 0
DWIDTH 14 0
BBX 11 20 2 0
BITMAP
0300
0600
0600
0C00
0000
0000
C0E0
C1C0
C380
C300
C600
CE00
FC00
FC00
CE00
C700
C380
C180
C1C0
C0E0
ENDCHAR
STARTCHAR uni045D
ENCODING 1117
SWIDTH 591 0
DWIDTH 15 0
BBX 11 20 2 0
BITMAP
3800
1800
0C00
0C00
0000
0000
C0E0
C0E0
C1E0
C1E0
C360
C760
C660
CC60
DC60
D860
F060
F060
E060
C060
ENDCHAR
STARTCHAR uni045E
ENCODING 1118
SWIDTH 562 0
DWIDTH 14 0
BBX 12 25 1 -5
BITMAP
30C0
1980
1F80
0F00
0000
0000
C030
E070
6060
6060
70E0
30C0
30C0
39C0
1980
1980
0F00
0F00
0F00
0600
0600
0E00
0C00
7800
7000
ENDCHAR
STARTCHAR uni045F
ENCODING 1119
SWIDTH 587 0
DWIDTH 15 0
BBX 11 18 2 -4
BITMAP
C060
C060
C060
C060
C060
C060
C060
C060
C060
C060
C060
C060
FFE0
FFE0
0C00
0C00
0C00
0C00
ENDCHAR
STARTCHAR uni0460
ENCODING 1120
SWIDTH 896 0
DWIDTH 22 0
BBX 18 18 2 0
BITMAP
E0C0C0
E0C0C0
E0C0C0
E0C0C0
E0C0C0
E0C0C0
E0C0C0
E0C0C0
E0C0C0
E0C0C0
E0C0C0
E0C0C0
E0C0C0
E0C0C0
E0E0C0
71E1C0
7FFF80
1F1F00
ENDCHAR
STARTCHAR uni0461
ENCODING 1121
SWIDTH 806 0
DWIDTH 20 0
BBX 16 14 2 0
BITMAP
C183
C183
C183
C183
C183
C183
C183
C183
C183
C183
C183
E3C7
7E7E
3C3C
ENDCHAR
STARTCHAR uni0462
ENCODING 1122
SWIDTH 688 0
DWIDTH 17 0
BBX 16 18 0 0
BITMAP
1C00
1C00
1C00
FFC0
FFC0
1C00
1C00
1FF8
1FFC
1C0E
1C07
1C03
1C03
1C07
1C07
1C0E
1FFC
1FF8
ENDCHAR
STARTCHAR uni0463
ENCODING 1123
SWIDTH 615 0
DWIDTH 15 0
BBX 14 18 0 0
BITMAP
1800
1800
1800
1800
FFC0
FFC0
1C00
1C00
1C00
1FF0
1FF8
1C1C
1C0C
1C0C
1C0C
1C1C
1FF8
1FF0
ENDCHAR
STARTCHAR uni0464
ENCODING 1124
SWIDTH 956 0
DWIDTH 24 0
BBX 21 18 2 0
BITMAP
E03F00
E0FFC0
E1E0E0
E38070
E30030
E70008
E70000
FFFC00
FFFC00
E60000
E70000
E30008
E30030
E38030
E1C070
E0E0E0
E07FC0
E03F00
ENDCHAR
STARTCHAR uni0465
ENCODING 1125
SWIDTH 781 0
DWIDTH 20 0
BBX 16 14 2 0
BITMAP
C0F8
C1FE
C387
C703
C600
C600
FFF0
FFF0
C600
C600
C703
C387
C1FE
C0F8
ENDCHAR
STARTCHAR uni0466
ENCODING 1126
SWIDTH 689 0
DWIDTH 17 0
BBX 16 18 1 0
BITMAP
0380
0380
06C0
06C0
06E0
0C60
0C60
1C70
1830
1830
3FF8
3FF8
339C
738C
638C
638E
E386
C387
ENDCHAR
STARTCHAR uni0467
ENCODING 1127
SWIDTH 570 0
DWIDTH 14 0
BBX 13 14 1 0
BITMAP
0600
0F00
0F00
0F80
1D80
1980
19C0
38C0
3FE0
7F60
6660
6670
E630
C638
ENDCHAR
STARTCHAR uni0468
ENCODING 1128
SWIDTH 937 0
DWIDTH 23 0
BBX 21 18 2 0
BITMAP
E01C00
E01E00
E03E00
E03600
E03300
E07300
E06380
E06180
E0E180
E0C1C0
FFFFC0
FFFFC0
E18CE0
E38C60
E30C60
E30C70
E70C30
E60C38
ENDCHAR
STARTCHAR uni0469
ENCODING 1129
SWIDTH 775 0
DWIDTH 19 0
BBX 17 14 2 0
BITMAP
C07000
C07000
C0F000
C0D800
C1D800
C19800
C18C00
FF9C00
FFFE00
C77600
C66600
C66700
CE6300
CC6380
ENDCHAR
STARTCHAR uni046A
ENCODING 1130
SWIDTH 853 0
DWIDTH 21 0
BBX 17 18 2 0
BITMAP
7FFF00
3FFE00
180E00
1C1C00
0E1800
063800
073000
036000
1FFC00
7FFF00
70C380
E0C180
C0C180
C0C180
C0C180
C0C180
C0C180
C0C180
ENDCHAR
STARTCHAR uni046B
ENCODING 1131
SWIDTH 694 0
DWIDTH 17 0
BBX 15 14 1 0
BITMAP
7FFC
3FF8
1838
1C30
0C70
0E60
06E0
1FF8
7FFC
718E
E186
E186
C186
C186
ENDCHAR
STARTCHAR uni046C
ENCODING 1132
SWIDTH 1145 0
DWIDTH 29 0
BBX 25 18 2 0
BITMAP
E07FFE00
E07FFC00
E0381C00
E0181800
E01C3800
E00C3000
E0066000
E007E000
FFFFFC00
FFFFFE00
E0E18700
E1C18300
E1C18380
E1C18380
E1C18380
E1C18380
E1C18380
E1C18380
ENDCHAR
STARTCHAR uni046D
ENCODING 1133
SWIDTH 958 0
DWIDTH 24 0
BBX 21 14 2 0
BITMAP
C1FFF0
C0FFE0
C060C0
C07180
C03380
C01B00
FFFFC0
FFFFF0
C18C70
C30C38
C30C18
C30C18
C30C18
C30C18
ENDCHAR
STARTCHAR uni046E
ENCODING 1134
SWIDTH 544 0
DWIDTH 14 0
BBX 10 29 2 -5
BITMAP
7180
1B00
0E00
0400
0000
0000
FE00
FF80
0380
01C0
01C0
01C0
0380
3F00
3F00
0380
01C0
01C0
00C0
01C0
01C0
0380
7F80
FE00
C000
C000
C000
F000
6000
ENDCHAR
STARTCHAR uni046F
ENCODING 1135
SWIDTH 522 0
DWIDTH 13 0
BBX 10 25 1 -6
BITMAP
7180
1B00
1E00
0C00
0000
7F00
7F80
01C0
00C0
00C0
0180
3F00
3F80
01C0
00C0
00C0
01C0
3F80
7F00
E000
C000
C000
F000
7800
0800
ENDCHAR
STARTCHAR uni0470
ENCODING 1136
SWIDTH 879 0
DWIDTH 22 0
BBX 18 18 2 0
BITMAP
C0C0C0
C0C0C0
C0C0C0
C0C0C0
C0C0C0
C0C1C0
E0C1C0
E0C1C0
60C180
70C380
38C700
1FFE00
07F800
00C000
00C000
00C000
00C000
00C000
ENDCHAR
STARTCHAR uni0471
ENCODING 1137
SWIDTH 777 0
DWIDTH 19 0
BBX 16 23 2 -5
BITMAP
0180
0180
0180
0180
C187
C187
C187
C187
C187
C187
C187
C186
C186
E186
618E
719C
3FF8
0FF0
0180
0180
0180
0180
0180
ENDCHAR
STARTCHAR uni0472
ENCODING 1138
SWIDTH 764 0
DWIDTH 19 0
BBX 17 18 1 0
BITMAP
03E000
0FF800
1C1C00
380E00
700700
600300
600300
600380
FFFF80
FFFF80
600380
600300
600300
700700
380E00
1C1C00
0FF800
03F000
ENDCHAR
STARTCHAR uni0473
ENCODING 1139
SWIDTH 599 0
DWIDTH 15 0
BBX 13 14 1 0
BITMAP
0F80
3FE0
38E0
6030
6030
FE38
FFF8
E3F8
E038
6030
6030
38E0
3FE0
0F80
ENDCHAR
STARTCHAR uni0474
ENCODING 1140
SWIDTH 704 0
DWIDTH 18 0
BBX 16 18 1 0
BITMAP
C003
E007
600E
600C
701C
3018
3018
3838
1830
1830
0C70
0C60
0E60
06C0
06C0
07C0
0380
0380
ENDCHAR
STARTCHAR uni0475
ENCODING 1141
SWIDTH 592 0
DWIDTH 15 0
BBX 13 14 1 0
BITMAP
C038
E078
6060
60E0
70C0
30C0
31C0
3980
1980
1B80
1F00
0F00
0F00
0E00
ENDCHAR
STARTCHAR uni0476
ENCODING 1142
SWIDTH 704 0
DWIDTH 18 0
BBX 16 25 1 0
BITMAP
3980
18C0
0CC0
0660
0000
0000
0000
C003
E007
600E
600C
701C
3018
3018
3838
1830
1830
0C70
0C60
0E60
06C0
06C0
07C0
0380
0380
ENDCHAR
STARTCHAR uni0477
ENCODING 1143
SWIDTH 592 0
DWIDTH 15 0
BBX 13 20 1 0
BITMAP
E600
6300
3300
1980
0000
0000
C038
E078
6060
60E0
70C0
30C0
31C0
3980
1980
1B80
1F00
0F00
0F00
0E00
ENDCHAR
STARTCHAR uni0478
ENCODING 1144
SWIDTH 1326 0
DWIDTH 33 0
BBX 32 23 1 -5
BITMAP
03E00000
0FF80000
1C1C0000
380E0000
70071807
60031C06
60030C0E
60038C0C
E0038E1C
E0038618
60038618
60030338
60030330
70070330
380E01F0
1C1C01E0
0FF801E0
03F000C0
000000C0
000001C0
00000180
00000F80
00000E00
ENDCHAR
STARTCHAR uni0479
ENCODING 1145
SWIDTH 1142 0
DWIDTH 29 0
BBX 27 19 1 -5
BITMAP
0F8380E0
3FE180C0
38E180C0
6031C1C0
6030C180
E038C180
E0386300
E0386300
E0387700
60303600
60303600
38E03600
3FE01C00
0F801C00
00001800
00001800
00003800
0000F000
0001E000
ENDCHAR
STARTCHAR uni0480
ENCODING 1152
SWIDTH 710 0
DWIDTH 18 0
BBX 15 18 1 0
BITMAP
07E0
1FF8
3C1C
300E
7006
6000
6000
E000
E000
6000
6000
7006
300E
3C1E
1FF6
07C6
0006
0006
ENDCHAR
STARTCHAR uni0481
ENCODING 1153
SWIDTH 565 0
DWIDTH 14 0
BBX 12 19 1 -5
BITMAP
0F80
3FC0
38E0
7070
6030
E000
E000
E000
E000
E000
6000
7000
3800
1F00
0F00
0300
0300
0300
0300
ENDCHAR
STARTCHAR uni0482
ENCODING 1154
SWIDTH 631 0
DWIDTH 16 0
BBX 13 17 1 0
BITMAP
0038
0030
0070
0C60
0FC0
03C0
01E0
01B8
0318
6700
FE00
1C00
0F00
1BC0
18C0
3000
7000
ENDCHAR
STARTCHAR uni0483
ENCODING 1155
SWIDTH 0 0
DWIDTH 0 0
BBX 8 5 -11 15
BITMAP
03
03
FF
C0
C0
ENDCHAR
STARTCHAR uni0484
ENCODING 1156
SWIDTH 0 0
DWIDTH 0 0
BBX 9 3 -11 16
BITMAP
0F00
FF80
F180
ENDCHAR
STARTCHAR uni0485
ENCODING 1157
SWIDTH 0 0
DWIDTH 0 0
BBX 3 4 -8 16
BITMAP
C0
C0
60
40
ENDCHAR
STARTCHAR uni0486
ENCODING 1158
SWIDTH 0 0
DWIDTH 0 0
BBX 3 4 -7 16
BITMAP
E0
E0
C0
80
ENDCHAR
STARTCHAR uni0487
ENCODING 1159
SWIDTH 0 0
DWIDTH 0 0
BBX 10 3 -12 16
BITMAP
7C00
FFC0
C3C0
ENDCHAR
STARTCHAR uni0488
ENCODING 1160
SWIDTH 0 0
DWIDTH 0 0
BBX 23 22 -18 -4
BITMAP
003800
004C00
004C00
000000
1C0070
2600C8
000000
000000
000000
000000
F0001C
980032
000000
000000
000000
000000
1C0070
260098
260088
000000
003800
004C00
ENDCHAR
STARTCHAR uni0489
ENCODING 1161
SWIDTH 0 0
DWIDTH 0 0
BBX 23 23 -18 -5
BITMAP
001000
001000
003000
183010
080070
0C01E0
040080
000000
000000
000000
800020
F0003C
10000E
000000
000000
000000
000040
0600C0
1C0040
301060
003020
003000
002000
ENDCHAR
STARTCHAR uni048A
ENCODING 1162
SWIDTH 753 0
DWIDTH 19 0
BBX 17 29 2 -4
BITMAP
086000
0C6000
0FC000
038000
000000
000000
000000
E00E00
E01E00
E03E00
E03E00
E07E00
E0EE00
E0CE00
E1CE00
E38E00
E30E00
E70E00
E60E00
CE0E00
DC0E00
D80E00
F80E00
F00F80
E00F80
000300
000300
000700
000600
ENDCHAR
STARTCHAR uni048B
ENCODING 1163
SWIDTH 591 0
DWIDTH 15 0
BBX 13 24 2 -4
BITMAP
2180
3180
3F00
0E00
0000
0000
C0E0
C0E0
C1E0
C1E0
C360
C760
C660
CC60
DC60
D860
F060
F060
E078
C078
0038
0030
0030
0070
ENDCHAR
STARTCHAR uni048C
ENCODING 1164
SWIDTH 688 0
DWIDTH 17 0
BBX 16 18 0 0
BITMAP
1C00
1C00
1C00
FFC0
FFC0
1C00
1C00
1FF8
1FFC
1C0E
1C07
1C03
1C03
1C07
1C07
1C0E
1FFC
1FF8
ENDCHAR
STARTCHAR uni048D
ENCODING 1165
SWIDTH 615 0
DWIDTH 15 0
BBX 14 17 0 0
BITMAP
1800
1800
1800
FFC0
FFC0
1C00
1C00
1C00
1FF0
1FF8
1C1C
1C0C
1C0C
1C0C
1C1C
1FF8
1FF0
ENDCHAR
STARTCHAR uni048E
ENCODING 1166
SWIDTH 634 0
DWIDTH 16 0
BBX 13 18 2 0
BITMAP
FF80
FFE0
E070
E030
E038
E038
E138
E3B0
E1F0
FFE0
FFE0
E070
E020
E000
E000
E000
E000
E000
ENDCHAR
STARTCHAR uni048F
ENCODING 1167
SWIDTH 609 0
DWIDTH 15 0
BBX 12 19 2 -5
BITMAP
CF80
DFC0
F0E0
E060
C070
C030
C030
C030
C030
E170
E3E0
F1E0
DFE0
CFF0
C020
C000
C000
C000
C000
ENDCHAR
STARTCHAR uni0490
ENCODING 1168
SWIDTH 578 0
DWIDTH 14 0
BBX 11 22 2 0
BITMAP
0060
0060
0060
0060
FFE0
FFE0
E000
E000
E000
E000
E000
E000
E000
E000
E000
E000
E000
E000
E000
E000
E000
E000
ENDCHAR
STARTCHAR uni0491
ENCODING 1169
SWIDTH 456 0
DWIDTH 11 0
BBX 8 17 2 0
BITMAP
03
03
03
FF
FF
C0
C0
C0
C0
C0
C0
C0
C0
C0
C0
C0
C0
ENDCHAR
STARTCHAR uni0492
ENCODING 1170
SWIDTH 578 0
DWIDTH 14 0
BBX 13 18 0 0
BITMAP
3FF8
3FF8
3800
3800
3800
3800
3800
3800
FFC0
FFC0
3800
3800
3800
3800
3800
3800
3800
3800
ENDCHAR
STARTCHAR uni0493
ENCODING 1171
SWIDTH 436 0
DWIDTH 11 0
BBX 10 14 0 0
BITMAP
3FC0
3FC0
3000
3000
3000
3000
FF00
FF00
3000
3000
3000
3000
3000
3000
ENDCHAR
STARTCHAR uni0494
ENCODING 1172
SWIDTH 651 0
DWIDTH 16 0
BBX 13 19 2 -1
BITMAP
FFE0
FFE0
E000
E000
E000
E000
E000
EF80
FFE0
F070
E038
E038
E018
E018
E038
E038
E070
E7E0
0780
ENDCHAR
STARTCHAR uni0495
ENCODING 1173
SWIDTH 541 0
DWIDTH 14 0
BBX 10 18 2 -4
BITMAP
FF00
FF00
C000
C000
C000
C000
CE00
DF80
E180
C0C0
C0C0
C0C0
C0C0
C0C0
01C0
0380
0F00
0E00
ENDCHAR
STARTCHAR uni0496
ENCODING 1174
SWIDTH 979 0
DWIDTH 24 0
BBX 23 22 1 -4
BITMAP
E0301C
703038
303030
383070
1C30E0
0C30C0
0E31C0
063180
07FF80
07FF80
0E31C0
0C30C0
1C30E0
383060
303030
703038
60301E
E0301E
000006
000006
000006
000006
ENDCHAR
STARTCHAR uni0497
ENCODING 1175
SWIDTH 829 0
DWIDTH 21 0
BBX 19 18 1 -4
BITMAP
E0C1C0
70C180
30C300
18C700
1CCE00
0ECC00
07F800
07F800
0ECC00
1CCE00
38C700
30C380
70C1E0
E0C1E0
000060
000060
000060
000060
ENDCHAR
STARTCHAR uni0498
ENCODING 1176
SWIDTH 617 0
DWIDTH 15 0
BBX 12 23 2 -5
BITMAP
1F00
7FC0
F0E0
C060
0060
0060
00E0
0F80
0FC0
00E0
0070
0070
0030
C030
C070
F0E0
7FC0
1F80
0600
0780
0180
0180
0700
ENDCHAR
STARTCHAR uni0499
ENCODING 1177
SWIDTH 494 0
DWIDTH 12 0
BBX 10 19 1 -5
BITMAP
1F00
7F80
6180
E1C0
01C0
0180
0F00
0F80
01C0
00C0
00C0
E1C0
7F80
3F00
0C00
0F00
0300
0300
0F00
ENDCHAR
STARTCHAR uni049A
ENCODING 1178
SWIDTH 706 0
DWIDTH 18 0
BBX 15 22 2 -4
BITMAP
E01C
E038
E070
E0E0
E0C0
E1C0
E380
E700
FE00
FF00
E300
E380
E1C0
E0E0
E060
E070
E03E
E01E
0006
0006
0006
0006
ENDCHAR
STARTCHAR uni049B
ENCODING 1179
SWIDTH 561 0
DWIDTH 14 0
BBX 12 18 2 -4
BITMAP
C0E0
C1C0
C380
C300
C600
CE00
FC00
FC00
CE00
C700
C380
C180
C1F0
C0F0
0030
0030
0030
0030
ENDCHAR
STARTCHAR uni049C
ENCODING 1180
SWIDTH 666 0
DWIDTH 17 0
BBX 14 18 2 0
BITMAP
E01C
E038
E030
E070
E060
ECE0
ECC0
EDC0
FF80
FF80
EDC0
ECC0
ECE0
E060
E070
E038
E018
E01C
ENDCHAR
STARTCHAR uni049D
ENCODING 1181
SWIDTH 585 0
DWIDTH 15 0
BBX 12 14 2 0
BITMAP
C070
C060
C0E0
C1C0
D980
DB80
FF00
FF00
D980
D9C0
D8C0
C0E0
C060
C070
ENDCHAR
STARTCHAR uni04A0
ENCODING 1184
SWIDTH 838 0
DWIDTH 21 0
BBX 19 18 1 0
BITMAP
FF00E0
FF01C0
070380
070300
070700
070E00
071C00
071800
07F800
07F800
071800
071C00
070E00
070700
070380
070180
0701C0
0700E0
ENDCHAR
STARTCHAR uni04A1
ENCODING 1185
SWIDTH 626 0
DWIDTH 16 0
BBX 15 14 0 0
BITMAP
FC0E
FC1C
0C38
0C30
0C70
0CE0
0FC0
0FC0
0CE0
0C70
0C38
0C18
0C1C
0C0E
ENDCHAR
STARTCHAR uni04A2
ENCODING 1186
SWIDTH 757 0
DWIDTH 19 0
BBX 16 22 2 -4
BITMAP
E00C
E00C
E00C
E00C
E00C
E00C
E00C
E00C
FFFC
FFFC
E00C
E00C
E00C
E00C
E00C
E00C
E00F
E00F
0003
0003
0003
0003
ENDCHAR
STARTCHAR uni04A3
ENCODING 1187
SWIDTH 605 0
DWIDTH 15 0
BBX 13 18 2 -4
BITMAP
C060
C060
C060
C060
C060
C060
FFE0
FFE0
C060
C060
C060
C060
C078
C078
0038
0038
0038
0038
ENDCHAR
STARTCHAR uni04A4
ENCODING 1188
SWIDTH 985 0
DWIDTH 25 0
BBX 21 18 2 0
BITMAP
E00FF8
E00FF8
E00C00
E00C00
E00C00
E00C00
E00C00
E00C00
FFFC00
FFFC00
E00C00
E00C00
E00C00
E00C00
E00C00
E00C00
E00C00
E00C00
ENDCHAR
STARTCHAR uni04A5
ENCODING 1189
SWIDTH 677 0
DWIDTH 17 0
BBX 15 14 2 0
BITMAP
C07E
C07E
C060
C060
C060
C060
FFE0
FFE0
C060
C060
C060
C060
C060
C060
ENDCHAR
STARTCHAR uni04A6
ENCODING 1190
SWIDTH 1107 0
DWIDTH 28 0
BBX 24 19 2 -1
BITMAP
FFFC00
FFFC00
E00C00
E00C00
E00C00
E00C00
E00C00
E00CF8
E00FFC
E00F0E
E00E07
E00C03
E00C03
E00C03
E00C03
E00C07
E00C0E
E00C7C
000078
ENDCHAR
STARTCHAR uni04A7
ENCODING 1191
SWIDTH 921 0
DWIDTH 23 0
BBX 20 18 2 -4
BITMAP
FFE000
FFE000
C06000
C06000
C06000
C06000
C07F00
C07FC0
C061E0
C06060
C06070
C06030
C06030
C06070
000060
0003C0
000180
000100
ENDCHAR
STARTCHAR uni04A8
ENCODING 1192
SWIDTH 985 0
DWIDTH 25 0
BBX 22 18 1 0
BITMAP
038000
0F87C0
1C1FE0
383870
703030
607018
606018
606018
E06018
E07038
607038
603870
6038F0
701DE0
381FC0
1C0F84
0FFFFC
03F9FC
ENDCHAR
STARTCHAR uni04A9
ENCODING 1193
SWIDTH 778 0
DWIDTH 19 0
BBX 18 14 1 0
BITMAP
0E0000
3E0000
387C00
60FE00
61C700
E18300
E18380
E18380
E18300
618300
70C600
38FE00
1FFFC0
0FEFC0
ENDCHAR
STARTCHAR uni04AA
ENCODING 1194
SWIDTH 730 0
DWIDTH 18 0
BBX 16 23 1 -5
BITMAP
03E0
0FF8
1C1C
380E
7007
6003
6000
6000
E000
E000
6000
6000
6003
7007
380E
1C1C
0FF8
03E0
0080
00E0
0020
0020
01E0
ENDCHAR
STARTCHAR uni04AB
ENCODING 1195
SWIDTH 571 0
DWIDTH 14 0
BBX 12 19 1 -5
BITMAP
0F80
3FE0
38E0
6070
6000
E000
E000
E000
E000
6000
6030
38E0
3FE0
0F80
0200
0380
0080
0080
0780
ENDCHAR
STARTCHAR uni04AC
ENCODING 1196
SWIDTH 645 0
DWIDTH 16 0
BBX 14 22 1 -4
BITMAP
FFFC
FFFC
0300
0300
0300
0300
0300
0300
0300
0300
0300
0300
0300
0300
0300
0300
03C0
03C0
00C0
00C0
00C0
00C0
ENDCHAR
STARTCHAR uni04AD
ENCODING 1197
SWIDTH 465 0
DWIDTH 12 0
BBX 11 18 0 -4
BITMAP
FFE0
FFE0
0600
0600
0600
0600
0600
0600
0600
0600
0600
0600
0780
0780
0180
0180
0180
0180
ENDCHAR
STARTCHAR uni04AE
ENCODING 1198
SWIDTH 678 0
DWIDTH 17 0
BBX 15 18 1 0
BITMAP
E00E
600C
701C
3018
3838
1C70
0C60
0EE0
06C0
0380
0380
0380
0380
0380
0380
0380
0380
0380
ENDCHAR
STARTCHAR uni04AF
ENCODING 1199
SWIDTH 562 0
DWIDTH 14 0
BBX 12 19 1 -5
BITMAP
C030
E070
6060
6060
70E0
30C0
30C0
39C0
1980
1980
0F00
0F00
0F00
0600
0600
0600
0600
0600
0600
ENDCHAR
STARTCHAR uni04B0
ENCODING 1200
SWIDTH 678 0
DWIDTH 17 0
BBX 15 18 1 0
BITMAP
E00E
600C
701C
3018
3838
1C70
0C60
0EE0
06C0
0380
0380
0380
1FF0
1FF0
0380
0380
0380
0380
ENDCHAR
STARTCHAR uni04B1
ENCODING 1201
SWIDTH 562 0
DWIDTH 14 0
BBX 12 19 1 -5
BITMAP
C030
E070
6060
6060
70E0
30C0
30C0
39C0
1980
1980
0F00
0F00
0F00
0600
3FC0
3FC0
0600
0600
0600
ENDCHAR
STARTCHAR uni04B2
ENCODING 1202
SWIDTH 701 0
DWIDTH 18 0
BBX 16 22 1 -4
BITMAP
E00E
701C
3018
1838
1C70
0C60
06E0
07C0
0380
0380
06C0
0EE0
0C70
1C30
3838
701C
600F
E00F
0003
0003
0003
0003
ENDCHAR
STARTCHAR uni04B3
ENCODING 1203
SWIDTH 565 0
DWIDTH 14 0
BBX 13 18 1 -4
BITMAP
E070
70E0
30C0
3980
1B80
0F00
0E00
0E00
0F00
1B80
3980
70C0
60F8
E078
0018
0018
0018
0018
ENDCHAR
STARTCHAR uni04B4
ENCODING 1204
SWIDTH 915 0
DWIDTH 23 0
BBX 21 22 1 -4
BITMAP
FFFC70
FFFC70
030070
030070
030070
030070
030070
030070
030070
030070
030070
030070
030070
030070
030070
030070
03FFF8
03FFF8
000018
000018
000018
000018
ENDCHAR
STARTCHAR uni04B5
ENCODING 1205
SWIDTH 709 0
DWIDTH 18 0
BBX 16 18 1 -4
BITMAP
FF8C
FF8C
1C0C
1C0C
1C0C
1C0C
1C0C
1C0C
1C0C
1C0C
1C0C
1C0C
1FFF
1FFF
0003
0003
0003
0003
ENDCHAR
STARTCHAR uni04B6
ENCODING 1206
SWIDTH 714 0
DWIDTH 18 0
BBX 15 22 2 -4
BITMAP
C018
C018
C018
C018
C018
C018
C018
E018
7078
7FF8
1F98
0018
0018
0018
0018
0018
001E
001E
0006
0006
0006
0006
ENDCHAR
STARTCHAR uni04B7
ENCODING 1207
SWIDTH 592 0
DWIDTH 15 0
BBX 12 18 2 -4
BITMAP
C0E0
C0E0
C0E0
C0E0
C0E0
C0E0
C0E0
E0E0
7FE0
1FE0
00E0
00E0
00F0
00F0
0030
0030
0030
0030
ENDCHAR
STARTCHAR uni04B8
ENCODING 1208
SWIDTH 700 0
DWIDTH 18 0
BBX 13 18 2 0
BITMAP
C018
C018
C018
C018
C018
C018
C318
E318
7378
7FF8
1F98
0318
0318
0318
0018
0018
0018
0018
ENDCHAR
STARTCHAR uni04B9
ENCODING 1209
SWIDTH 577 0
DWIDTH 14 0
BBX 11 14 2 0
BITMAP
C0E0
C0E0
C0E0
C0E0
C0E0
CCE0
CCE0
ECE0
7FE0
1FE0
0CE0
0CE0
0CE0
00E0
ENDCHAR
STARTCHAR uni04BA
ENCODING 1210
SWIDTH 700 0
DWIDTH 18 0
BBX 14 18 2 0
BITMAP
E000
E000
E000
E000
E000
E000
EFC0
FFF0
F878
E018
E018
E01C
E01C
E01C
E01C
E01C
E01C
E01C
ENDCHAR
STARTCHAR uni04BB
ENCODING 1211
SWIDTH 591 0
DWIDTH 15 0
BBX 11 18 2 0
BITMAP
C000
C000
C000
C000
CF00
DFC0
F1C0
E0E0
C060
C060
C060
C060
C060
C060
C060
C060
C060
C060
ENDCHAR
STARTCHAR uni04BC
ENCODING 1212
SWIDTH 839 0
DWIDTH 21 0
BBX 19 18 0 0
BITMAP
007E00
01FF80
03C3C0
0700C0
0600E0
CE0060
CC0060
EC0060
7FFFE0
3FFFE0
0C0000
0C0000
0E0060
0600E0
0700C0
0383C0
01FF80
007E00
ENDCHAR
STARTCHAR uni04BD
ENCODING 1213
SWIDTH 713 0
DWIDTH 18 0
BBX 17 14 0 0
BITMAP
00F800
01FE00
038600
C70300
C60300
660380
7FFF80
3FFF80
060000
060000
070300
038700
01FE00
00FC00
ENDCHAR
STARTCHAR uni04BE
ENCODING 1214
SWIDTH 839 0
DWIDTH 21 0
BBX 19 22 0 -4
BITMAP
007E00
01FF80
03C3C0
0700C0
0600E0
CE0060
CC0060
EC0060
7FFFE0
3FFFE0
0C0000
0C0000
0E0060
0600E0
0700C0
0383C0
01FF80
007E00
001800
001800
001800
001800
ENDCHAR
STARTCHAR uni04BF
ENCODING 1215
SWIDTH 713 0
DWIDTH 18 0
BBX 17 19 0 -5
BITMAP
00F800
01FE00
038600
C70300
C60300
660380
7FFF80
3FFF80
060000
060000
070300
038700
01FE00
00FC00
002000
003800
000C00
000C00
007800
ENDCHAR
STARTCHAR uni04C0
ENCODING 1216
SWIDTH 268 0
DWIDTH 7 0
BBX 3 18 2 0
BITMAP
E0
E0
E0
E0
E0
E0
E0
E0
E0
E0
E0
E0
E0
E0
E0
E0
E0
E0
ENDCHAR
STARTCHAR uni04C1
ENCODING 1217
SWIDTH 959 0
DWIDTH 24 0
BBX 22 25 1 0
BITMAP
018600
00CC00
00FC00
007800
000000
000000
000000
E0301C
703038
303030
383070
1C30E0
0C30C0
0E31C0
063180
07FF80
07FF80
0E31C0
0C30C0
1C30E0
383060
303030
703038
603018
E0301C
ENDCHAR
STARTCHAR uni04C2
ENCODING 1218
SWIDTH 810 0
DWIDTH 20 0
BBX 18 20 1 0
BITMAP
021800
031800
03F000
01E000
000000
000000
E0C1C0
70C180
30C300
18C700
1CCE00
0ECC00
07F800
07F800
0ECC00
1CCE00
38C700
30C380
70C180
E0C1C0
ENDCHAR
STARTCHAR uni04C3
ENCODING 1219
SWIDTH 682 0
DWIDTH 17 0
BBX 14 22 2 -4
BITMAP
E03C
E030
E070
E0E0
E1C0
E380
E300
E700
FF80
FFE0
E0F0
E038
E018
E018
E018
E018
E018
E018
0038
0070
01F0
01C0
ENDCHAR
STARTCHAR uni04C4
ENCODING 1220
SWIDTH 586 0
DWIDTH 15 0
BBX 11 17 2 -3
BITMAP
C0E0
C1C0
C380
C700
C700
CE00
FE00
FF80
C1C0
C0E0
C060
C060
C060
C060
00E0
03C0
0380
ENDCHAR
STARTCHAR uni04C5
ENCODING 1221
SWIDTH 748 0
DWIDTH 19 0
BBX 18 22 1 -4
BITMAP
0FFF00
0FFF00
0C0700
0C0700
0C0700
0C0700
0C0700
0C0700
0C0700
1C0700
1C0700
1C0700
1C0700
180700
180700
380700
F007C0
E00780
000180
000180
000380
000300
ENDCHAR
STARTCHAR uni04C6
ENCODING 1222
SWIDTH 575 0
DWIDTH 14 0
BBX 15 18 0 -4
BITMAP
1FF0
1FF0
1830
1830
1830
1830
1830
1830
1830
1830
1830
3030
F03E
E03C
000C
000C
001C
0018
ENDCHAR
STARTCHAR uni04C7
ENCODING 1223
SWIDTH 743 0
DWIDTH 19 0
BBX 14 24 2 -6
BITMAP
E00C
E00C
E00C
E00C
E00C
E00C
E00C
E00C
FFFC
FFFC
E00C
E00C
E00C
E00C
E00C
E00C
E00C
E00C
000C
000C
000C
003C
003C
0020
ENDCHAR
STARTCHAR uni04C8
ENCODING 1224
SWIDTH 591 0
DWIDTH 15 0
BBX 11 20 2 -6
BITMAP
C060
C060
C060
C060
C060
C060
FFE0
FFE0
C060
C060
C060
C060
C060
C060
0060
0060
0060
01E0
03C0
0100
ENDCHAR
STARTCHAR uni04C9
ENCODING 1225
SWIDTH 743 0
DWIDTH 19 0
BBX 17 22 2 -4
BITMAP
E00C00
E00C00
E00C00
E00C00
E00C00
E00C00
E00C00
E00C00
FFFC00
FFFC00
E00C00
E00C00
E00C00
E00C00
E00C00
E00C00
E00F80
E00F00
000300
000300
000600
000600
ENDCHAR
STARTCHAR uni04CA
ENCODING 1226
SWIDTH 591 0
DWIDTH 15 0
BBX 13 18 2 -4
BITMAP
C060
C060
C060
C060
C060
C060
FFE0
FFE0
C060
C060
C060
C060
C078
C078
0038
0030
0030
0070
ENDCHAR
STARTCHAR uni04CB
ENCODING 1227
SWIDTH 714 0
DWIDTH 18 0
BBX 15 22 2 -4
BITMAP
C018
C018
C018
C018
C018
C018
C018
E018
7078
7FF8
1F98
0018
0018
0018
0018
0018
001E
001E
0006
0006
0006
0006
ENDCHAR
STARTCHAR uni04CC
ENCODING 1228
SWIDTH 592 0
DWIDTH 15 0
BBX 12 18 2 -4
BITMAP
C0E0
C0E0
C0E0
C0E0
C0E0
C0E0
C0E0
E0E0
7FE0
1FE0
00E0
00E0
00F0
00F0
0030
0030
0030
0030
ENDCHAR
STARTCHAR uni04CD
ENCODING 1229
SWIDTH 903 0
DWIDTH 23 0
BBX 21 22 2 -4
BITMAP
F001C0
F003C0
F003C0
D803C0
D807C0
DC06C0
CC06C0
CC0CC0
CE0CC0
C61CC0
C718C0
C318C0
C330C0
C3B0C0
C1B0C0
C1E0C0
C0E0F8
C0E0F0
000030
000070
000060
000060
ENDCHAR
STARTCHAR uni04CE
ENCODING 1230
SWIDTH 770 0
DWIDTH 19 0
BBX 18 18 2 -4
BITMAP
E00E00
F01E00
F01E00
F81E00
D83600
D83600
CC7600
CC6600
CE6600
C6C600
C6C600
C3C600
C387C0
C38780
000180
000380
000300
000300
ENDCHAR
STARTCHAR uni04CF
ENCODING 1231
SWIDTH 242 0
DWIDTH 6 0
BBX 2 18 2 0
BITMAP
C0
C0
C0
C0
C0
C0
C0
C0
C0
C0
C0
C0
C0
C0
C0
C0
C0
C0
ENDCHAR
STARTCHAR uni04D0
ENCODING 1232
SWIDTH 689 0
DWIDTH 17 0
BBX 16 25 1 0
BITMAP
0C20
0C60
07E0
0380
0000
0000
0000
0380
0380
06C0
06C0
06E0
0C60
0C60
1C70
1830
1830
3838
3FF8
3FFC
700C
600C
600E
E006
C007
ENDCHAR
STARTCHAR uni04D1
ENCODING 1233
SWIDTH 561 0
DWIDTH 14 0
BBX 11 20 1 0
BITMAP
3080
3180
1F80
0F00
0000
0000
1F80
3FC0
70E0
E060
0060
00E0
1FE0
7E60
E060
C060
C0E0
E1E0
7F60
3E60
ENDCHAR
STARTCHAR uni04D2
ENCODING 1234
SWIDTH 689 0
DWIDTH 17 0
BBX 16 24 1 0
BITMAP
0C60
0E70
0C60
0000
0000
0000
0380
0380
06C0
06C0
06E0
0C60
0C60
1C70
1830
1830
3838
3FF8
3FFC
700C
600C
600E
E006
C007
ENDCHAR
STARTCHAR uni04D3
ENCODING 1235
SWIDTH 561 0
DWIDTH 14 0
BBX 11 19 1 0
BITMAP
3180
39C0
3180
0000
0000
1F80
3FC0
70E0
E060
0060
00E0
1FE0
7E60
E060
C060
C0E0
E1E0
7F60
3E60
ENDCHAR
STARTCHAR uni04D4
ENCODING 1236
SWIDTH 993 0
DWIDTH 25 0
BBX 22 18 1 0
BITMAP
00FFFC
00DFFC
019800
019800
039800
031800
071800
061800
0E1FFC
0C1FFC
1C1800
1FF800
3FF800
301800
701800
601800
E01FFC
C01FFC
ENDCHAR
STARTCHAR uni04D5
ENCODING 1237
SWIDTH 917 0
DWIDTH 23 0
BBX 21 14 1 0
BITMAP
1F0F80
3FDFE0
70F870
E07030
006030
006038
1FFFF8
7FFFF8
E06000
C06000
C0F038
E1F870
7F9FE0
3E0FC0
ENDCHAR
STARTCHAR uni04D6
ENCODING 1238
SWIDTH 601 0
DWIDTH 15 0
BBX 11 25 2 0
BITMAP
3080
3180
1F80
0F00
0000
0000
0000
FFE0
FFE0
E000
E000
E000
E000
E000
E000
FFE0
FFE0
E000
E000
E000
E000
E000
E000
FFE0
FFE0
ENDCHAR
STARTCHAR uni04D7
ENCODING 1239
SWIDTH 583 0
DWIDTH 15 0
BBX 12 20 1 0
BITMAP
10C0
18C0
1F80
0F00
0000
0000
0F80
3FC0
38E0
6070
6030
E030
FFF0
FFF0
E000
6000
6030
7070
3FE0
0F80
ENDCHAR
STARTCHAR uni04D8
ENCODING 1240
SWIDTH 745 0
DWIDTH 19 0
BBX 15 18 2 0
BITMAP
0FC0
3FF0
7878
E01C
E00C
C00E
0006
0006
FFFE
FFFE
C006
C006
C00E
E00C
601C
7878
3FF0
0FC0
ENDCHAR
STARTCHAR uni04D9
ENCODING 1241
SWIDTH 583 0
DWIDTH 15 0
BBX 12 14 1 0
BITMAP
1F80
3FC0
70E0
E070
0030
0030
FFF0
FFF0
E030
E030
6070
70E0
3FC0
0F80
ENDCHAR
STARTCHAR uni04DA
ENCODING 1242
SWIDTH 745 0
DWIDTH 19 0
BBX 15 24 2 0
BITMAP
0C60
1CE0
0C60
0000
0000
0000
0FC0
3FF0
7878
E01C
E00C
C00E
0006
0006
FFFE
FFFE
C006
C006
C00E
E00C
601C
7878
3FF0
0FC0
ENDCHAR
STARTCHAR uni04DB
ENCODING 1243
SWIDTH 583 0
DWIDTH 15 0
BBX 12 19 1 0
BITMAP
18C0
39C0
18C0
0000
0000
1F80
3FC0
70E0
E070
0030
0030
FFF0
FFF0
E030
E030
6070
70E0
3FC0
0F80
ENDCHAR
STARTCHAR uni04DC
ENCODING 1244
SWIDTH 959 0
DWIDTH 24 0
BBX 22 24 1 0
BITMAP
018600
01CE00
01C600
000000
000000
000000
E0301C
703038
303030
383070
1C30E0
0C30C0
0E31C0
063180
07FF80
07FF80
0E31C0
0C30C0
1C30E0
383060
303030
703038
603018
E0301C
ENDCHAR
STARTCHAR uni04DD
ENCODING 1245
SWIDTH 810 0
DWIDTH 20 0
BBX 18 19 1 0
BITMAP
031800
073800
031800
000000
000000
E0C1C0
70C180
30C300
18C700
1CCE00
0ECC00
07F800
07F800
0ECC00
1CCE00
38C700
30C380
70C180
E0C1C0
ENDCHAR
STARTCHAR uni04DE
ENCODING 1246
SWIDTH 617 0
DWIDTH 15 0
BBX 12 24 2 0
BITMAP
3180
39C0
3180
0000
0000
0000
1F00
7FC0
F0E0
C060
0060
0060
00E0
0F80
0FC0
00E0
0070
0070
0030
C030
C070
F0E0
7FC0
1F80
ENDCHAR
STARTCHAR uni04DF
ENCODING 1247
SWIDTH 494 0
DWIDTH 12 0
BBX 10 19 1 0
BITMAP
3180
7380
3180
0000
0000
1F00
7F80
6180
E1C0
01C0
0180
0F00
0F80
01C0
00C0
00C0
E1C0
7F80
1F00
ENDCHAR
STARTCHAR uni04E0
ENCODING 1248
SWIDTH 620 0
DWIDTH 16 0
BBX 12 18 2 0
BITMAP
FFE0
FFE0
00C0
0180
0300
0600
0C00
0F80
0FC0
00E0
0070
0030
0030
C030
C070
E0E0
7FC0
1F00
ENDCHAR
STARTCHAR uni04E1
ENCODING 1249
SWIDTH 620 0
DWIDTH 16 0
BBX 12 18 2 -5
BITMAP
FFE0
FFE0
00C0
0180
0300
0600
0C00
0F80
0FC0
00E0
0070
0030
0030
C030
C070
E0E0
7FC0
1F00
ENDCHAR
STARTCHAR uni04E2
ENCODING 1250
SWIDTH 753 0
DWIDTH 19 0
BBX 15 24 2 0
BITMAP
0FE0
0FE0
0000
0000
0000
0000
E00E
E01E
E03E
E03E
E07E
E0EE
E0CE
E1CE
E38E
E30E
E70E
E60E
CE0E
DC0E
D80E
F80E
F00E
E00E
ENDCHAR
STARTCHAR uni04E3
ENCODING 1251
SWIDTH 591 0
DWIDTH 15 0
BBX 11 19 2 0
BITMAP
3F80
3F80
0000
0000
0000
C0E0
C0E0
C1E0
C1E0
C360
C760
C660
CC60
DC60
D860
F060
F060
E060
C060
ENDCHAR
STARTCHAR uni04E4
ENCODING 1252
SWIDTH 753 0
DWIDTH 19 0
BBX 15 24 2 0
BITMAP
0C60
1C60
0C60
0000
0000
0000
E00E
E01E
E03E
E03E
E07E
E0EE
E0CE
E1CE
E38E
E30E
E70E
E60E
CE0E
DC0E
D80E
F80E
F00E
E00E
ENDCHAR
STARTCHAR uni04E5
ENCODING 1253
SWIDTH 591 0
DWIDTH 15 0
BBX 11 19 2 0
BITMAP
3180
7180
3180
0000
0000
C0E0
C0E0
C1E0
C1E0
C360
C760
C660
CC60
DC60
D860
F060
F060
E060
C060
ENDCHAR
STARTCHAR uni04E6
ENCODING 1254
SWIDTH 764 0
DWIDTH 19 0
BBX 17 24 1 0
BITMAP
063000
063800
063000
000000
000000
000000
03E000
0FF800
1C1C00
380E00
700700
600300
600300
600380
E00380
E00380
600380
600300
600300
700700
380E00
1C1C00
0FF800
03F000
ENDCHAR
STARTCHAR uni04E7
ENCODING 1255
SWIDTH 599 0
DWIDTH 15 0
BBX 13 19 1 0
BITMAP
18C0
38E0
18C0
0000
0000
0F80
3FE0
38E0
6030
6030
E038
E038
E038
E038
6030
6030
38E0
3FE0
0F80
ENDCHAR
STARTCHAR uni04E8
ENCODING 1256
SWIDTH 764 0
DWIDTH 19 0
BBX 17 18 1 0
BITMAP
03E000
0FF800
1C1C00
380E00
700700
600300
600300
600380
FFFF80
FFFF80
600380
600300
600300
700700
380E00
1C1C00
0FF800
03F000
ENDCHAR
STARTCHAR uni04E9
ENCODING 1257
SWIDTH 599 0
DWIDTH 15 0
BBX 13 14 1 0
BITMAP
0F80
3FE0
38E0
6030
6030
FE38
FFF8
E3F8
E038
6030
6030
38E0
3FE0
0F80
ENDCHAR
STARTCHAR uni04EA
ENCODING 1258
SWIDTH 764 0
DWIDTH 19 0
BBX 17 24 1 0
BITMAP
063000
063800
063000
000000
000000
000000
03E000
0FF800
1C1C00
380E00
700700
600300
600300
600380
FFFF80
FFFF80
600380
600300
600300
700700
380E00
1C1C00
0FF800
03F000
ENDCHAR
STARTCHAR uni04EB
ENCODING 1259
SWIDTH 599 0
DWIDTH 15 0
BBX 13 19 1 0
BITMAP
18C0
38E0
18C0
0000
0000
0F80
3FE0
38E0
6030
6030
FE38
FFF8
E3F8
E038
6030
6030
38E0
3FE0
0F80
ENDCHAR
STARTCHAR uni04EC
ENCODING 1260
SWIDTH 730 0
DWIDTH 18 0
BBX 16 24 1 0
BITMAP
0C60
0E70
0C60
0000
0000
0000
07E0
1FF0
383C
700C
E006
0006
0007
03FF
03FF
0007
0007
0007
E006
600E
701C
383C
1FF0
07E0
ENDCHAR
STARTCHAR uni04ED
ENCODING 1261
SWIDTH 565 0
DWIDTH 14 0
BBX 12 19 1 0
BITMAP
31C0
39C0
31C0
0000
0000
1F00
3FC0
70E0
E060
0070
0070
0FF0
0FF0
0070
0070
E060
70E0
3FC0
1F00
ENDCHAR
STARTCHAR uni04EE
ENCODING 1262
SWIDTH 628 0
DWIDTH 16 0
BBX 14 24 1 0
BITMAP
1FC0
1FC0
0000
0000
0000
0000
C01C
E018
6018
7038
3030
3870
1860
1860
0CE0
0CC0
0FC0
0780
0780
0300
0300
0700
3E00
3C00
ENDCHAR
STARTCHAR uni04EF
ENCODING 1263
SWIDTH 562 0
DWIDTH 14 0
BBX 12 24 1 -5
BITMAP
1F80
1F80
0000
0000
0000
C030
E070
6060
6060
70E0
30C0
30C0
39C0
1980
1980
0F00
0F00
0F00
0600
0600
0E00
0C00
7800
7000
ENDCHAR
STARTCHAR uni04F0
ENCODING 1264
SWIDTH 628 0
DWIDTH 16 0
BBX 14 24 1 0
BITMAP
18C0
1CE0
18E0
0000
0000
0000
C01C
E018
6018
7038
3030
3870
1860
1860
0CE0
0CC0
0FC0
0780
0780
0300
0300
0700
3E00
3C00
ENDCHAR
STARTCHAR uni04F1
ENCODING 1265
SWIDTH 562 0
DWIDTH 14 0
BBX 12 24 1 -5
BITMAP
30C0
39C0
38C0
0000
0000
C030
E070
6060
6060
70E0
30C0
30C0
39C0
1980
1980
0F00
0F00
0F00
0600
0600
0E00
0C00
7800
7000
ENDCHAR
STARTCHAR uni04F2
ENCODING 1266
SWIDTH 628 0
DWIDTH 16 0
BBX 14 25 1 0
BITMAP
0730
0660
0E60
0CC0
0000
0000
0000
C01C
E018
6018
7038
3030
3870
1860
1860
0CE0
0CC0
0FC0
0780
0780
0300
0300
0700
3E00
3C00
ENDCHAR
STARTCHAR uni04F3
ENCODING 1267
SWIDTH 562 0
DWIDTH 14 0
BBX 12 25 1 -5
BITMAP
0E70
0CE0
0CC0
1980
0000
0000
C030
E070
6060
6060
70E0
30C0
30C0
39C0
1980
1980
0F00
0F00
0F00
0600
0600
0E00
0C00
7800
7000
ENDCHAR
STARTCHAR uni04F4
ENCODING 1268
SWIDTH 700 0
DWIDTH 18 0
BBX 13 24 2 0
BITMAP
18C0
1CE0
18C0
0000
0000
0000
C018
C018
C018
C018
C018
C018
C018
E018
7078
7FF8
1F98
0018
0018
0018
0018
0018
0018
0018
ENDCHAR
STARTCHAR uni04F5
ENCODING 1269
SWIDTH 577 0
DWIDTH 14 0
BBX 11 19 2 0
BITMAP
3180
7380
3180
0000
0000
C0E0
C0E0
C0E0
C0E0
C0E0
C0E0
C0E0
E0E0
7FE0
1FE0
00E0
00E0
00E0
00E0
ENDCHAR
STARTCHAR uni04F6
ENCODING 1270
SWIDTH 578 0
DWIDTH 14 0
BBX 11 22 2 -4
BITMAP
FFE0
FFE0
E000
E000
E000
E000
E000
E000
E000
E000
E000
E000
E000
E000
E000
E000
F000
F000
3000
3000
3000
3000
ENDCHAR
STARTCHAR uni04F7
ENCODING 1271
SWIDTH 436 0
DWIDTH 11 0
BBX 8 18 2 -4
BITMAP
FF
FF
C0
C0
C0
C0
C0
C0
C0
C0
C0
C0
F0
F0
30
30
30
30
ENDCHAR
STARTCHAR uni04F8
ENCODING 1272
SWIDTH 882 0
DWIDTH 22 0
BBX 18 24 2 0
BITMAP
063000
073800
063000
000000
000000
000000
E000C0
E000C0
E000C0
E000C0
E000C0
E000C0
E000C0
FFC0C0
FFE0C0
E070C0
E038C0
E018C0
E018C0
E018C0
E038C0
E070C0
FFE0C0
FFC0C0
ENDCHAR
STARTCHAR uni04F9
ENCODING 1273
SWIDTH 736 0
DWIDTH 18 0
BBX 14 19 2 0
BITMAP
0C60
1CE0
0C60
0000
0000
C00C
C00C
C00C
C00C
C00C
FF0C
FFCC
C1CC
C0EC
C0EC
C0EC
C1CC
FFCC
FF0C
ENDCHAR
STARTCHAR uni04FA
ENCODING 1274
SWIDTH 591 0
DWIDTH 15 0
BBX 14 24 0 -6
BITMAP
1FFC
1FFC
1800
1800
1800
1800
1800
1800
FFC0
FFC0
1800
1800
1800
1800
1800
1800
1E00
1E00
0600
0600
0600
3C00
3C00
3000
ENDCHAR
STARTCHAR uni04FB
ENCODING 1275
SWIDTH 436 0
DWIDTH 11 0
BBX 10 20 0 -6
BITMAP
3FC0
3FC0
3000
3000
3000
3000
FF00
FF00
3000
3000
3000
3000
3C00
3C00
0C00
0C00
0C00
7C00
7800
2000
ENDCHAR
STARTCHAR uni04FC
ENCODING 1276
SWIDTH 701 0
DWIDTH 18 0
BBX 17 24 1 -6
BITMAP
E00E00
701C00
301800
183800
1C7000
0C6000
06E000
07C000
038000
038000
06C000
0EE000
0C7000
1C3000
383800
701C00
600F80
E00F80
000380
000300
000300
001F00
001E00
000800
ENDCHAR
STARTCHAR uni04FD
ENCODING 1277
SWIDTH 520 0
DWIDTH 13 0
BBX 11 20 1 -6
BITMAP
E0E0
60C0
71C0
3180
1B00
1B00
0E00
0E00
1F00
1B00
3180
71C0
60C0
E0E0
0060
0060
0060
03E0
03C0
0100
ENDCHAR
STARTCHAR uni04FE
ENCODING 1278
SWIDTH 682 0
DWIDTH 17 0
BBX 15 18 1 0
BITMAP
E00E
701C
3018
1838
1C70
0C60
06E0
07C0
7FFC
7FFC
07C0
0EE0
0C70
1C70
3838
701C
600C
E00E
ENDCHAR
STARTCHAR uni04FF
ENCODING 1279
SWIDTH 545 0
DWIDTH 14 0
BBX 12 14 1 0
BITMAP
E070
70E0
30C0
3980
1B80
0F00
FFE0
FFE0
1F00
1B80
39C0
70C0
60E0
E070
ENDCHAR
STARTCHAR uni052F
ENCODING 1327
SWIDTH 589 0
DWIDTH 15 0
BBX 14 18 0 -4
BITMAP
1FF0
1FF0
1830
1830
1830
1830
1830
1830
1830
1830
1830
3030
F03C
E03C
000C
000C
000C
000C
ENDCHAR
STARTCHAR uni0E3F
ENCODING 3647
SWIDTH 654 0
DWIDTH 16 0
BBX 13 23 2 -2
BITMAP
0600
0600
0600
FFC0
FFE0
E670
E630
E630
E630
E630
E660
FFC0
FFE0
E670
E638
E618
E618
E638
E670
FFF0
FFC0
0600
0600
ENDCHAR
STARTCHAR a.sups
ENCODING 7491
SWIDTH 401 0
DWIDTH 10 0
BBX 8 8 1 11
BITMAP
3C
FE
07
1F
F3
C7
FF
7B
ENDCHAR
STARTCHAR b.sups
ENCODING 7495
SWIDTH 436 0
DWIDTH 11 0
BBX 9 10 1 11
BITMAP
E000
E000
FE00
FF00
E380
E180
E180
E380
FF00
DE00
ENDCHAR
STARTCHAR d.sups
ENCODING 7496
SWIDTH 436 0
DWIDTH 11 0
BBX 8 10 1 11
BITMAP
03
03
3B
7F
E3
C3
C3
E3
7F
3B
ENDCHAR
STARTCHAR e.sups
ENCODING 7497
SWIDTH 416 0
DWIDTH 10 0
BBX 8 8 1 11
BITMAP
3C
7F
C3
FF
FF
C0
7F
3E
ENDCHAR
STARTCHAR g.sups
ENCODING 7501
SWIDTH 437 0
DWIDTH 11 0
BBX 9 11 1 8
BITMAP
3F80
7F80
E380
C380
C380
E380
7F80
3F80
0300
FF00
3E00
ENDCHAR
STARTCHAR k.sups
ENCODING 7503
SWIDTH 396 0
DWIDTH 10 0
BBX 8 10 1 11
BITMAP
E0
E0
E7
EE
FC
F8
FC
EE
E6
E3
ENDCHAR
STARTCHAR m.sups
ENCODING 7504
SWIDTH 624 0
DWIDTH 16 0
BBX 13 8 1 11
BITMAP
DEF0
FEF8
E318
E318
E318
E318
E318
E318
ENDCHAR
STARTCHAR o.sups
ENCODING 7506
SWIDTH 427 0
DWIDTH 11 0
BBX 9 8 1 11
BITMAP
3E00
7F00
E300
C380
C380
E300
7F00
3E00
ENDCHAR
STARTCHAR p.sups
ENCODING 7510
SWIDTH 436 0
DWIDTH 11 0
BBX 9 11 1 8
BITMAP
DE00
DF00
E380
E180
E180
E380
FF00
FE00
E000
E000
E000
ENDCHAR
STARTCHAR t.sups
ENCODING 7511
SWIDTH 245 0
DWIDTH 6 0
BBX 6 10 0 11
BITMAP
30
30
F8
F8
30
30
30
30
38
3C
ENDCHAR
STARTCHAR u.sups
ENCODING 7512
SWIDTH 435 0
DWIDTH 11 0
BBX 8 8 1 11
BITMAP
E3
E3
E3
E3
E3
E3
7F
3B
ENDCHAR
STARTCHAR v.sups
ENCODING 7515
SWIDTH 418 0
DWIDTH 10 0
BBX 9 8 1 11
BITMAP
C380
C300
6300
6600
3600
3600
3C00
1C00
ENDCHAR
STARTCHAR i.subs
ENCODING 7522
SWIDTH 197 0
DWIDTH 5 0
BBX 3 11 1 -4
BITMAP
40
E0
00
E0
E0
E0
E0
E0
E0
E0
E0
ENDCHAR
STARTCHAR r.subs
ENCODING 7523
SWIDTH 285 0
DWIDTH 7 0
BBX 6 8 1 -4
BITMAP
DC
FC
E0
E0
E0
E0
E0
E0
ENDCHAR
STARTCHAR u.subs
ENCODING 7524
SWIDTH 435 0
DWIDTH 11 0
BBX 8 8 1 -4
BITMAP
E3
E3
E3
E3
E3
E3
7F
3B
ENDCHAR
STARTCHAR v.subs
ENCODING 7525
SWIDTH 418 0
DWIDTH 10 0
BBX 9 8 1 -4
BITMAP
C380
C300
6300
6600
3600
3600
3C00
1C00
ENDCHAR
STARTCHAR c.sups
ENCODING 7580
SWIDTH 407 0
DWIDTH 10 0
BBX 8 8 1 11
BITMAP
3E
7F
E3
C0
C0
E3
7F
3E
ENDCHAR
STARTCHAR f.sups
ENCODING 7584
SWIDTH 274 0
DWIDTH 7 0
BBX 7 11 0 11
BITMAP
0A
3C
30
FC
FC
30
30
30
30
30
30
ENDCHAR
STARTCHAR z.sups
ENCODING 7611
SWIDTH 401 0
DWIDTH 10 0
BBX 8 8 1 11
BITMAP
7F
7E
0C
1C
38
30
7F
FF
ENDCHAR
STARTCHAR uni1DBF
ENCODING 7615
SWIDTH 451 0
DWIDTH 11 0
BBX 9 14 1 8
BITMAP
0800
3E00
6300
6180
E180
C180
FF80
FF80
C180
C180
E180
6300
7F00
1E00
ENDCHAR
STARTCHAR uni1DC0
ENCODING 7616
SWIDTH 0 0
DWIDTH 0 0
BBX 10 5 -12 15
BITMAP
7000
3980
DDC0
CD80
C200
ENDCHAR
STARTCHAR uni1DC1
ENCODING 7617
SWIDTH 0 0
DWIDTH 0 0
BBX 10 5 -13 15
BITMAP
0380
E700
EE80
4DC0
10C0
ENDCHAR
STARTCHAR uni1DC2
ENCODING 7618
SWIDTH 0 0
DWIDTH 0 0
BBX 4 6 -9 -7
BITMAP
E0
B0
C0
30
D0
20
ENDCHAR
STARTCHAR uni1DC3
ENCODING 7619
SWIDTH 0 0
DWIDTH 0 0
BBX 8 4 -10 15
BITMAP
02
4F
FC
38
ENDCHAR
STARTCHAR uni1DC4
ENCODING 7620
SWIDTH 0 0
DWIDTH 0 0
BBX 6 7 3 16
BITMAP
0C
18
18
30
00
FC
FC
ENDCHAR
STARTCHAR uni1DC5
ENCODING 7621
SWIDTH 0 0
DWIDTH 0 0
BBX 8 4 -11 15
BITMAP
C0
E0
7F
3F
ENDCHAR
STARTCHAR uni1DC6
ENCODING 7622
SWIDTH 0 0
DWIDTH 0 0
BBX 8 4 -10 15
BITMAP
FC
FE
06
03
ENDCHAR
STARTCHAR uni1DC7
ENCODING 7623
SWIDTH 0 0
DWIDTH 0 0
BBX 9 4 -11 15
BITMAP
3F80
3F80
6000
E000
ENDCHAR
STARTCHAR uni1DC8
ENCODING 7624
SWIDTH 0 0
DWIDTH 0 0
BBX 11 4 -12 15
BITMAP
E780
7F80
3CC0
3CE0
ENDCHAR
STARTCHAR uni1DC9
ENCODING 7625
SWIDTH 0 0
DWIDTH 0 0
BBX 11 4 -11 15
BITMAP
3DE0
7DC0
6F80
E700
ENDCHAR
STARTCHAR uni1DCA
ENCODING 7626
SWIDTH 0 0
DWIDTH 0 0
BBX 4 5 -9 -7
BITMAP
F0
C0
C0
C0
C0
ENDCHAR
STARTCHAR uni1DCB
ENCODING 7627
SWIDTH 0 0
DWIDTH 0 0
BBX 15 3 -14 15
BITMAP
C7FE
FFFE
7C00
ENDCHAR
STARTCHAR uni1DCC
ENCODING 7628
SWIDTH 0 0
DWIDTH 0 0
BBX 15 3 -15 15
BITMAP
FFC6
FFFE
007C
ENDCHAR
STARTCHAR uni1DCD
ENCODING 7629
SWIDTH 0 0
DWIDTH 0 0
BBX 22 4 -11 15
BITMAP
00F800
07FF80
7F03F0
F0007C
ENDCHAR
STARTCHAR uni1DCE
ENCODING 7630
SWIDTH 0 0
DWIDTH 0 0
BBX 5 6 -10 13
BITMAP
F0
78
18
18
38
70
ENDCHAR
STARTCHAR uni1DCF
ENCODING 7631
SWIDTH 0 0
DWIDTH 0 0
BBX 6 5 -10 -7
BITMAP
60
44
F8
18
18
ENDCHAR
STARTCHAR uni1DD0
ENCODING 7632
SWIDTH 0 0
DWIDTH 0 0
BBX 9 5 -10 -6
BITMAP
3000
6000
5980
FF80
4700
ENDCHAR
STARTCHAR uni1DD1
ENCODING 7633
SWIDTH 0 0
DWIDTH 0 0
BBX 7 4 -11 14
BITMAP
76
D2
DA
4E
ENDCHAR
STARTCHAR uni1DD2
ENCODING 7634
SWIDTH 0 0
DWIDTH 0 0
BBX 7 9 -11 15
BITMAP
3C
66
42
C2
42
3E
06
0C
38
ENDCHAR
STARTCHAR uni1DD3
ENCODING 7635
SWIDTH 0 0
DWIDTH 0 0
BBX 9 2 -12 15
BITMAP
CC80
7F80
ENDCHAR
STARTCHAR uni1DD4
ENCODING 7636
SWIDTH 0 0
DWIDTH 0 0
BBX 10 7 -12 15
BITMAP
7F80
CC80
0CC0
7FC0
CC00
8C80
F7C0
ENDCHAR
STARTCHAR uni1DD5
ENCODING 7637
SWIDTH 0 0
DWIDTH 0 0
BBX 10 7 -12 15
BITMAP
7F80
CCC0
0C40
7C40
CC40
8CC0
F780
ENDCHAR
STARTCHAR uni1DD6
ENCODING 7638
SWIDTH 0 0
DWIDTH 0 0
BBX 9 7 -12 15
BITMAP
7980
C980
0F00
7F00
CE00
8E00
FE00
ENDCHAR
STARTCHAR uni1DD7
ENCODING 7639
SWIDTH 0 0
DWIDTH 0 0
BBX 6 10 -10 12
BITMAP
78
CC
C0
C0
C0
CC
78
30
10
30
ENDCHAR
STARTCHAR uni1DD8
ENCODING 7640
SWIDTH 0 0
DWIDTH 0 0
BBX 6 10 -10 15
BITMAP
20
70
18
0C
7C
CC
84
8C
CC
78
ENDCHAR
STARTCHAR uni1DD9
ENCODING 7641
SWIDTH 0 0
DWIDTH 0 0
BBX 6 10 -10 15
BITMAP
20
7C
38
4C
7C
CC
84
8C
CC
78
ENDCHAR
STARTCHAR uni1DDA
ENCODING 7642
SWIDTH 0 0
DWIDTH 0 0
BBX 6 9 -10 12
BITMAP
74
CC
8C
8C
CC
7C
0C
CC
F8
ENDCHAR
STARTCHAR uni1DDB
ENCODING 7643
SWIDTH 0 0
DWIDTH 0 0
BBX 6 7 -10 15
BITMAP
78
CC
80
9C
8C
8C
7C
ENDCHAR
STARTCHAR uni1DDC
ENCODING 7644
SWIDTH 0 0
DWIDTH 0 0
BBX 6 10 -10 15
BITMAP
C0
C0
C0
CC
D0
F0
F0
D0
D8
CC
ENDCHAR
STARTCHAR uni1DDD
ENCODING 7645
SWIDTH 0 0
DWIDTH 0 0
BBX 2 10 -8 15
BITMAP
C0
C0
C0
C0
C0
C0
C0
C0
C0
C0
ENDCHAR
STARTCHAR uni1DDE
ENCODING 7646
SWIDTH 0 0
DWIDTH 0 0
BBX 5 7 -9 15
BITMAP
80
80
80
80
80
80
F8
ENDCHAR
STARTCHAR uni1DDF
ENCODING 7647
SWIDTH 0 0
DWIDTH 0 0
BBX 8 7 -11 15
BITMAP
C3
C7
E7
A7
AF
9B
9B
ENDCHAR
STARTCHAR uni1DE0
ENCODING 7648
SWIDTH 0 0
DWIDTH 0 0
BBX 6 7 -10 15
BITMAP
B8
C8
CC
CC
CC
CC
CC
ENDCHAR
STARTCHAR uni1DE1
ENCODING 7649
SWIDTH 0 0
DWIDTH 0 0
BBX 7 7 -11 15
BITMAP
C6
E6
F6
DE
DE
CE
C6
ENDCHAR
STARTCHAR uni1DE2
ENCODING 7650
SWIDTH 0 0
DWIDTH 0 0
BBX 6 7 -10 15
BITMAP
F8
8C
8C
F8
8C
8C
8C
ENDCHAR
STARTCHAR uni1DE3
ENCODING 7651
SWIDTH 0 0
DWIDTH 0 0
BBX 4 7 -9 15
BITMAP
F0
90
10
30
60
30
10
ENDCHAR
STARTCHAR uni1DE4
ENCODING 7652
SWIDTH 0 0
DWIDTH 0 0
BBX 6 7 -10 15
BITMAP
70
C8
C4
78
18
8C
78
ENDCHAR
STARTCHAR uni1DE5
ENCODING 7653
SWIDTH 0 0
DWIDTH 0 0
BBX 3 10 -8 15
BITMAP
60
C0
C0
C0
C0
C0
C0
C0
C0
C0
ENDCHAR
STARTCHAR uni1DE6
ENCODING 7654
SWIDTH 0 0
DWIDTH 0 0
BBX 6 7 -10 15
BITMAP
F8
18
10
30
60
40
FC
ENDCHAR
ENDFONT
